<?xml version="1.0" encoding="UTF-8"?> <svg xmlns="http://www.w3.org/2000/svg" width="53" height="48" viewBox="0 0 53 48" fill="none"> <path d="M50.3192 7.9142C50.3192 7.9142 50.5945 6.13016 50.5543 5.1779C50.2962 -0.535609 42.638 -1.17809 40.2517 1.58114C39.0585 2.96363 37.9169 5.42457 37.9169 5.42457C29.0426 8.47637 23.6848 15.0618 21.8262 17.8784C20.4207 20.0009 19.3824 21.8997 17.3632 28.4679C17.3632 28.4679 1.84034 39.0689 0.658631 39.9122C0.503746 40.0212 7.9554 46.5206 8.51758 47.3065L21.3099 30.883C21.3099 30.883 21.459 30.883 23.3234 31.0723C28.3141 31.5828 36.1788 31.3247 42.334 24.9974C44.5942 22.6741 48.1508 17.626 49.7512 9.73839C49.7512 9.73839 51.2771 10.2489 52.0573 10.3809C52.3269 10.4268 52.3671 10.4382 52.3671 10.4382C51.8278 9.41141 50.9444 8.44195 50.3249 7.91993L50.3192 7.9142ZM46.4585 7.62164C45.7587 7.59869 45.208 7.00783 45.2309 6.30799C45.2539 5.60814 45.8447 5.05744 46.5446 5.08038C47.2444 5.10333 47.7951 5.69419 47.7722 6.39403C47.7492 7.09388 47.1584 7.64458 46.4585 7.62164Z" fill="#97B6B4"></path> </svg> 