<svg width="88" height="74" viewBox="0 0 88 74" fill="none" xmlns="http://www.w3.org/2000/svg">
<path d="M88 33.7821C88.0036 30.3237 87.1383 26.9185 85.4815 23.8713C83.8248 20.824 81.4284 18.2299 78.5069 16.3213C75.5853 14.4126 72.2299 13.249 68.741 12.9345C65.2521 12.6201 61.7387 13.1647 58.5153 14.5195C55.2919 15.8744 52.4592 17.9972 50.2709 20.6979C48.0826 23.3986 46.6069 26.5928 45.976 29.9947C45.3451 33.3965 45.5787 36.8996 46.6558 40.1905C47.733 43.4813 49.6201 46.4571 52.1481 48.8513V72.3902C52.1479 72.6645 52.2188 72.9344 52.354 73.174C52.4893 73.4137 52.6844 73.6153 52.9207 73.7596C53.1571 73.9039 53.427 73.9861 53.7046 73.9984C53.9823 74.0107 54.2585 73.9527 54.507 73.8299L66.8148 67.7532L79.1226 73.8299C79.3493 73.9407 79.5988 73.9985 79.8518 73.9988C80.284 73.9988 80.6985 73.8294 81.0042 73.5277C81.3098 73.226 81.4815 72.8168 81.4815 72.3902V48.8513C83.5425 46.9042 85.1827 44.5651 86.303 41.9752C87.4233 39.3853 88.0006 36.5982 88 33.7821ZM48.8889 33.7821C48.8889 30.2823 49.9402 26.861 51.9099 23.9511C53.8797 21.0411 56.6793 18.773 59.9548 17.4337C63.2304 16.0944 66.8347 15.7439 70.312 16.4267C73.7893 17.1095 76.9834 18.7948 79.4903 21.2696C81.9973 23.7443 83.7046 26.8973 84.3963 30.3299C85.088 33.7625 84.733 37.3204 83.3762 40.5538C82.0194 43.7872 79.7218 46.5509 76.7739 48.4952C73.826 50.4396 70.3602 51.4775 66.8148 51.4775C62.0622 51.4721 57.5058 49.6061 54.1452 46.2887C50.7846 42.9714 48.8943 38.4736 48.8889 33.7821ZM78.2222 69.7882L67.5441 64.5157C67.3177 64.4039 67.068 64.3457 66.8148 64.3457C66.5616 64.3457 66.312 64.4039 66.0855 64.5157L55.4074 69.7882V51.389C58.8104 53.5472 62.77 54.6947 66.8148 54.6947C70.8596 54.6947 74.8192 53.5472 78.2222 51.389V69.7882ZM42.3704 59.5208C42.3704 59.9475 42.1987 60.3566 41.8931 60.6583C41.5874 60.96 41.1729 61.1295 40.7407 61.1295H4.88889C3.59227 61.1295 2.34877 60.621 1.43192 59.716C0.515078 58.8109 0 57.5834 0 56.3035V4.82601C0 3.54607 0.515078 2.31856 1.43192 1.41351C2.34877 0.508453 3.59227 0 4.88889 0H76.5926C77.8892 0 79.1327 0.508453 80.0495 1.41351C80.9664 2.31856 81.4815 3.54607 81.4815 4.82601C81.4815 5.25266 81.3098 5.66183 81.0042 5.96351C80.6985 6.2652 80.284 6.43468 79.8518 6.43468C79.4196 6.43468 79.0051 6.2652 78.6995 5.96351C78.3939 5.66183 78.2222 5.25266 78.2222 4.82601C78.2222 4.39937 78.0505 3.99019 77.7449 3.68851C77.4393 3.38683 77.0248 3.21734 76.5926 3.21734H4.88889C4.45668 3.21734 4.04218 3.38683 3.73657 3.68851C3.43095 3.99019 3.25926 4.39937 3.25926 4.82601V56.3035C3.25926 56.7301 3.43095 57.1393 3.73657 57.441C4.04218 57.7427 4.45668 57.9121 4.88889 57.9121H40.7407C41.1729 57.9121 41.5874 58.0816 41.8931 58.3833C42.1987 58.685 42.3704 59.0942 42.3704 59.5208ZM35.8518 36.9994C35.8518 37.4261 35.6802 37.8352 35.3745 38.1369C35.0689 38.4386 34.6544 38.6081 34.2222 38.6081H17.9259C17.4937 38.6081 17.0792 38.4386 16.7736 38.1369C16.468 37.8352 16.2963 37.4261 16.2963 36.9994C16.2963 36.5728 16.468 36.1636 16.7736 35.8619C17.0792 35.5602 17.4937 35.3908 17.9259 35.3908H34.2222C34.6544 35.3908 35.0689 35.5602 35.3745 35.8619C35.6802 36.1636 35.8518 36.5728 35.8518 36.9994ZM35.8518 24.1301C35.8518 24.5567 35.6802 24.9659 35.3745 25.2676C35.0689 25.5692 34.6544 25.7387 34.2222 25.7387H17.9259C17.4937 25.7387 17.0792 25.5692 16.7736 25.2676C16.468 24.9659 16.2963 24.5567 16.2963 24.1301C16.2963 23.7034 16.468 23.2942 16.7736 22.9926C17.0792 22.6909 17.4937 22.5214 17.9259 22.5214H34.2222C34.6544 22.5214 35.0689 22.6909 35.3745 22.9926C35.6802 23.2942 35.8518 23.7034 35.8518 24.1301Z" fill="black"/>
</svg>
