<svg width="94" height="48" viewBox="0 0 94 48" fill="none" xmlns="http://www.w3.org/2000/svg">
<path d="M5.208 6.58C5.89867 6.58 6.524 6.73867 7.084 7.056C7.644 7.364 8.08267 7.80267 8.4 8.372C8.71733 8.94133 8.876 9.59 8.876 10.318C8.876 11.0553 8.71733 11.7087 8.4 12.278C8.08267 12.8473 7.644 13.2907 7.084 13.608C6.53333 13.916 5.908 14.07 5.208 14.07C4.61067 14.07 4.06933 13.9487 3.584 13.706C3.108 13.454 2.716 13.09 2.408 12.614V16.716H1.414V6.636H2.366V8.092C2.66467 7.60667 3.05667 7.23333 3.542 6.972C4.03667 6.71067 4.592 6.58 5.208 6.58ZM5.138 13.188C5.65133 13.188 6.118 13.0713 6.538 12.838C6.958 12.5953 7.28467 12.2547 7.518 11.816C7.76067 11.3773 7.882 10.878 7.882 10.318C7.882 9.758 7.76067 9.26333 7.518 8.834C7.28467 8.39533 6.958 8.05467 6.538 7.812C6.118 7.56933 5.65133 7.448 5.138 7.448C4.61533 7.448 4.144 7.56933 3.724 7.812C3.31333 8.05467 2.98667 8.39533 2.744 8.834C2.51067 9.26333 2.394 9.758 2.394 10.318C2.394 10.878 2.51067 11.3773 2.744 11.816C2.98667 12.2547 3.31333 12.5953 3.724 12.838C4.144 13.0713 4.61533 13.188 5.138 13.188ZM13.5046 6.58C14.466 6.58 15.2033 6.82267 15.7166 7.308C16.23 7.784 16.4866 8.49333 16.4866 9.436V14H15.5346V12.852C15.3106 13.2347 14.9793 13.5333 14.5406 13.748C14.1113 13.9627 13.598 14.07 13.0006 14.07C12.1793 14.07 11.526 13.874 11.0406 13.482C10.5553 13.09 10.3126 12.572 10.3126 11.928C10.3126 11.3027 10.5366 10.7987 10.9846 10.416C11.442 10.0333 12.1653 9.842 13.1546 9.842H15.4926V9.394C15.4926 8.75933 15.3153 8.27867 14.9606 7.952C14.606 7.616 14.088 7.448 13.4066 7.448C12.94 7.448 12.492 7.52733 12.0626 7.686C11.6333 7.83533 11.2646 8.04533 10.9566 8.316L10.5086 7.574C10.882 7.25667 11.33 7.014 11.8526 6.846C12.3753 6.66867 12.926 6.58 13.5046 6.58ZM13.1546 13.286C13.7146 13.286 14.1953 13.16 14.5966 12.908C14.998 12.6467 15.2966 12.2733 15.4926 11.788V10.584H13.1826C11.9226 10.584 11.2926 11.0227 11.2926 11.9C11.2926 12.3293 11.456 12.67 11.7826 12.922C12.1093 13.1647 12.5666 13.286 13.1546 13.286ZM22.5664 10.164C23.089 10.2853 23.4904 10.4953 23.7704 10.794C24.0597 11.0927 24.2044 11.4567 24.2044 11.886C24.2044 12.3153 24.055 12.698 23.7564 13.034C23.467 13.37 23.0704 13.6313 22.5664 13.818C22.0624 13.9953 21.507 14.084 20.9004 14.084C20.3684 14.084 19.8457 14.0093 19.3324 13.86C18.819 13.7013 18.371 13.4727 17.9884 13.174L18.3244 12.432C18.6604 12.684 19.0524 12.88 19.5004 13.02C19.9484 13.16 20.401 13.23 20.8584 13.23C21.5397 13.23 22.095 13.104 22.5244 12.852C22.963 12.5907 23.1824 12.2407 23.1824 11.802C23.1824 11.41 23.005 11.1067 22.6504 10.892C22.2957 10.668 21.8104 10.556 21.1944 10.556H19.9344V9.828H21.1384C21.689 9.828 22.1324 9.72533 22.4684 9.52C22.8044 9.30533 22.9724 9.02067 22.9724 8.666C22.9724 8.274 22.781 7.966 22.3984 7.742C22.025 7.518 21.535 7.406 20.9284 7.406C20.135 7.406 19.351 7.60667 18.5764 8.008L18.2964 7.238C19.1737 6.78067 20.0837 6.552 21.0264 6.552C21.5864 6.552 22.0904 6.636 22.5384 6.804C22.9957 6.96267 23.3504 7.19133 23.6024 7.49C23.8637 7.78867 23.9944 8.134 23.9944 8.526C23.9944 8.89933 23.8637 9.23067 23.6024 9.52C23.3504 9.80933 23.005 10.024 22.5664 10.164ZM30.2549 6.58C30.9455 6.58 31.5709 6.73867 32.1309 7.056C32.6909 7.364 33.1295 7.80267 33.4469 8.372C33.7642 8.94133 33.9229 9.59 33.9229 10.318C33.9229 11.0553 33.7642 11.7087 33.4469 12.278C33.1295 12.8473 32.6909 13.2907 32.1309 13.608C31.5802 13.916 30.9549 14.07 30.2549 14.07C29.6575 14.07 29.1162 13.9487 28.6309 13.706C28.1549 13.454 27.7629 13.09 27.4549 12.614V16.716H26.4609V6.636H27.4129V8.092C27.7115 7.60667 28.1035 7.23333 28.5889 6.972C29.0835 6.71067 29.6389 6.58 30.2549 6.58ZM30.1849 13.188C30.6982 13.188 31.1649 13.0713 31.5849 12.838C32.0049 12.5953 32.3315 12.2547 32.5649 11.816C32.8075 11.3773 32.9289 10.878 32.9289 10.318C32.9289 9.758 32.8075 9.26333 32.5649 8.834C32.3315 8.39533 32.0049 8.05467 31.5849 7.812C31.1649 7.56933 30.6982 7.448 30.1849 7.448C29.6622 7.448 29.1909 7.56933 28.7709 7.812C28.3602 8.05467 28.0335 8.39533 27.7909 8.834C27.5575 9.26333 27.4409 9.758 27.4409 10.318C27.4409 10.878 27.5575 11.3773 27.7909 11.816C28.0335 12.2547 28.3602 12.5953 28.7709 12.838C29.1909 13.0713 29.6622 13.188 30.1849 13.188ZM38.5515 6.58C39.5128 6.58 40.2502 6.82267 40.7635 7.308C41.2768 7.784 41.5335 8.49333 41.5335 9.436V14H40.5815V12.852C40.3575 13.2347 40.0262 13.5333 39.5875 13.748C39.1582 13.9627 38.6448 14.07 38.0475 14.07C37.2262 14.07 36.5728 13.874 36.0875 13.482C35.6022 13.09 35.3595 12.572 35.3595 11.928C35.3595 11.3027 35.5835 10.7987 36.0315 10.416C36.4888 10.0333 37.2122 9.842 38.2015 9.842H40.5395V9.394C40.5395 8.75933 40.3622 8.27867 40.0075 7.952C39.6528 7.616 39.1348 7.448 38.4535 7.448C37.9868 7.448 37.5388 7.52733 37.1095 7.686C36.6802 7.83533 36.3115 8.04533 36.0035 8.316L35.5555 7.574C35.9288 7.25667 36.3768 7.014 36.8995 6.846C37.4222 6.66867 37.9728 6.58 38.5515 6.58ZM38.2015 13.286C38.7615 13.286 39.2422 13.16 39.6435 12.908C40.0448 12.6467 40.3435 12.2733 40.5395 11.788V10.584H38.2295C36.9695 10.584 36.3395 11.0227 36.3395 11.9C36.3395 12.3293 36.5028 12.67 36.8295 12.922C37.1562 13.1647 37.6135 13.286 38.2015 13.286ZM47.7496 6.818C48.431 6.818 49.0376 6.972 49.5696 7.28C50.111 7.57867 50.531 8.00333 50.8296 8.554C51.1283 9.09533 51.2776 9.716 51.2776 10.416C51.2776 11.1347 51.119 11.774 50.8016 12.334C50.4936 12.8847 50.0596 13.314 49.4996 13.622C48.9396 13.93 48.2956 14.084 47.5676 14.084C46.345 14.084 45.3976 13.6547 44.7256 12.796C44.0536 11.9373 43.7176 10.752 43.7176 9.24C43.7176 7.66267 44.0163 6.454 44.6136 5.614C45.2203 4.774 46.163 4.20467 47.4416 3.906L50.7456 3.15L50.9136 4.06L47.8056 4.774C46.751 5.00733 45.9763 5.42267 45.4816 6.02C44.987 6.608 44.7163 7.48067 44.6696 8.638C44.9683 8.06867 45.3836 7.62533 45.9156 7.308C46.4476 6.98133 47.059 6.818 47.7496 6.818ZM47.5956 13.258C48.109 13.258 48.5663 13.1413 48.9676 12.908C49.3783 12.6653 49.6956 12.3293 49.9196 11.9C50.153 11.4707 50.2696 10.9853 50.2696 10.444C50.2696 9.90267 50.1576 9.42667 49.9336 9.016C49.7096 8.60533 49.3923 8.288 48.9816 8.064C48.5803 7.83067 48.1183 7.714 47.5956 7.714C47.073 7.714 46.6063 7.83067 46.1956 8.064C45.7943 8.288 45.477 8.60533 45.2436 9.016C45.0196 9.42667 44.9076 9.90267 44.9076 10.444C44.9076 10.9853 45.0196 11.4707 45.2436 11.9C45.477 12.3293 45.799 12.6653 46.2096 12.908C46.6203 13.1413 47.0823 13.258 47.5956 13.258ZM56.4461 14.07C55.7368 14.07 55.0975 13.9113 54.5281 13.594C53.9588 13.2673 53.5108 12.8193 53.1841 12.25C52.8575 11.6807 52.6941 11.0367 52.6941 10.318C52.6941 9.59933 52.8575 8.95533 53.1841 8.386C53.5108 7.81667 53.9588 7.37333 54.5281 7.056C55.0975 6.73867 55.7368 6.58 56.4461 6.58C57.1555 6.58 57.7948 6.73867 58.3641 7.056C58.9335 7.37333 59.3768 7.81667 59.6941 8.386C60.0208 8.95533 60.1841 9.59933 60.1841 10.318C60.1841 11.0367 60.0208 11.6807 59.6941 12.25C59.3768 12.8193 58.9335 13.2673 58.3641 13.594C57.7948 13.9113 57.1555 14.07 56.4461 14.07ZM56.4461 13.188C56.9688 13.188 57.4355 13.0713 57.8461 12.838C58.2661 12.5953 58.5928 12.2547 58.8261 11.816C59.0595 11.3773 59.1761 10.878 59.1761 10.318C59.1761 9.758 59.0595 9.25867 58.8261 8.82C58.5928 8.38133 58.2661 8.04533 57.8461 7.812C57.4355 7.56933 56.9688 7.448 56.4461 7.448C55.9235 7.448 55.4521 7.56933 55.0321 7.812C54.6215 8.04533 54.2948 8.38133 54.0521 8.82C53.8188 9.25867 53.7021 9.758 53.7021 10.318C53.7021 10.878 53.8188 11.3773 54.0521 11.816C54.2948 12.2547 54.6215 12.5953 55.0321 12.838C55.4521 13.0713 55.9235 13.188 56.4461 13.188ZM67.2151 7.518H64.4291V14H63.4351V7.518H60.6491V6.636H67.2151V7.518ZM71.1863 6.58C72.1476 6.58 72.8849 6.82267 73.3983 7.308C73.9116 7.784 74.1683 8.49333 74.1683 9.436V14H73.2163V12.852C72.9923 13.2347 72.6609 13.5333 72.2223 13.748C71.7929 13.9627 71.2796 14.07 70.6823 14.07C69.8609 14.07 69.2076 13.874 68.7223 13.482C68.2369 13.09 67.9943 12.572 67.9943 11.928C67.9943 11.3027 68.2183 10.7987 68.6663 10.416C69.1236 10.0333 69.8469 9.842 70.8363 9.842H73.1743V9.394C73.1743 8.75933 72.9969 8.27867 72.6423 7.952C72.2876 7.616 71.7696 7.448 71.0883 7.448C70.6216 7.448 70.1736 7.52733 69.7443 7.686C69.3149 7.83533 68.9463 8.04533 68.6383 8.316L68.1903 7.574C68.5636 7.25667 69.0116 7.014 69.5343 6.846C70.0569 6.66867 70.6076 6.58 71.1863 6.58ZM70.8363 13.286C71.3963 13.286 71.8769 13.16 72.2783 12.908C72.6796 12.6467 72.9783 12.2733 73.1743 11.788V10.584H70.8643C69.6043 10.584 68.9743 11.0227 68.9743 11.9C68.9743 12.3293 69.1376 12.67 69.4643 12.922C69.7909 13.1647 70.2483 13.286 70.8363 13.286ZM76.8144 6.636H77.8084V9.898H82.4424V6.636H83.4364V14H82.4424V10.752H77.8084V14H76.8144V6.636ZM89.2997 14.07C88.5903 14.07 87.951 13.9113 87.3817 13.594C86.8123 13.2673 86.3643 12.8193 86.0377 12.25C85.711 11.6807 85.5477 11.0367 85.5477 10.318C85.5477 9.59933 85.711 8.95533 86.0377 8.386C86.3643 7.81667 86.8123 7.37333 87.3817 7.056C87.951 6.73867 88.5903 6.58 89.2997 6.58C90.009 6.58 90.6483 6.73867 91.2177 7.056C91.787 7.37333 92.2303 7.81667 92.5477 8.386C92.8743 8.95533 93.0377 9.59933 93.0377 10.318C93.0377 11.0367 92.8743 11.6807 92.5477 12.25C92.2303 12.8193 91.787 13.2673 91.2177 13.594C90.6483 13.9113 90.009 14.07 89.2997 14.07ZM89.2997 13.188C89.8223 13.188 90.289 13.0713 90.6997 12.838C91.1197 12.5953 91.4463 12.2547 91.6797 11.816C91.913 11.3773 92.0297 10.878 92.0297 10.318C92.0297 9.758 91.913 9.25867 91.6797 8.82C91.4463 8.38133 91.1197 8.04533 90.6997 7.812C90.289 7.56933 89.8223 7.448 89.2997 7.448C88.777 7.448 88.3057 7.56933 87.8857 7.812C87.475 8.04533 87.1483 8.38133 86.9057 8.82C86.6723 9.25867 86.5557 9.758 86.5557 10.318C86.5557 10.878 86.6723 11.3773 86.9057 11.816C87.1483 12.2547 87.475 12.5953 87.8857 12.838C88.3057 13.0713 88.777 13.188 89.2997 13.188Z" fill="#626370"/>
<path d="M92.8869 39.7558H85.2605V38.4932H92.8869V39.7558Z" fill="#626370"/>
<path d="M92.8868 32.208V33.4593H92.2074C92.7339 33.9066 93 34.5012 93 35.2486C93 35.7978 92.8472 36.2621 92.5471 36.6415C92.2414 37.0208 91.8224 37.2133 91.2788 37.2133C90.6844 37.2133 90.2371 37.0095 89.9313 36.5962C89.6256 36.1828 89.4727 35.6449 89.4727 34.9768C89.4727 34.4389 89.552 33.9293 89.7049 33.4537H89.603C89.218 33.4537 88.9292 33.5726 88.7254 33.8047C88.5216 34.0369 88.4197 34.3766 88.4197 34.8126C88.4197 35.3165 88.5329 35.8374 88.765 36.3923L87.7516 36.7377C87.4458 36.0526 87.293 35.3561 87.293 34.6371C87.293 33.8387 87.4968 33.2329 87.8988 32.8252C88.3008 32.4175 88.8783 32.2137 89.62 32.2137H92.8925L92.8868 32.208ZM90.8938 33.431H90.5825C90.4352 33.8047 90.3616 34.2294 90.3616 34.6937C90.3616 35.09 90.4409 35.4014 90.5938 35.6223C90.7466 35.8431 90.9618 35.9563 91.2392 35.9563C91.4883 35.9563 91.6865 35.8544 91.8337 35.6506C91.9809 35.4467 92.0545 35.1919 92.0545 34.8862C92.0545 34.4615 91.9469 34.1105 91.7318 33.8387C91.5166 33.5613 91.2392 33.4254 90.8938 33.4254V33.431Z" fill="#626370"/>
<path d="M93.0002 27.5706C93.0002 28.3293 92.6774 28.9522 92.0263 29.4391H92.8813V30.7018H85.2549V29.4391H88.2839C87.5932 28.9522 87.2478 28.3293 87.2478 27.5706C87.2478 26.8742 87.5083 26.274 88.0291 25.7644C88.55 25.2548 89.2521 25 90.1353 25C91.0185 25 91.7036 25.2548 92.2188 25.7644C92.7397 26.274 93.0002 26.8742 93.0002 27.5706ZM91.9018 27.865C91.9018 27.4177 91.7376 27.044 91.4092 26.7439C91.0808 26.4382 90.6505 26.291 90.1127 26.291C89.5748 26.291 89.1672 26.4438 88.8388 26.7496C88.5104 27.0554 88.3462 27.4291 88.3462 27.865C88.3462 28.301 88.516 28.6804 88.8501 28.9975C89.1841 29.3145 89.6144 29.4731 90.1353 29.4731C90.6562 29.4731 91.0752 29.3145 91.4035 28.9975C91.7319 28.6804 91.9018 28.301 91.9018 27.865Z" fill="#626370"/>
<path d="M0 47.1216V43.6338H0.611469V44.0811C0.849263 43.747 1.14934 43.5771 1.51735 43.5771C1.85706 43.5771 2.1458 43.7017 2.39492 43.9565C2.64404 44.2056 2.76294 44.551 2.76294 44.9757C2.76294 45.4004 2.63838 45.7344 2.39492 45.9892C2.15147 46.2383 1.85706 46.3686 1.51735 46.3686C1.14934 46.3686 0.849263 46.21 0.611469 45.8986V47.1273H0V47.1216ZM1.37581 45.8363C1.59095 45.8363 1.77213 45.7571 1.91933 45.5985C2.06654 45.44 2.14014 45.2305 2.14014 44.97C2.14014 44.7096 2.06654 44.5114 1.91933 44.3529C1.77213 44.1943 1.59095 44.115 1.37581 44.115C1.16066 44.115 0.979483 44.1943 0.826616 44.3585C0.673749 44.5227 0.594484 44.7266 0.594484 44.9814C0.594484 45.2362 0.673749 45.4343 0.826616 45.5985C0.979483 45.7571 1.16632 45.842 1.37581 45.842V45.8363Z" fill="#626370"/>
<path d="M6.14857 46.3061H5.54277V45.9777C5.32762 46.2325 5.03887 46.3627 4.67652 46.3627C4.41041 46.3627 4.18394 46.2891 4.00277 46.1419C3.82159 45.9947 3.72534 45.7909 3.72534 45.5247C3.72534 45.236 3.82725 45.0208 4.02541 44.8736C4.22358 44.7264 4.48402 44.6528 4.8124 44.6528C5.07284 44.6528 5.32196 44.6924 5.55409 44.766V44.715C5.55409 44.5282 5.49747 44.3866 5.38424 44.2904C5.271 44.1941 5.10681 44.1432 4.89732 44.1432C4.65387 44.1432 4.39909 44.1998 4.13299 44.313L3.9688 43.8204C4.29718 43.6732 4.63688 43.5996 4.98791 43.5996C5.37857 43.5996 5.66732 43.6959 5.86549 43.894C6.06365 44.0922 6.1599 44.3697 6.1599 44.732V46.3174L6.14857 46.3061ZM5.55409 45.3379V45.185C5.37291 45.1114 5.16909 45.0774 4.94262 45.0774C4.75012 45.0774 4.59725 45.1171 4.48968 45.1907C4.38211 45.2643 4.32549 45.3719 4.32549 45.5021C4.32549 45.621 4.37644 45.7172 4.47269 45.7909C4.56894 45.8645 4.6935 45.8984 4.84071 45.8984C5.04453 45.8984 5.21438 45.8475 5.35027 45.7399C5.48615 45.638 5.54843 45.5021 5.54843 45.3322L5.55409 45.3379Z" fill="#626370"/>
<path d="M8.29454 46.3686C7.83594 46.3686 7.44528 46.2327 7.12256 45.9609L7.41131 45.5532C7.66043 45.7684 7.94351 45.8703 8.25491 45.8703C8.39645 45.8703 8.51535 45.8363 8.6116 45.7684C8.70785 45.7004 8.75881 45.6099 8.75881 45.5023C8.75881 45.4004 8.71351 45.3211 8.61726 45.2588C8.52101 45.1965 8.39079 45.1682 8.21528 45.1682H7.8869V44.7266H8.21528C8.35682 44.7266 8.47006 44.6926 8.55498 44.6303C8.63991 44.568 8.6852 44.4831 8.6852 44.3812C8.6852 44.2906 8.64557 44.217 8.56064 44.1603C8.47572 44.1037 8.37381 44.0754 8.24359 44.0754C7.94351 44.0754 7.6944 44.166 7.48491 44.3472L7.21315 43.9622C7.50756 43.7074 7.86991 43.5771 8.3002 43.5771C8.59461 43.5771 8.83241 43.6451 9.01925 43.781C9.20608 43.9169 9.29667 44.0867 9.29667 44.2962C9.29667 44.5793 9.15513 44.7832 8.8777 44.9021C9.20042 45.0153 9.36461 45.2305 9.36461 45.5532C9.36461 45.7854 9.2627 45.9779 9.06454 46.1364C8.86638 46.295 8.60594 46.3742 8.28888 46.3742L8.29454 46.3686Z" fill="#626370"/>
<path d="M10.5139 47.1216V43.6338H11.1254V44.0811C11.3632 43.747 11.6633 43.5771 12.0313 43.5771C12.371 43.5771 12.6597 43.7017 12.9088 43.9565C13.158 44.2056 13.2769 44.551 13.2769 44.9757C13.2769 45.4004 13.1523 45.7344 12.9088 45.9892C12.6654 46.2383 12.371 46.3686 12.0313 46.3686C11.6633 46.3686 11.3632 46.21 11.1254 45.8986V47.1273H10.5139V47.1216ZM11.8897 45.8363C12.1049 45.8363 12.286 45.7571 12.4333 45.5985C12.5805 45.44 12.6541 45.2305 12.6541 44.97C12.6541 44.7096 12.5805 44.5114 12.4333 44.3529C12.286 44.1943 12.1049 44.115 11.8897 44.115C11.6746 44.115 11.4934 44.1943 11.3405 44.3585C11.1877 44.5227 11.1084 44.7266 11.1084 44.9814C11.1084 45.2362 11.1877 45.4343 11.3405 45.5985C11.4934 45.7571 11.6802 45.842 11.8897 45.842V45.8363Z" fill="#626370"/>
<path d="M16.6625 46.3061H16.0567V45.9777C15.8415 46.2325 15.5528 46.3627 15.1904 46.3627C14.9243 46.3627 14.6979 46.2891 14.5167 46.1419C14.3355 45.9947 14.2393 45.7909 14.2393 45.5247C14.2393 45.236 14.3412 45.0208 14.5393 44.8736C14.7375 44.7264 14.9979 44.6528 15.3263 44.6528C15.5868 44.6528 15.8359 44.6924 16.068 44.766V44.715C16.068 44.5282 16.0114 44.3866 15.8982 44.2904C15.7849 44.1941 15.6207 44.1432 15.4112 44.1432C15.1678 44.1432 14.913 44.1998 14.6469 44.313L14.4827 43.8204C14.8111 43.6732 15.1508 43.5996 15.5018 43.5996C15.8925 43.5996 16.1812 43.6959 16.3794 43.894C16.5776 44.0922 16.6738 44.3697 16.6738 44.732V46.3174L16.6625 46.3061ZM16.068 45.3379V45.185C15.8868 45.1114 15.683 45.0774 15.4565 45.0774C15.264 45.0774 15.1112 45.1171 15.0036 45.1907C14.896 45.2643 14.8394 45.3719 14.8394 45.5021C14.8394 45.621 14.8904 45.7172 14.9866 45.7909C15.0829 45.8645 15.2074 45.8984 15.3546 45.8984C15.5584 45.8984 15.7283 45.8475 15.8642 45.7399C16.0001 45.638 16.0623 45.5021 16.0623 45.3322L16.068 45.3379Z" fill="#626370"/>
<path d="M19.1934 46.369C18.7631 46.369 18.4234 46.2331 18.18 45.9614C17.9365 45.6896 17.8176 45.3046 17.8176 44.812C17.8176 44.6534 17.8176 44.5119 17.829 44.393C17.8346 44.274 17.8516 44.1438 17.8799 44.0023C17.9026 43.8607 17.9422 43.7418 17.9875 43.6342C18.0384 43.5323 18.1007 43.4304 18.1743 43.3341C18.2479 43.2379 18.3498 43.1586 18.4687 43.0907C18.5876 43.0227 18.7292 42.9774 18.8877 42.9435L20.3484 42.6377L20.4503 43.1303L18.9896 43.4474C18.7462 43.4983 18.5706 43.5889 18.4687 43.7192C18.3612 43.8494 18.3045 44.0136 18.2876 44.2061C18.3668 44.0702 18.497 43.9513 18.6726 43.8551C18.8481 43.7531 19.0632 43.7078 19.318 43.7078C19.6634 43.7078 19.9634 43.8324 20.2182 44.0872C20.4673 44.3363 20.5975 44.6477 20.5975 45.0101C20.5975 45.3725 20.4673 45.7066 20.2012 45.9727C19.9351 46.2388 19.6067 46.3747 19.2048 46.3747L19.1934 46.369ZM19.2048 45.8368C19.4312 45.8368 19.6181 45.7575 19.7596 45.599C19.9012 45.4404 19.9748 45.2479 19.9748 45.0158C19.9748 44.7836 19.9012 44.5911 19.7483 44.4326C19.5954 44.274 19.4142 44.1948 19.1934 44.1948C18.9726 44.1948 18.7858 44.274 18.6442 44.4326C18.5027 44.5911 18.4291 44.7893 18.4291 45.0215C18.4291 45.2536 18.5027 45.4461 18.6499 45.6046C18.7971 45.7632 18.9839 45.8425 19.1991 45.8425L19.2048 45.8368Z" fill="#626370"/>
<path d="M22.9924 46.3684C22.5847 46.3684 22.2507 46.2325 21.9789 45.9607C21.7072 45.6889 21.5713 45.3605 21.5713 44.9698C21.5713 44.5791 21.7072 44.2507 21.9789 43.979C22.2507 43.7072 22.5904 43.5713 22.9981 43.5713C23.4057 43.5713 23.7397 43.7072 24.0115 43.979C24.2833 44.2507 24.4192 44.5791 24.4192 44.9698C24.4192 45.3605 24.2833 45.6833 24.0115 45.955C23.7397 46.2268 23.3944 46.3627 22.9867 46.3627L22.9924 46.3684ZM23.0037 45.8361C23.2472 45.8361 23.4453 45.7512 23.5925 45.587C23.7397 45.4228 23.8133 45.219 23.8133 44.9755C23.8133 44.732 23.7341 44.5339 23.5812 44.364C23.4283 44.1998 23.2302 44.1149 22.9924 44.1149C22.7546 44.1149 22.5564 44.1998 22.4092 44.364C22.262 44.5282 22.1884 44.732 22.1884 44.9755C22.1884 45.219 22.2677 45.4171 22.4206 45.5813C22.5734 45.7512 22.7716 45.8361 23.0037 45.8361Z" fill="#626370"/>
<path d="M26.0271 46.3061V44.1545H25.1665V43.6279H27.5048V44.1545H26.6442V46.3061H26.0271Z" fill="#626370"/>
<path d="M28.4956 46.3061V43.6279H29.1014V44.9076L30.2677 43.6279H30.9868L29.9507 44.7547L31.0774 46.3061H30.3527L29.543 45.202L29.1071 45.6606V46.3061H28.5013H28.4956Z" fill="#626370"/>
<path d="M34.1517 46.3061H33.5459V45.9777C33.3308 46.2325 33.042 46.3627 32.6797 46.3627C32.4136 46.3627 32.1871 46.2891 32.0059 46.1419C31.8248 45.9947 31.7285 45.7909 31.7285 45.5247C31.7285 45.236 31.8304 45.0208 32.0286 44.8736C32.2267 44.7264 32.4872 44.6528 32.8156 44.6528C33.076 44.6528 33.3251 44.6924 33.5573 44.766V44.715C33.5573 44.5282 33.5006 44.3866 33.3874 44.2904C33.2742 44.1941 33.11 44.1432 32.9005 44.1432C32.657 44.1432 32.4023 44.1998 32.1362 44.313L31.972 43.8204C32.3004 43.6732 32.6401 43.5996 32.9911 43.5996C33.3817 43.5996 33.6705 43.6959 33.8687 43.894C34.0668 44.0922 34.1631 44.3697 34.1631 44.732V46.3174L34.1517 46.3061ZM33.5573 45.3379V45.185C33.3761 45.1114 33.1723 45.0774 32.9458 45.0774C32.7533 45.0774 32.6004 45.1171 32.4929 45.1907C32.3853 45.2643 32.3287 45.3719 32.3287 45.5021C32.3287 45.621 32.3796 45.7172 32.4759 45.7909C32.5721 45.8645 32.6967 45.8984 32.8439 45.8984C33.0477 45.8984 33.2176 45.8475 33.3534 45.7399C33.4893 45.638 33.5516 45.5021 33.5516 45.3322L33.5573 45.3379Z" fill="#626370"/>
<path d="M38.6529 46.3686C38.2566 46.3686 37.9282 46.2327 37.6678 45.9666C37.4074 45.7004 37.2715 45.372 37.2715 44.987V44.9757C37.2715 44.5907 37.4017 44.2623 37.6678 43.9905C37.9339 43.7187 38.2623 43.5771 38.6586 43.5771C39.0889 43.5771 39.4456 43.73 39.7287 44.0414L39.3493 44.4491C39.1342 44.2283 38.9077 44.115 38.6529 44.115C38.4321 44.115 38.251 44.2 38.1038 44.3642C37.9566 44.5284 37.883 44.7322 37.883 44.9644V44.9757C37.883 45.2192 37.9566 45.423 38.1094 45.5872C38.2623 45.7514 38.4491 45.8363 38.6869 45.8363C38.936 45.8363 39.1625 45.7231 39.3833 45.5023L39.7513 45.8646C39.6041 46.0288 39.4456 46.1534 39.2757 46.2383C39.1059 46.3233 38.8964 46.3686 38.6529 46.3686Z" fill="#626370"/>
<path d="M43.035 46.3061H42.4292V45.9777C42.2141 46.2325 41.9253 46.3627 41.563 46.3627C41.2969 46.3627 41.0704 46.2891 40.8892 46.1419C40.7081 45.9947 40.6118 45.7909 40.6118 45.5247C40.6118 45.236 40.7137 45.0208 40.9119 44.8736C41.1101 44.7264 41.3705 44.6528 41.6989 44.6528C41.9593 44.6528 42.2084 44.6924 42.4406 44.766V44.715C42.4406 44.5282 42.3839 44.3866 42.2707 44.2904C42.1575 44.1941 41.9933 44.1432 41.7838 44.1432C41.5403 44.1432 41.2856 44.1998 41.0195 44.313L40.8553 43.8204C41.1837 43.6732 41.5234 43.5996 41.8744 43.5996C42.265 43.5996 42.5538 43.6959 42.752 43.894C42.9501 44.0922 43.0464 44.3697 43.0464 44.732V46.3174L43.035 46.3061ZM42.4406 45.3379V45.185C42.2594 45.1114 42.0556 45.0774 41.8291 45.0774C41.6366 45.0774 41.4837 45.1171 41.3762 45.1907C41.2686 45.2643 41.212 45.3719 41.212 45.5021C41.212 45.621 41.2629 45.7172 41.3592 45.7909C41.4554 45.8645 41.58 45.8984 41.7272 45.8984C41.931 45.8984 42.1009 45.8475 42.2367 45.7399C42.3726 45.638 42.4349 45.5021 42.4349 45.3322L42.4406 45.3379Z" fill="#626370"/>
<path d="M44.2693 46.3063V43.6281H44.8694V45.423C45.4299 44.6247 45.8546 44.0302 46.1377 43.6281H46.7152V46.3063H46.1207V44.5228L44.8468 46.3063H44.2693ZM46.0244 43.1299C45.8829 43.2544 45.7074 43.3224 45.4922 43.3224C45.2771 43.3224 45.1016 43.2601 44.96 43.1299C44.8185 42.9996 44.7279 42.8298 44.6939 42.6146L45.0676 42.541C45.1412 42.7732 45.2771 42.8864 45.4866 42.8864C45.696 42.8864 45.8376 42.7732 45.9055 42.541L46.2735 42.6146C46.2396 42.8298 46.1546 43.0053 46.0131 43.1299H46.0244Z" fill="#626370"/>
<path d="M48.5666 46.3061V44.1545H47.7061V43.6279H50.0444V44.1545H49.1838V46.3061H48.5666Z" fill="#626370"/>
<path d="M52.207 46.3684C51.7993 46.3684 51.4653 46.2325 51.1935 45.9607C50.9218 45.6889 50.7859 45.3605 50.7859 44.9698C50.7859 44.5791 50.9218 44.2507 51.1935 43.979C51.4653 43.7072 51.805 43.5713 52.2127 43.5713C52.6203 43.5713 52.9543 43.7072 53.2261 43.979C53.4979 44.2507 53.6338 44.5791 53.6338 44.9698C53.6338 45.3605 53.4979 45.6833 53.2261 45.955C52.9543 46.2268 52.609 46.3627 52.2013 46.3627L52.207 46.3684ZM52.2183 45.8361C52.4618 45.8361 52.6599 45.7512 52.8071 45.587C52.9543 45.4228 53.0279 45.219 53.0279 44.9755C53.0279 44.732 52.9487 44.5339 52.7958 44.364C52.6429 44.1998 52.4448 44.1149 52.207 44.1149C51.9692 44.1149 51.771 44.1998 51.6238 44.364C51.4766 44.5282 51.403 44.732 51.403 44.9755C51.403 45.219 51.4823 45.4171 51.6352 45.5813C51.788 45.7512 51.9862 45.8361 52.2183 45.8361Z" fill="#626370"/>
<path d="M54.772 46.3061V43.6279H56.1478C56.4139 43.6279 56.629 43.6902 56.7876 43.8091C56.9461 43.928 57.0254 44.0922 57.0254 44.2961C57.0254 44.5735 56.8838 44.783 56.5951 44.9076C56.9631 45.0151 57.1499 45.236 57.1499 45.5757C57.1499 45.8022 57.0593 45.9777 56.8838 46.1079C56.7083 46.2382 56.4648 46.3005 56.1648 46.3005H54.7776L54.772 46.3061ZM55.3721 44.7377H56.0006C56.1251 44.7377 56.2214 44.7094 56.295 44.6471C56.3686 44.5848 56.4026 44.5056 56.4026 44.4093C56.4026 44.3187 56.3686 44.2451 56.3063 44.1885C56.244 44.1319 56.1421 44.1035 56.0119 44.1035H55.3721V44.7377ZM55.3721 45.8248H56.0685C56.2157 45.8248 56.329 45.7965 56.4082 45.7286C56.4875 45.6663 56.5271 45.5814 56.5271 45.4794C56.5271 45.3775 56.4875 45.2983 56.4026 45.2416C56.3176 45.185 56.1987 45.1567 56.0402 45.1567H55.3778V45.8248H55.3721Z" fill="#626370"/>
<path d="M58.2256 46.3058V45.6094H58.8993V46.3058H58.2256Z" fill="#626370"/>
<path d="M62.1661 46.3061V43.6279H62.7719L63.6098 44.8679L64.4534 43.6279H65.0592V46.3061H64.4421V44.5225L63.5985 45.7229L62.7605 44.5339V46.3061H62.1604H62.1661Z" fill="#626370"/>
<path d="M68.5809 46.3061H67.9751V45.9777C67.76 46.2325 67.4712 46.3627 67.1089 46.3627C66.8428 46.3627 66.6163 46.2891 66.4351 46.1419C66.254 45.9947 66.1577 45.7909 66.1577 45.5247C66.1577 45.236 66.2596 45.0208 66.4578 44.8736C66.6559 44.7264 66.9164 44.6528 67.2448 44.6528C67.5052 44.6528 67.7543 44.6924 67.9865 44.766V44.715C67.9865 44.5282 67.9298 44.3866 67.8166 44.2904C67.7034 44.1941 67.5392 44.1432 67.3297 44.1432C67.0862 44.1432 66.8315 44.1998 66.5654 44.313L66.4012 43.8204C66.7296 43.6732 67.0693 43.5996 67.4203 43.5996C67.8109 43.5996 68.0997 43.6959 68.2979 43.894C68.496 44.0922 68.5923 44.3697 68.5923 44.732V46.3174L68.5809 46.3061ZM67.9865 45.3379V45.185C67.8053 45.1114 67.6015 45.0774 67.375 45.0774C67.1825 45.0774 67.0296 45.1171 66.9221 45.1907C66.8145 45.2643 66.7579 45.3719 66.7579 45.5021C66.7579 45.621 66.8088 45.7172 66.9051 45.7909C67.0013 45.8645 67.1259 45.8984 67.2731 45.8984C67.4769 45.8984 67.6468 45.8475 67.7826 45.7399C67.9185 45.638 67.9808 45.5021 67.9808 45.3322L67.9865 45.3379Z" fill="#626370"/>
<path d="M69.8152 47.1216V43.6338H70.4267V44.0811C70.6644 43.747 70.9645 43.5771 71.3325 43.5771C71.6722 43.5771 71.961 43.7017 72.2101 43.9565C72.4592 44.2056 72.5781 44.551 72.5781 44.9757C72.5781 45.4004 72.4536 45.7344 72.2101 45.9892C71.9667 46.2383 71.6722 46.3686 71.3325 46.3686C70.9645 46.3686 70.6644 46.21 70.4267 45.8986V47.1273H69.8152V47.1216ZM71.191 45.8363C71.4061 45.8363 71.5873 45.7571 71.7345 45.5985C71.8817 45.44 71.9553 45.2305 71.9553 44.97C71.9553 44.7096 71.8817 44.5114 71.7345 44.3529C71.5873 44.1943 71.4061 44.115 71.191 44.115C70.9758 44.115 70.7947 44.1943 70.6418 44.3585C70.4889 44.5227 70.4097 44.7266 70.4097 44.9814C70.4097 45.2362 70.4889 45.4343 70.6418 45.5985C70.7947 45.7571 70.9815 45.842 71.191 45.842V45.8363Z" fill="#626370"/>
<path d="M73.7161 46.3061V43.6279H74.3219V44.9076L75.4882 43.6279H76.2072L75.1711 44.7547L76.2978 46.3061H75.5731L74.7635 45.202L74.3275 45.6606V46.3061H73.7217H73.7161Z" fill="#626370"/>
<path d="M78.302 46.3686C77.9114 46.3686 77.583 46.2383 77.3225 45.9779C77.0621 45.7174 76.9319 45.3834 76.9319 44.97C76.9319 44.5793 77.0564 44.2509 77.2999 43.9848C77.549 43.713 77.8604 43.5771 78.2397 43.5771C78.6474 43.5771 78.9588 43.713 79.1853 43.9905C79.4117 44.2679 79.525 44.6077 79.525 45.0153C79.525 45.0889 79.525 45.1456 79.5136 45.1852H77.549C77.583 45.4004 77.6679 45.5646 77.8094 45.6835C77.951 45.8024 78.1209 45.8646 78.319 45.8646C78.5851 45.8646 78.8229 45.7571 79.0437 45.5476L79.4004 45.8646C79.123 46.1987 78.7606 46.3686 78.3077 46.3686H78.302ZM77.5377 44.7832H78.9135C78.8909 44.5793 78.8229 44.4095 78.704 44.2736C78.5851 44.1377 78.4266 44.0754 78.2341 44.0754C78.0416 44.0754 77.8944 44.1434 77.7698 44.2736C77.6453 44.4038 77.5717 44.5737 77.5434 44.7832H77.5377Z" fill="#626370"/>
<path d="M81.116 46.3061V44.1545H80.2554V43.6279H82.5937V44.1545H81.7331V46.3061H81.116Z" fill="#626370"/>
<path d="M83.5903 46.3061V43.6279H84.1905V45.4228C84.751 44.6245 85.1756 44.0299 85.4587 43.6279H86.0362V46.3061H85.4417V44.5225L84.1678 46.3061H83.5903Z" fill="#626370"/>
<path d="M87.3098 46.3061V43.6279H87.9213V44.7151H89.0989V43.6279H89.7104V46.3061H89.0989V45.2246H87.9213V46.3061H87.3098Z" fill="#626370"/>
<path d="M90.99 46.3061V43.6279H92.8867V44.1545H91.6071V46.3061H90.9956H90.99Z" fill="#626370"/>
<path d="M17.3816 25.0342H13.5769V39.8406H24.4871V36.5H17.3816V25.0342Z" fill="#626370"/>
<path d="M46.7379 34.6768L43.0578 25.0342H38.8511L44.8978 39.9256H48.5157L54.5851 25.0342H50.435L46.7379 34.6768Z" fill="#626370"/>
<path d="M79.5362 25.0342V33.1763L73.0648 25.0342H69.8093V39.8406H73.5517V31.6532L80.1081 39.8406H83.2617V25.0342H79.5362Z" fill="#626370"/>
<path d="M67.4826 25.0342H56.2327V28.3748H67.4826V25.0342Z" fill="#626370"/>
<path d="M59.5731 32.69L56.2327 30.7705V34.1112H67.4826V30.7705H59.5731V32.69Z" fill="#626370"/>
<path d="M59.5731 38.4195L56.2327 36.5V39.8407H67.4826V36.5H59.5731V38.4195Z" fill="#626370"/>
<path d="M0 25.0342V28.3748V30.7699V34.1106V36.5V39.8406H3.34044H11.6123V36.5H3.34044V34.1106H11.6123V30.7699H3.34044V28.3748H11.6123V25.0342H3.34044H0Z" fill="#626370"/>
<path d="M26.4573 25.0342V28.3748V30.7699V34.1106V36.5V39.8406H29.7977H37.7072V36.5H29.7977V34.1106H37.7072V30.7699H29.7977V28.3748H37.7072V25.0342H29.7977H26.4573Z" fill="#626370"/>
</svg>
