<svg width="144" height="204" viewBox="0 0 144 204" fill="none" xmlns="http://www.w3.org/2000/svg">
<path d="M98.7701 44.9553H46.7897C46.0327 44.9553 45.4144 45.5567 45.4144 46.2969V48.5092L47.715 50.364V60.4581C47.715 60.845 47.9211 61.1899 48.2702 61.3792C48.6319 61.5726 49.0525 61.5558 49.3932 61.3371L53.8766 58.4393C54.2089 58.2206 54.4066 57.8631 54.4066 57.4719V55.4699H54.3435C53.3341 55.4489 52.5181 54.654 52.5181 53.6993C52.5181 52.7445 53.3551 51.9286 54.3855 51.9286C54.3982 51.9286 54.4066 51.9286 54.415 51.9286H91.2542C92.2594 51.9664 93.0501 52.7445 93.0501 53.6993C93.0501 54.654 92.2636 55.4279 91.2542 55.4657H91.1911V57.6107C91.2332 57.9598 91.414 58.2584 91.6874 58.4351L96.1666 61.3329C96.3475 61.4507 96.5536 61.5096 96.7597 61.5096C96.9405 61.5096 97.1214 61.4633 97.2896 61.375C97.6345 61.1857 97.8448 60.8408 97.8448 60.4539V50.3598L100.12 48.526L100.145 48.505V46.2927C100.145 45.5525 99.5271 44.951 98.7701 44.951V44.9553ZM92.9323 56.8999C94.1857 56.2606 94.9638 55.0367 94.9638 53.6993C94.9638 51.7351 93.2982 50.1032 91.25 50.0612H54.394C52.2994 50.0612 50.5919 51.6931 50.5919 53.6993C50.5919 55.0367 51.3699 56.2648 52.6233 56.8999L52.7074 56.942L49.6329 58.9314V50.2C49.6329 49.7457 49.4268 49.3167 49.0651 49.0223L47.3323 47.626V46.8227H98.2233V47.626L96.4905 49.0223C96.1288 49.3125 95.9227 49.7415 95.9227 50.2V58.9314L92.8482 56.942L92.9323 56.8999Z" fill="#D6AE9F"/>
<path d="M73.4342 54.7975C73.0071 54.3704 72.3148 54.3704 71.8877 54.7975C71.4607 55.2245 71.4607 55.9169 71.8877 56.344C72.3148 56.771 73.0071 56.771 73.4342 56.344C73.8612 55.9169 73.8612 55.2245 73.4342 54.7975Z" fill="#D6AE9F"/>
<path d="M80.0185 55.1004C79.5915 54.6733 78.8991 54.6733 78.472 55.1004C78.045 55.5274 78.045 56.2198 78.472 56.6468C78.8991 57.0739 79.5915 57.0739 80.0185 56.6468C80.4456 56.2198 80.4456 55.5274 80.0185 55.1004Z" fill="#D6AE9F"/>
<path d="M66.8742 55.1147C66.4472 54.6876 65.7548 54.6876 65.3277 55.1147C64.9007 55.5417 64.9007 56.2341 65.3277 56.6612C65.7548 57.0882 66.4472 57.0882 66.8742 56.6612C67.3013 56.2341 67.3013 55.5417 66.8742 55.1147Z" fill="#D6AE9F"/>
<path d="M89.1937 56.7942L86.2748 53.9805L83.4568 56.8994L86.3757 59.7131L89.1894 56.7942H89.1937ZM85.2864 56.8657L86.3084 55.8058L87.3683 56.8279L86.3463 57.8878L85.2864 56.8657Z" fill="#D6AE9F"/>
<path d="M61.7132 56.8404L61.7595 56.7941L58.8869 54.0225L58.8406 53.9762L56.0689 56.8488L56.0227 56.8951L58.8953 59.6667L58.9415 59.713L61.7132 56.8404ZM57.848 56.8656L58.87 55.8058L59.9299 56.8278L58.9079 57.8877L57.848 56.8656Z" fill="#D6AE9F"/>
<path d="M17.4719 194.061V200.092H16.6391V197.43H13.2828V200.092H12.4501V194.061H13.2828V196.669H16.6391V194.061H17.4719Z" fill="#97B6B4"/>
<path d="M26.8469 196.08V200.092H26.2328L26.0814 198.999C25.644 199.722 24.8659 200.202 23.8018 200.202C22.6284 200.202 21.8798 199.562 21.8798 198.523C21.8798 197.173 23.1205 196.395 24.8954 196.395C25.3454 196.395 25.6861 196.408 26.0015 196.45V196.042C26.0015 195.197 25.4001 194.772 24.4748 194.772C23.8187 194.772 23.1499 194.961 22.4812 195.276L22.1952 194.566C23.0153 194.183 23.7934 193.994 24.5547 193.994C25.9342 193.994 26.8469 194.717 26.8469 196.08ZM26.0015 197.144C25.6734 197.102 25.4169 197.089 25.0173 197.089C23.6 197.089 22.7504 197.581 22.7504 198.469C22.7504 199.07 23.1878 199.423 23.9364 199.423C25.1772 199.423 25.9552 198.523 25.9973 197.144H26.0015Z" fill="#97B6B4"/>
<path d="M45.5251 199.272V202.166H44.625V200.092H37.4078V202.166H36.5203V199.272H37.5844C38.1312 198.208 38.4845 196.967 38.6485 195.424L39.1406 190.814H44.4063V199.272H45.5251ZM38.5686 199.272H43.5231V191.63H39.9355L39.5107 195.642C39.3593 197.022 39.0481 198.208 38.5686 199.272Z" fill="#97B6B4"/>
<path d="M54.5048 198.439C54.5048 199.491 53.7267 200.088 52.5532 200.088H49.7311V194.057H52.3219C53.4827 194.057 54.2188 194.683 54.2188 195.655C54.2188 196.324 53.9033 196.749 53.386 196.992C54.0674 197.182 54.5048 197.674 54.5048 198.439ZM50.5597 194.81V196.652H52.3051C53.0537 196.652 53.3818 196.227 53.3818 195.722C53.3818 195.218 53.0537 194.81 52.3051 194.81H50.5597ZM53.672 198.372C53.672 197.825 53.3187 197.405 52.5406 197.405H50.5639V199.344H52.5406C53.3187 199.344 53.672 198.936 53.672 198.376V198.372Z" fill="#97B6B4"/>
<path d="M58.4499 197.077C58.4499 195.222 59.7453 193.91 61.5622 193.91C63.3792 193.91 64.6998 195.218 64.6998 197.077C64.6998 198.936 63.4044 200.244 61.5622 200.244C59.7201 200.244 58.4499 198.936 58.4499 197.077ZM63.8544 197.077C63.8544 195.684 62.9249 194.688 61.5622 194.688C60.1995 194.688 59.2995 195.684 59.2995 197.077C59.2995 198.469 60.229 199.466 61.5622 199.466C62.8955 199.466 63.8544 198.481 63.8544 197.077Z" fill="#97B6B4"/>
<path d="M75.2858 197.047C75.2858 198.902 74.0324 200.227 72.2996 200.227C71.3028 200.227 70.4574 199.777 69.9527 199.095C69.9653 199.558 69.978 200.117 69.978 200.719V203.091H69.1452V194.057H69.7719L69.9485 195.066C70.4658 194.372 71.286 193.935 72.308 193.935C74.0282 193.935 75.2816 195.243 75.2816 197.047H75.2858ZM74.453 197.089C74.453 195.697 73.5403 194.717 72.2407 194.717C70.9411 194.717 69.9359 195.672 69.9359 197.051C69.9359 198.431 70.9033 199.453 72.2407 199.453C73.5782 199.453 74.453 198.469 74.453 197.093V197.089Z" fill="#97B6B4"/>
<path d="M83.9245 194.061V200.092H83.0917V197.775H81.5776L79.8448 200.092H78.8901V200.025L80.6776 197.678C79.8448 197.459 79.3275 196.858 79.3275 195.945C79.3275 194.742 80.1602 194.061 81.4556 194.061H83.9245ZM83.0917 197.051V194.814H81.4683C80.5388 194.814 80.1602 195.264 80.1602 195.945C80.1602 196.627 80.543 197.051 81.4683 197.051H83.0917Z" fill="#97B6B4"/>
<path d="M93.8294 194.061V200.092H92.9966V197.43H89.6403V200.092H88.8076V194.061H89.6403V196.669H92.9966V194.061H93.8294Z" fill="#97B6B4"/>
<path d="M98.2793 197.06C98.2793 195.066 99.7262 193.922 101.362 193.922C102.237 193.922 102.906 194.196 103.52 194.742L103.04 195.314C102.548 194.89 102.073 194.7 101.362 194.7C100.109 194.7 99.1247 195.642 99.1247 197.06C99.1247 198.477 100.092 199.461 101.35 199.461C102.17 199.461 102.658 199.201 103.15 198.738L103.612 199.339C102.986 199.924 102.33 200.239 101.278 200.239C99.7766 200.239 98.2751 199.133 98.2751 197.06H98.2793Z" fill="#97B6B4"/>
<path d="M112.47 200.021V200.088H111.431L108.579 197.291V200.088H107.746V194.057H108.579V196.702L111.187 194.057H112.196V194.099L109.332 196.98L112.47 200.021Z" fill="#97B6B4"/>
<path d="M115.553 197.077C115.553 195.222 116.848 193.91 118.665 193.91C120.482 193.91 121.803 195.218 121.803 197.077C121.803 198.936 120.507 200.244 118.665 200.244C116.823 200.244 115.553 198.936 115.553 197.077ZM120.957 197.077C120.957 195.684 120.028 194.688 118.665 194.688C117.302 194.688 116.402 195.684 116.402 197.077C116.402 198.469 117.332 199.466 118.665 199.466C119.998 199.466 120.957 198.481 120.957 197.077Z" fill="#97B6B4"/>
<path d="M131.312 194.061V200.092H130.48V196.408C130.48 196.177 130.48 195.945 130.492 195.714C130.316 195.945 130.122 196.177 129.92 196.395L126.551 200.092H126.253V194.061H127.085V197.636C127.085 197.909 127.073 198.183 127.06 198.439C127.279 198.166 127.51 197.909 127.742 197.649L131.018 194.061H131.317H131.312ZM127.098 191.811L127.603 191.428C127.876 191.853 128.326 192.122 128.831 192.122C129.336 192.122 129.773 191.849 130.059 191.428L130.551 191.811C130.198 192.467 129.584 192.795 128.831 192.795C128.078 192.795 127.468 192.467 127.098 191.811Z" fill="#97B6B4"/>
<path fill-rule="evenodd" clip-rule="evenodd" d="M78.0944 148.42V176.986H78.679C79.2173 176.986 79.6505 177.419 79.6505 177.957V183.114H77.1691L76.8284 179.707H68.0381L67.6975 183.114H65.2076L65.2581 178.294C65.2581 177.512 65.6829 176.986 66.2969 176.986H67.5334C67.5334 176.986 67.5671 176.313 67.5923 175.64L68.7195 148.251C68.8078 146.115 70.5701 144.428 72.7066 144.428H74.103C76.3069 144.428 78.0944 146.216 78.0944 148.42ZM75.369 176.986V148.676H75.3648C75.3648 147.835 74.6834 147.154 73.8422 147.154H73.0137C72.1977 147.154 71.529 147.793 71.4912 148.609L70.3219 175.266C70.3009 175.934 70.2715 176.986 70.2715 176.986H75.369ZM34.0253 154.74V150.021C34.0253 148.33 33.6468 146.976 32.8982 145.992C32.1117 144.953 30.77 144.432 28.9194 144.432H27.8007C25.9543 144.432 24.6084 144.953 23.8009 145.988C23.0354 146.972 22.6485 148.33 22.6485 150.021V174.466C22.6485 176.123 23.0354 177.465 23.8009 178.449C24.6042 179.483 25.9501 180.005 27.8007 180.005H28.9194C30.7742 180.005 32.1117 179.479 32.8982 178.44C33.6426 177.456 34.0211 176.119 34.0211 174.462V167.194H31.2957V174.705C31.2957 175.425 31.1191 176.039 30.749 176.585C30.4335 177.052 29.8826 177.279 29.0624 177.279H27.6072C26.787 177.279 26.2361 177.052 25.9206 176.585C25.5505 176.039 25.3739 175.425 25.3739 174.705V149.727C25.3739 149.008 25.5547 148.394 25.9248 147.843C26.2361 147.38 26.787 147.153 27.6114 147.153H29.0666C29.8868 147.153 30.4377 147.38 30.7532 147.847C31.1233 148.394 31.2999 149.008 31.2999 149.727V154.74H34.0253ZM10.4852 144.718L7.6673 166.244H6.96913C6.43919 166.244 5.98916 165.857 5.90925 165.331L2.78849 144.714H0L3.44881 166.387C3.68434 167.872 4.96713 168.969 6.47283 168.969H7.25933L6.48124 174.959C6.40133 175.552 6.18683 176.04 5.82933 176.447C5.51389 176.809 5.0134 176.982 4.28999 176.982H2.1492V179.707H4.09652C5.68213 179.707 6.90183 179.312 7.71777 178.538C8.51688 177.777 9.01318 176.729 9.19403 175.417L13.2737 144.718H10.4852ZM99.7916 157.24C98.9882 156.188 97.6423 155.654 95.7876 155.654H93.0706V144.719H90.3452V179.712H95.7918C97.6423 179.712 98.9882 179.186 99.7916 178.155C100.557 177.171 100.944 175.83 100.944 174.168V161.244C100.944 159.586 100.557 158.236 99.7916 157.235V157.24ZM98.2186 161.004V174.416C98.2186 175.136 98.0377 175.754 97.6718 176.296C97.3564 176.763 96.8054 176.99 95.9852 176.99H93.0706V158.43H95.9852C96.8054 158.43 97.3564 158.657 97.6718 159.124C98.0419 159.671 98.2186 160.285 98.2186 161.004ZM116.41 155.704C118.261 155.704 119.607 156.229 120.41 157.26H120.414C121.18 158.248 121.567 159.586 121.567 161.247V174.125C121.567 175.82 121.18 177.175 120.414 178.159C119.611 179.189 118.265 179.715 116.415 179.715H110.968V144.722H121.176V147.448H113.693V155.704H116.41ZM118.837 174.411V160.999C118.837 160.28 118.661 159.666 118.29 159.119C117.975 158.652 117.424 158.425 116.604 158.425H113.689V176.939H116.604C117.428 176.939 117.979 176.716 118.295 176.262C118.661 175.732 118.837 175.126 118.837 174.411ZM137.213 144.428C135.619 144.428 134.277 145.627 134.096 147.213L130.429 179.715H133.213L134.042 172.33H140.388L141.217 179.715H144.001L140.334 147.213C140.153 145.627 138.811 144.428 137.217 144.428H137.213ZM137.608 147.511L140.052 169.6H134.328L136.813 147.511C136.834 147.309 137.007 147.154 137.213 147.154C137.419 147.154 137.587 147.305 137.612 147.511H137.608ZM47.3525 147.213C47.5334 145.627 48.875 144.428 50.4691 144.428H50.4733C52.0673 144.428 53.409 145.627 53.5898 147.213L57.2573 179.715H54.473L53.6445 172.33H47.2978L46.4693 179.715H43.685L47.3525 147.213ZM53.308 169.6L50.8644 147.511H50.8686C50.8434 147.305 50.6751 147.154 50.4691 147.154C50.263 147.154 50.0905 147.309 50.0695 147.511L47.5838 169.6H53.308Z" fill="#97B6B4"/>
<path d="M92.976 89.8012C92.549 89.3742 91.8566 89.3742 91.4296 89.8012C91.0025 90.2283 91.0025 90.9206 91.4296 91.3477C91.8566 91.7747 92.549 91.7747 92.976 91.3477C93.4031 90.9206 93.4031 90.2283 92.976 89.8012Z" fill="#D6AE9F"/>
<path d="M92.5112 67.0775C92.6626 67.17 92.8308 67.2163 92.9948 67.2163C93.2808 67.2163 93.5626 67.0817 93.7435 66.8293L94.387 65.9209L94.3155 65.8704C93.3229 65.1554 84.3013 58.8887 72.6552 58.8887C60.9545 58.8887 51.8909 65.1554 50.8941 65.8704L50.8268 65.9209L51.4745 66.8293C51.7563 67.2247 52.2988 67.3341 52.711 67.0775C53.1652 66.7915 53.6279 66.5181 54.0863 66.2531V84.1407C54.0863 84.9609 54.7509 85.6254 55.571 85.6254H56.0252L56.0883 85.617H57.7202V110.814H59.7222V101.402H71.7636V115.268H73.7656V101.402H85.4873V112.135L87.4893 111.391V85.6128H89.4409V85.6212H89.9582C90.7783 85.6212 91.4429 84.9566 91.4429 84.1365V66.4214C91.8004 66.6317 92.1579 66.8504 92.5112 67.0733V67.0775ZM71.7636 85.617V99.4038H59.7222V85.617H71.7636ZM73.7656 85.617H85.4873V99.4038H73.7656V85.617ZM56.0883 65.1596C59.0703 63.6287 62.1153 62.4973 65.1604 61.7865V83.615H56.0883V65.1596ZM78.371 83.615H67.1582V61.387C69.0045 61.0673 70.8425 60.9033 72.6552 60.9033C74.5395 60.9033 76.4489 61.0841 78.3668 61.4332V83.6192L78.371 83.615ZM80.373 61.8496C83.4181 62.5856 86.4631 63.7507 89.4409 65.311V83.6108H80.373V61.8454V61.8496Z" fill="#D6AE9F"/>
<path d="M92.8873 95.6638C92.4602 95.2368 91.7678 95.2368 91.3408 95.6638C90.9137 96.0909 90.9137 96.7832 91.3408 97.2103C91.7678 97.6373 92.4602 97.6373 92.8873 97.2103C93.3143 96.7832 93.3143 96.0909 92.8873 95.6638Z" fill="#D6AE9F"/>
<path d="M92.883 101.552C92.4559 101.125 91.7635 101.125 91.3365 101.552C90.9094 101.979 90.9094 102.672 91.3365 103.099C91.7635 103.526 92.4559 103.526 92.883 103.099C93.31 102.672 93.31 101.979 92.883 101.552Z" fill="#D6AE9F"/>
<path d="M54.1962 89.7848C53.7691 89.3577 53.0767 89.3577 52.6497 89.7847C52.2226 90.2118 52.2226 90.9042 52.6497 91.3312C53.0767 91.7583 53.7691 91.7583 54.1962 91.3312C54.6232 90.9042 54.6232 90.2118 54.1962 89.7848Z" fill="#D6AE9F"/>
<path d="M54.0973 95.6481C53.6703 95.221 52.9779 95.221 52.5509 95.6481C52.1238 96.0751 52.1238 96.7675 52.5509 97.1945C52.9779 97.6216 53.6703 97.6216 54.0973 97.1945C54.5244 96.7675 54.5244 96.0751 54.0973 95.6481Z" fill="#D6AE9F"/>
<path d="M54.1002 101.543C53.6732 101.116 52.9808 101.116 52.5537 101.543C52.1267 101.97 52.1267 102.662 52.5537 103.089C52.9808 103.516 53.6732 103.516 54.1002 103.089C54.5273 102.662 54.5273 101.97 54.1002 101.543Z" fill="#D6AE9F"/>
<path d="M100.679 5.80255C100.679 5.80255 100.881 4.49452 100.851 3.79635C100.662 -0.392699 95.0474 -0.863756 93.2977 1.15927C92.4229 2.17288 91.586 3.9772 91.586 3.9772C85.0795 6.21472 81.1512 11.0431 79.7885 13.1081C78.7581 14.6643 77.9968 16.0565 76.5163 20.8722C76.5163 20.8722 65.1352 28.6446 64.2688 29.2629C64.1553 29.3428 69.6187 34.108 70.0309 34.6842L79.41 22.6428C79.41 22.6428 79.5193 22.6428 80.8862 22.7816C84.5453 23.156 90.3116 22.9667 94.8245 18.3276C96.4816 16.6242 99.0892 12.9231 100.263 7.14001C100.263 7.14001 101.381 7.51434 101.953 7.61107C102.151 7.64472 102.181 7.65313 102.181 7.65313C101.785 6.90028 101.137 6.18949 100.683 5.80675L100.679 5.80255ZM97.8485 5.58805C97.3354 5.57122 96.9316 5.13802 96.9484 4.6249C96.9653 4.11179 97.3985 3.70802 97.9116 3.72485C98.4247 3.74167 98.8285 4.17487 98.8116 4.68799C98.7948 5.20111 98.3616 5.60487 97.8485 5.58805Z" fill="#97B6B4"/>
<path fill-rule="evenodd" clip-rule="evenodd" d="M54.4981 9.44434C54.4981 9.44434 50.8851 10.3988 49.6536 12.6914C49.297 13.353 49.1367 14.0618 49.088 14.7341C48.8918 14.4012 48.6426 14.0912 48.3276 13.8434C48.2273 13.7647 48.1228 13.6945 48.0168 13.6322C47.7763 13.4919 47.5214 13.3895 47.2636 13.3172C47.0502 13.257 46.8354 13.2176 46.6249 13.1926C46.1309 13.1346 45.6641 13.1589 45.3118 13.2005C45.1242 13.2227 44.9681 13.2492 44.8593 13.2706L44.7619 13.2914L44.6817 13.3093C44.6817 13.3093 44.7576 15.6943 46.1796 16.8084C46.4603 17.0296 46.7724 17.1836 47.0932 17.2888C47.2951 17.3554 47.5013 17.4027 47.7047 17.4349C47.8436 17.4564 47.981 17.4714 48.1156 17.4807C37.3026 21.7051 28.619 29.2352 22.8839 38.5038C22.8338 37.7406 22.7994 36.9759 22.7779 36.2119C22.7507 35.231 22.745 34.2515 22.7493 33.2785C22.7521 32.821 22.4629 32.5539 22.1034 32.4658C21.5249 32.3233 20.7659 32.6441 20.7602 33.3759C20.7574 33.8248 20.7588 34.2752 20.7631 34.7269C20.7659 35.0728 20.7717 35.4186 20.7803 35.7644C20.5068 35.0685 20.0786 34.3639 19.4098 33.8506C19.0533 33.5771 18.6523 33.3773 18.2385 33.2334C17.7086 33.0494 17.1559 32.957 16.6404 32.9176C15.4432 32.8274 14.4551 33.0265 14.4551 33.0265C14.4551 33.0265 14.4523 33.3028 14.5024 33.7281C14.5396 34.0403 14.6055 34.432 14.7201 34.853C14.8103 35.1845 14.932 35.5339 15.0952 35.8768C15.3688 36.4496 15.7568 37.0053 16.3096 37.4298C16.9282 37.9045 17.6757 38.1559 18.4003 38.2797C19.4113 38.4523 20.3764 38.3771 20.8877 38.312C20.9106 38.6757 20.9378 39.0387 20.9693 39.4017C21.028 40.0869 21.101 40.77 21.1913 41.4502C16.3339 50.5834 14.216 61.1387 15.542 71.7713C15.4719 71.6152 15.3931 71.4584 15.3057 71.303C15.131 70.9901 14.922 70.6829 14.6728 70.4044C14.4365 70.1417 14.1644 69.9039 13.8523 69.7106C11.8503 68.4741 8.92334 69.5001 8.92334 69.5001C8.92334 69.5001 9.23838 72.5324 11.236 73.7689C11.3305 73.8276 11.4279 73.8813 11.5267 73.93C11.5983 73.9651 11.6699 73.998 11.7444 74.0288C11.8074 74.0553 11.8704 74.0804 11.9348 74.1033C12.2255 74.2071 12.5248 74.2765 12.8241 74.3202C13.1406 74.366 13.457 74.3818 13.7635 74.3782C13.9067 74.3768 14.047 74.3703 14.1845 74.361C14.5897 74.3331 14.9621 74.2751 15.2714 74.2128C15.5205 74.1627 15.7282 74.1097 15.8814 74.0667C15.9501 74.4634 16.0232 74.8601 16.1005 75.2567C16.47 77.137 16.9482 79.0136 17.5411 80.8809C18.8413 84.9735 20.6242 88.822 22.8409 92.3884C25.2424 98.7458 28.851 104.469 33.5007 109.322C31.3284 109.039 29.1632 108.596 27.0467 108.101C25.881 107.828 25.5445 109.792 26.6973 110.061C27.4734 110.243 28.2567 110.415 29.0429 110.575C28.3025 110.686 27.5164 110.948 26.8663 111.488C25.0405 113.001 24.9646 116.135 24.9646 116.135C24.9646 116.135 26.2118 116.43 27.5851 116.201C28.2997 116.082 29.0472 115.82 29.6715 115.302C31.1093 114.109 31.4615 111.911 31.546 111.032C32.9393 111.256 34.3384 111.426 35.7375 111.516C37.2826 112.94 38.928 114.275 40.665 115.517C49.3085 121.691 59.911 125.093 70.5221 125.093C73.2529 125.093 75.978 124.874 78.6759 124.439C78.5499 124.523 78.4253 124.614 78.3036 124.711C78.1876 124.803 78.0759 124.901 77.9685 125.006C77.8668 125.104 77.7694 125.207 77.6763 125.316C77.5632 125.45 77.4587 125.593 77.3627 125.745C76.1842 127.608 76.9747 130.127 76.9747 130.127C76.9747 130.127 79.6711 129.627 80.8454 127.764C81.1833 127.228 81.3594 126.638 81.4382 126.07C81.4683 125.858 81.484 125.649 81.4897 125.446C81.5069 124.847 81.4339 124.309 81.3623 123.932C82.4134 123.705 83.4587 123.445 84.4984 123.151C85.0382 122.999 85.5767 122.837 86.1137 122.667C93.8736 120.203 100.644 116.069 106.149 110.792C106.389 111.038 106.704 111.337 107.082 111.64C107.556 112.022 108.129 112.411 108.771 112.711C109.322 112.97 109.925 113.162 110.562 113.228C113.359 113.523 115.756 111.264 115.756 111.264C115.756 111.264 113.615 108.534 110.818 108.244C109.919 108.15 109.061 108.319 108.311 108.592C109.253 107.573 110.153 106.518 111.006 105.431C111.731 104.507 112.424 103.56 113.082 102.592C117.019 98.8403 120.363 94.4412 122.953 89.4951C125.731 84.1931 127.507 78.5589 128.26 72.8138C128.875 71.9123 129.454 70.9822 130.004 70.0342C130.528 70.4044 132.583 71.7326 134.541 71.3001C135.32 71.1283 135.983 70.6987 136.516 70.2097C136.909 69.8488 137.233 69.4557 137.481 69.1092C137.876 68.5586 138.082 68.1247 138.082 68.1247C138.082 68.1247 135.685 66.2652 133.418 66.7657C132.357 67.0006 131.512 67.7123 130.915 68.4025C131.096 68.0667 131.273 67.7287 131.448 67.3901L131.79 66.7213L131.991 66.3218L132.251 65.7948L132.55 65.1762C133.065 64.1079 131.382 63.17 130.868 64.2468C130.166 65.7025 129.429 67.1624 128.63 68.5872C128.88 62.8514 128.121 57.0604 126.334 51.4319C125.992 50.3529 125.615 49.2904 125.206 48.2457C125.014 47.7588 124.815 47.2762 124.609 46.7972C123.904 45.1562 123.115 43.5624 122.247 42.0208C122.624 42.3674 123.076 42.6667 123.596 42.8141C125.333 43.306 127.176 41.9263 127.176 41.9263C127.176 41.9263 127.133 41.8318 127.05 41.6771C127.003 41.5869 126.941 41.4767 126.867 41.3535C126.725 41.1215 126.537 40.8423 126.306 40.5616C125.854 40.0175 125.236 39.469 124.467 39.2513C124.198 39.1754 123.927 39.1439 123.661 39.1454C123.444 39.1468 123.231 39.1697 123.025 39.2077C122.867 39.2363 122.714 39.2735 122.567 39.3172C122.494 39.3387 122.423 39.3609 122.355 39.3852C122.264 39.416 122.177 39.449 122.094 39.4826C121.961 39.5363 121.835 39.5929 121.719 39.6494C122.67 38.8769 124.231 37.3317 124.632 35.2518C125.22 32.2023 122.693 28.9052 122.693 28.9052C122.693 28.9052 120.013 31.0625 119.425 34.1119C119.115 35.7157 119.558 37.3174 120.046 38.4752C115.429 31.6997 109.15 26.1414 101.621 22.285C99.858 21.3807 98.0579 20.5982 96.2293 19.9172C95.6737 20.4643 95.0808 20.9726 94.4493 21.4437C96.5859 22.1841 98.6766 23.059 100.696 24.0937C112.119 29.9441 120.535 39.8743 124.4 52.0498C128.264 64.2261 127.113 77.1928 121.153 88.5614C120.144 90.4918 119.004 92.3254 117.768 94.0753C122.445 83.2616 123.403 70.8211 119.584 58.7795C118.852 56.4747 117.961 54.2458 116.926 52.1049C116.703 51.2593 116.459 50.4137 116.194 49.5725C112.46 37.8086 104.73 28.0137 94.2474 21.5912L94.1013 21.7001L93.9538 21.8096C93.6904 21.9936 93.4197 22.1662 93.1448 22.3294C92.8741 22.4913 92.5992 22.6438 92.3214 22.7898C93.6087 23.5423 94.866 24.3457 96.0818 25.2163C102.693 29.9398 107.913 36.0802 111.45 43.218C106.954 37.4012 101.184 32.5897 94.4121 29.1192C90.7018 27.2183 86.8325 25.797 82.8802 24.8505C81.9423 24.8082 81.0086 24.7287 80.0578 24.67L78.9093 26.1421C86.3499 27.3701 93.52 30.2928 99.6603 34.6797C106.293 39.4196 111.509 45.6022 115.008 52.7901C117.121 60.9826 117.006 69.2946 115.017 77.0553C114.991 76.726 114.935 76.3895 114.834 76.0587C114.754 75.7952 114.646 75.5345 114.503 75.2832C114.26 74.8558 113.917 74.4956 113.528 74.1935C113.117 73.8741 112.653 73.62 112.197 73.4188C111.018 72.8975 109.893 72.7343 109.893 72.7343C109.893 72.7343 109.259 75.2453 110.419 77.2895C110.468 77.3747 110.519 77.4577 110.574 77.5386C110.664 77.6711 110.761 77.7971 110.864 77.9167L111.026 78.0942L111.119 78.1895L111.214 78.2804C111.487 78.5346 111.784 78.7558 112.086 78.9463L112.329 79.0938L112.474 79.1754L112.629 79.2585C112.074 79.1704 111.453 79.1754 110.859 79.4002C109.154 80.0482 108.36 82.6265 108.36 82.6265C108.36 82.6265 110.206 83.4084 111.91 82.7647C112.321 82.6086 112.681 82.3616 112.994 82.0773C113.098 81.9821 113.197 81.8826 113.29 81.7809L113.415 81.6413L113.555 81.4702C113.629 81.3764 113.698 81.2826 113.764 81.1902C108.759 95.4114 97.309 107.242 81.7733 112.173C78.7289 113.14 75.62 113.809 72.4825 114.179C64.4375 113.212 56.6217 110.213 50.0188 105.498C43.1566 100.598 37.8353 94.1276 34.4086 86.5824C34.6477 84.9463 34.7852 83.2859 34.8554 81.6255C35.0143 81.6499 35.252 81.68 35.5413 81.7C35.6716 81.7086 35.8134 81.7158 35.9637 81.7186C36.2974 81.7251 36.6726 81.7129 37.0621 81.6649C37.8626 81.5661 38.726 81.3155 39.4206 80.7635C41.2378 79.3207 41.2134 76.3601 41.2134 76.3601C41.2134 76.3601 38.2435 75.7415 36.4263 77.1842C35.5943 77.8451 35.1489 78.8246 34.9098 79.6924L34.9169 79.0544L34.9198 78.6083L34.9169 77.815C34.9083 76.6286 32.9909 76.5233 32.9952 77.7176C33.0024 79.3938 32.9766 81.0885 32.8735 82.7776C32.6945 82.2742 32.5241 81.7666 32.3623 81.2554C28.5059 69.1006 29.6629 56.1339 35.6315 44.7531C37.7423 40.7277 40.3714 37.0812 43.4201 33.8635C47.2607 31.298 51.4823 29.2503 56.0088 27.8118C59.331 26.7557 62.7292 26.0662 66.1617 25.7254C67.2543 24.9729 68.3569 24.2197 69.4538 23.475C64.7397 23.6225 60.017 24.4087 55.3945 25.8772C53.7491 26.3985 52.1467 26.9956 50.583 27.6686C54.6083 24.834 59.0833 22.5922 63.9106 21.0571C67.5622 19.9001 71.2968 19.1726 75.0572 18.8912L75.2548 18.3048C75.4281 17.8065 75.6085 17.3124 75.7976 16.8256C71.6032 17.0654 67.4061 17.8187 63.2934 19.1225C55.1081 21.7216 47.8779 26.2596 42.0998 32.2947C35.126 36.9974 29.3851 43.3776 25.3813 51.0195C20.2662 60.7771 18.4876 71.6324 20.1488 82.2485C20.0227 81.9034 19.8996 81.5575 19.7807 81.2095L19.6375 80.7821L19.4714 80.263C15.4976 67.7423 16.6919 54.3926 22.8366 42.6709C28.9813 30.9493 39.3232 22.285 51.962 18.2726C56.8866 16.7081 61.9802 15.9177 67.0996 15.9177C70.0266 15.9177 72.9536 16.1991 75.8391 16.721C76.0954 16.0645 76.3646 15.4172 76.6596 14.7821C68.8581 13.3071 60.7845 13.6437 52.9658 15.8511C53.3095 15.5096 53.6202 15.1179 53.8594 14.6726C54.1673 14.0983 54.362 13.484 54.4794 12.8854C54.5625 12.4608 54.6083 12.0441 54.6284 11.6553C54.6384 11.4785 54.6427 11.3074 54.6427 11.1441C54.6413 10.8821 54.6312 10.6401 54.6169 10.4253C54.5997 10.1739 54.5754 9.96057 54.5539 9.79732C54.5238 9.57322 54.4981 9.44434 54.4981 9.44434ZM27.1856 51.9617C21.1082 63.5573 19.9268 76.7682 23.8591 89.1586C23.9951 89.596 24.1412 90.0292 24.293 90.4588C24.4118 90.7975 24.5335 91.134 24.6581 91.4677C28.0147 96.8133 32.3923 101.473 37.6578 105.238C45.2746 110.68 54.4651 113.893 63.8017 114.44C58.4604 112.846 53.3711 110.394 48.8331 107.151C40.0506 100.872 33.684 92.1321 30.4276 81.8697C26.408 69.1972 27.6138 55.6835 33.83 43.8194C34.1823 43.1457 34.5489 42.4841 34.9284 41.8325C35.3394 41.1294 35.7661 40.4377 36.2072 39.7561C32.6315 43.2931 29.5828 47.3901 27.1856 51.9617ZM70.5221 123.062C75.4811 123.062 80.5203 122.314 85.4993 120.732C93.3767 118.234 100.179 113.939 105.616 108.463C101.886 110.865 97.8145 112.795 93.4698 114.175C88.5581 115.731 83.4774 116.534 78.3666 116.556H77.9456C76.1298 116.547 74.3083 116.429 72.4997 116.223C71.9541 116.286 71.4085 116.339 70.8615 116.384C70.1025 116.447 69.3421 116.493 68.5817 116.523C67.9345 116.547 67.2858 116.56 66.6371 116.56C55.92 116.56 45.2073 113.124 36.4764 106.886C33.8472 105.006 31.4329 102.903 29.2419 100.62C38.2091 114.595 53.8794 123.062 70.5221 123.062ZM92.8512 112.24C99.9253 109.994 106.252 106.247 111.487 101.313C118.974 90.2354 121.876 76.2505 118.524 62.5564C119.592 85.2592 105.238 106.857 82.3833 114.112C82.0468 114.221 81.706 114.314 81.3652 114.415C83.5447 114.269 85.7141 113.976 87.8607 113.538C88.7958 113.348 89.7252 113.129 90.6502 112.883C91.1228 112.757 91.5939 112.624 92.0622 112.483L92.3715 112.389L92.8512 112.24Z" fill="#D6AE9F"/>
</svg>
