<svg width="98" height="137" viewBox="0 0 98 137" fill="none" xmlns="http://www.w3.org/2000/svg">
<path d="M66.6277 30.3261H31.5631C31.0524 30.3261 30.6354 30.7318 30.6354 31.2311V32.7235L32.1873 33.9747V40.7839C32.1873 41.0449 32.3263 41.2776 32.5618 41.4052C32.8058 41.5357 33.0895 41.5244 33.3193 41.3769L36.3438 39.4221C36.5679 39.2745 36.7012 39.0334 36.7012 38.7695V37.419H36.6587C35.9778 37.4048 35.4274 36.8686 35.4274 36.2246C35.4274 35.5805 35.992 35.0301 36.6871 35.0301C36.6956 35.0301 36.7013 35.0301 36.7069 35.0301H61.5577C62.2358 35.0556 62.7692 35.5805 62.7692 36.2246C62.7692 36.8686 62.2386 37.3906 61.5577 37.4162H61.5152V38.8631C61.5435 39.0986 61.6655 39.3001 61.8499 39.4192L64.8715 41.374C64.9935 41.4535 65.1325 41.4932 65.2716 41.4932C65.3936 41.4932 65.5156 41.462 65.6291 41.4024C65.8617 41.2747 66.0036 41.0421 66.0036 40.7811V33.9718L67.5385 32.7348L67.5555 32.7207V31.2283C67.5555 30.729 67.1384 30.3232 66.6277 30.3232V30.3261ZM62.6897 38.3836C63.5352 37.9524 64.0601 37.1268 64.0601 36.2246C64.0601 34.8996 62.9366 33.7988 61.5549 33.7704H36.6927C35.2798 33.7704 34.1279 34.8712 34.1279 36.2246C34.1279 37.1268 34.6528 37.9552 35.4983 38.3836L35.555 38.412L33.4811 39.754V33.864C33.4811 33.5576 33.342 33.2682 33.098 33.0696L31.9291 32.1277V31.5858H66.2589V32.1277L65.09 33.0696C64.846 33.2654 64.707 33.5548 64.707 33.864V39.754L62.633 38.412L62.6897 38.3836Z" fill="white"/>
<path d="M49.5368 36.9654C49.2487 36.6773 48.7816 36.6773 48.4936 36.9654C48.2055 37.2535 48.2055 37.7205 48.4936 38.0086C48.7817 38.2967 49.2487 38.2967 49.5368 38.0086C49.8249 37.7205 49.8249 37.2535 49.5368 36.9654Z" fill="white"/>
<path d="M53.9784 37.1697C53.6903 36.8816 53.2233 36.8816 52.9352 37.1697C52.6471 37.4578 52.6471 37.9248 52.9352 38.2129C53.2233 38.501 53.6903 38.501 53.9784 38.2129C54.2665 37.9248 54.2665 37.4578 53.9784 37.1697Z" fill="white"/>
<path d="M45.1116 37.1794C44.8235 36.8913 44.3565 36.8913 44.0684 37.1794C43.7803 37.4674 43.7803 37.9345 44.0684 38.2226C44.3565 38.5107 44.8235 38.5107 45.1116 38.2226C45.3997 37.9345 45.3997 37.4674 45.1116 37.1794Z" fill="white"/>
<path d="M60.1677 38.3123L58.1987 36.4143L56.2978 38.3833L58.2668 40.2813L60.1649 38.3123H60.1677ZM57.532 38.3606L58.2214 37.6456L58.9364 38.335L58.247 39.05L57.532 38.3606Z" fill="white"/>
<path d="M41.6301 38.3435L41.6613 38.3123L39.7235 36.4426L39.6923 36.4114L37.8226 38.3492L37.7914 38.3804L39.7292 40.2501L39.7604 40.2813L41.6301 38.3435ZM39.0227 38.3605L39.7122 37.6456L40.4272 38.335L39.7377 39.05L39.0227 38.3605Z" fill="white"/>
<path d="M11.7861 130.908V134.977H11.2244V133.181H8.96032V134.977H8.39856V130.908H8.96032V132.667H11.2244V130.908H11.7861Z" fill="white"/>
<path d="M18.1103 132.27V134.977H17.6961L17.5939 134.239C17.2988 134.727 16.774 135.05 16.0562 135.05C15.2646 135.05 14.7596 134.619 14.7596 133.918C14.7596 133.008 15.5965 132.483 16.7938 132.483C17.0974 132.483 17.3272 132.491 17.54 132.52V132.244C17.54 131.674 17.1343 131.388 16.5101 131.388C16.0675 131.388 15.6164 131.515 15.1653 131.728L14.9724 131.249C15.5256 130.99 16.0505 130.863 16.564 130.863C17.4946 130.863 18.1103 131.351 18.1103 132.27ZM17.54 132.988C17.3187 132.959 17.1456 132.951 16.8761 132.951C15.92 132.951 15.3469 133.283 15.3469 133.881C15.3469 134.287 15.6419 134.525 16.147 134.525C16.9839 134.525 17.5088 133.918 17.5372 132.988H17.54Z" fill="white"/>
<path d="M30.7101 134.423V136.375H30.103V134.977H25.2344V136.375H24.6357V134.423H25.3536C25.7224 133.706 25.9607 132.869 26.0714 131.827L26.4033 128.718H29.9554V134.423H30.7101ZM26.0174 134.423H29.3596V129.268H26.9395L26.653 131.975C26.5508 132.905 26.3409 133.706 26.0174 134.423Z" fill="white"/>
<path d="M36.7676 133.862C36.7676 134.571 36.2427 134.974 35.4511 134.974H33.5474V130.905H35.2951C36.0781 130.905 36.5747 131.328 36.5747 131.983C36.5747 132.434 36.3619 132.721 36.0129 132.886C36.4725 133.013 36.7676 133.345 36.7676 133.862ZM34.1063 131.413V132.656H35.2837C35.7888 132.656 36.0101 132.369 36.0101 132.029C36.0101 131.688 35.7888 131.413 35.2837 131.413H34.1063ZM36.2058 133.816C36.2058 133.447 35.9675 133.164 35.4426 133.164H34.1092V134.472H35.4426C35.9675 134.472 36.2058 134.196 36.2058 133.819V133.816Z" fill="white"/>
<path d="M39.4289 132.942C39.4289 131.691 40.3027 130.806 41.5284 130.806C42.754 130.806 43.6449 131.688 43.6449 132.942C43.6449 134.196 42.771 135.079 41.5284 135.079C40.2857 135.079 39.4289 134.196 39.4289 132.942ZM43.0746 132.942C43.0746 132.003 42.4476 131.331 41.5284 131.331C40.6091 131.331 40.002 132.003 40.002 132.942C40.002 133.881 40.629 134.554 41.5284 134.554C42.4277 134.554 43.0746 133.89 43.0746 132.942Z" fill="white"/>
<path d="M50.7859 132.922C50.7859 134.174 49.9404 135.067 48.7715 135.067C48.0991 135.067 47.5288 134.764 47.1884 134.304C47.1969 134.616 47.2054 134.994 47.2054 135.399V136.999H46.6436V130.905H47.0664L47.1855 131.586C47.5345 131.118 48.0878 130.823 48.7772 130.823C49.9376 130.823 50.7831 131.705 50.7831 132.922H50.7859ZM50.2242 132.951C50.2242 132.012 49.6085 131.351 48.7318 131.351C47.8551 131.351 47.177 131.995 47.177 132.925C47.177 133.856 47.8296 134.545 48.7318 134.545C49.634 134.545 50.2242 133.881 50.2242 132.954V132.951Z" fill="white"/>
<path d="M56.6134 130.908V134.977H56.0516V133.413H55.0302L53.8613 134.977H53.2173V134.931L54.4231 133.348C53.8613 133.201 53.5123 132.795 53.5123 132.179C53.5123 131.368 54.0741 130.908 54.9479 130.908H56.6134ZM56.0516 132.925V131.416H54.9565C54.3294 131.416 54.0741 131.719 54.0741 132.179C54.0741 132.639 54.3323 132.925 54.9565 132.925H56.0516Z" fill="white"/>
<path d="M63.295 130.908V134.977H62.7332V133.181H60.4691V134.977H59.9074V130.908H60.4691V132.667H62.7332V130.908H63.295Z" fill="white"/>
<path d="M66.2968 132.931C66.2968 131.586 67.2728 130.814 68.3764 130.814C68.9666 130.814 69.4177 130.999 69.8319 131.368L69.5085 131.754C69.1765 131.467 68.8559 131.339 68.3764 131.339C67.531 131.339 66.8671 131.975 66.8671 132.931C66.8671 133.887 67.5196 134.551 68.3679 134.551C68.9212 134.551 69.2503 134.375 69.5822 134.063L69.8943 134.469C69.4716 134.863 69.029 135.076 68.3197 135.076C67.3068 135.076 66.2939 134.33 66.2939 132.931H66.2968Z" fill="white"/>
<path d="M75.8692 134.928V134.974H75.1685L73.2449 133.087V134.974H72.6831V130.905H73.2449V132.69L75.0039 130.905H75.6848V130.934L73.7527 132.877L75.8692 134.928Z" fill="white"/>
<path d="M77.949 132.942C77.949 131.691 78.8228 130.806 80.0485 130.806C81.2741 130.806 82.165 131.688 82.165 132.942C82.165 134.196 81.2912 135.079 80.0485 135.079C78.8058 135.079 77.949 134.196 77.949 132.942ZM81.5947 132.942C81.5947 132.003 80.9677 131.331 80.0485 131.331C79.1292 131.331 78.5221 132.003 78.5221 132.942C78.5221 133.881 79.1491 134.554 80.0485 134.554C80.9479 134.554 81.5947 133.89 81.5947 132.942Z" fill="white"/>
<path d="M88.58 130.908V134.977H88.0182V132.491C88.0182 132.335 88.0182 132.179 88.0267 132.023C87.9076 132.179 87.7771 132.335 87.6409 132.483L85.3683 134.977H85.1669V130.908H85.7286V133.32C85.7286 133.504 85.7201 133.688 85.7116 133.862C85.8591 133.677 86.0152 133.504 86.1712 133.328L88.3814 130.908H88.5828H88.58ZM85.7371 129.39L86.0776 129.132C86.262 129.419 86.5656 129.6 86.9061 129.6C87.2465 129.6 87.5416 129.416 87.7345 129.132L88.0665 129.39C87.8281 129.833 87.4139 130.054 86.9061 130.054C86.3982 130.054 85.9868 129.833 85.7371 129.39Z" fill="white"/>
<path fill-rule="evenodd" clip-rule="evenodd" d="M52.6806 100.12V119.39H53.0749C53.4381 119.39 53.7303 119.683 53.7303 120.046V123.524H52.0564L51.8266 121.226H45.8969L45.6671 123.524H43.9875L44.0215 120.273C44.0215 119.745 44.3081 119.39 44.7223 119.39H45.5564C45.5564 119.39 45.5791 118.936 45.5962 118.482L46.3565 100.007C46.4161 98.5654 47.6049 97.4277 49.0462 97.4277H49.9881C51.4748 97.4277 52.6806 98.6335 52.6806 100.12ZM50.8421 119.39V100.293H50.8392C50.8392 99.7258 50.3796 99.2662 49.8122 99.2662H49.2533C48.7029 99.2662 48.2517 99.6975 48.2262 100.248L47.4375 118.23C47.4233 118.681 47.4034 119.39 47.4034 119.39H50.8421ZM22.9527 104.384V101.2C22.9527 100.06 22.6973 99.1462 22.1923 98.4823C21.6618 97.7815 20.7567 97.4297 19.5083 97.4297H18.7536C17.5081 97.4297 16.6002 97.7815 16.0555 98.4794C15.5391 99.1433 15.2781 100.06 15.2781 101.2V117.69C15.2781 118.808 15.5391 119.713 16.0555 120.377C16.5974 121.075 17.5053 121.426 18.7536 121.426H19.5083C20.7595 121.426 21.6618 121.072 22.1923 120.371C22.6945 119.707 22.9498 118.805 22.9498 117.687V112.784H21.1113V117.852C21.1113 118.337 20.9922 118.751 20.7425 119.12C20.5297 119.435 20.158 119.588 19.6048 119.588H18.6231C18.0699 119.588 17.6982 119.435 17.4854 119.12C17.2358 118.751 17.1166 118.337 17.1166 117.852V101.002C17.1166 100.517 17.2386 100.102 17.4883 99.7306C17.6982 99.4185 18.0699 99.2653 18.626 99.2653H19.6076C20.1609 99.2653 20.5326 99.4185 20.7453 99.7335C20.995 100.102 21.1142 100.517 21.1142 101.002V104.384H22.9527ZM7.07307 97.6243L5.17216 112.145H4.70119C4.34371 112.145 4.04013 111.884 3.98623 111.529L1.88104 97.6215H0L2.32648 112.241C2.48536 113.243 3.3507 113.983 4.36641 113.983H4.89696L4.37208 118.024C4.31818 118.424 4.17348 118.753 3.93232 119.028C3.71953 119.272 3.38191 119.388 2.89392 119.388H1.44979V121.227H2.76341C3.83302 121.227 4.6558 120.96 5.20621 120.438C5.74527 119.925 6.08006 119.218 6.20206 118.333L8.95411 97.6243H7.07307ZM67.3169 106.07C66.775 105.36 65.8671 105 64.6159 105H62.7831V97.6234H60.9446V121.229H64.6187C65.8671 121.229 66.775 120.874 67.3169 120.179C67.8333 119.515 68.0943 118.61 68.0943 117.489V108.771C68.0943 107.653 67.8333 106.742 67.3169 106.067V106.07ZM66.2558 108.609V117.657C66.2558 118.142 66.1338 118.559 65.8869 118.925C65.6742 119.24 65.3025 119.393 64.7492 119.393H62.7831V106.873H64.7492C65.3025 106.873 65.6742 107.026 65.8869 107.341C66.1366 107.71 66.2558 108.124 66.2558 108.609ZM78.5275 105.034C79.7758 105.034 80.6837 105.389 81.2256 106.084H81.2284C81.7448 106.751 82.0058 107.653 82.0058 108.774V117.461C82.0058 118.604 81.7448 119.518 81.2284 120.182C80.6865 120.877 79.7786 121.232 78.5303 121.232H74.8561V97.6263H81.742V99.4648H76.6946V105.034H78.5275ZM80.1645 117.654V108.606C80.1645 108.121 80.0453 107.707 79.7957 107.338C79.5829 107.023 79.2112 106.87 78.658 106.87H76.6918V119.359H78.658C79.214 119.359 79.5857 119.209 79.7985 118.902C80.0453 118.545 80.1645 118.136 80.1645 117.654ZM92.5603 97.4277C91.485 97.4277 90.5799 98.2363 90.4579 99.3059L87.9839 121.232H89.8621L90.4211 116.25H94.7023L95.2613 121.232H97.1395L94.6655 99.3059C94.5435 98.2363 93.6384 97.4277 92.5631 97.4277H92.5603ZM92.827 99.5074L94.4754 114.408H90.614L92.2907 99.5074C92.3049 99.3712 92.4212 99.2662 92.5603 99.2662C92.6993 99.2662 92.8128 99.3684 92.8298 99.5074H92.827ZM31.9427 99.3059C32.0647 98.2363 32.9698 97.4277 34.0451 97.4277H34.0479C35.1232 97.4277 36.0282 98.2363 36.1502 99.3059L38.6242 121.232H36.746L36.1871 116.25H31.9058L31.3469 121.232H29.4687L31.9427 99.3059ZM35.9601 114.408L34.3117 99.5074H34.3146C34.2976 99.3684 34.1841 99.2662 34.0451 99.2662C33.906 99.2662 33.7897 99.3712 33.7755 99.5074L32.0988 114.408H35.9601Z" fill="white"/>
<path d="M62.7193 60.5774C62.4312 60.2893 61.9642 60.2893 61.6761 60.5774C61.388 60.8655 61.388 61.3326 61.6761 61.6206C61.9642 61.9087 62.4312 61.9087 62.7193 61.6206C63.0074 61.3326 63.0074 60.8655 62.7193 60.5774Z" fill="white"/>
<path d="M62.4057 45.2486C62.5078 45.311 62.6213 45.3422 62.732 45.3422C62.9249 45.3422 63.115 45.2514 63.237 45.0812L63.6711 44.4684L63.6229 44.4343C62.9533 43.952 56.8675 39.7246 49.0114 39.7246C41.1184 39.7246 35.0043 43.952 34.3319 44.4343L34.2865 44.4684L34.7234 45.0812C34.9135 45.3479 35.2795 45.4217 35.5576 45.2486C35.864 45.0557 36.1761 44.8712 36.4853 44.6925V56.759C36.4853 57.3122 36.9336 57.7605 37.4868 57.7605H37.7932L37.8358 57.7548H38.9366V74.7523H40.2871V68.4027H48.4099V77.7569H49.7604V68.4027H57.6676V75.6432L59.0181 75.141V57.752H60.3346V57.7577H60.6835C61.2368 57.7577 61.6851 57.3094 61.6851 56.7562V44.806C61.9262 44.9478 62.1674 45.0954 62.4057 45.2457V45.2486ZM48.4099 57.7548V67.0551H40.2871V57.7548H48.4099ZM49.7604 57.7548H57.6676V67.0551H49.7604V57.7548ZM37.8358 43.9548C39.8474 42.9221 41.9015 42.1589 43.9556 41.6794V56.4043H37.8358V43.9548ZM52.8671 56.4043H45.3032V41.4099C46.5488 41.1943 47.7886 41.0836 49.0114 41.0836C50.2825 41.0836 51.5705 41.2056 52.8643 41.4411V56.4072L52.8671 56.4043ZM54.2176 41.722C56.2717 42.2185 58.3259 43.0044 60.3346 44.057V56.4015H54.2176V41.7191V41.722Z" fill="white"/>
<path d="M62.6594 64.5322C62.3713 64.2441 61.9043 64.2441 61.6162 64.5322C61.3281 64.8203 61.3281 65.2873 61.6162 65.5754C61.9043 65.8635 62.3713 65.8635 62.6594 65.5754C62.9475 65.2873 62.9475 64.8203 62.6594 64.5322Z" fill="white"/>
<path d="M62.6565 68.5043C62.3684 68.2162 61.9014 68.2162 61.6133 68.5043C61.3252 68.7924 61.3252 69.2595 61.6133 69.5475C61.9014 69.8356 62.3684 69.8356 62.6565 69.5475C62.9446 69.2595 62.9446 68.7924 62.6565 68.5043Z" fill="white"/>
<path d="M36.5594 60.5663C36.2713 60.2782 35.8043 60.2782 35.5162 60.5663C35.2281 60.8544 35.2281 61.3215 35.5162 61.6095C35.8043 61.8976 36.2713 61.8976 36.5594 61.6095C36.8475 61.3214 36.8475 60.8544 36.5594 60.5663Z" fill="white"/>
<path d="M36.4927 64.5215C36.2047 64.2335 35.7376 64.2335 35.4495 64.5215C35.1614 64.8096 35.1614 65.2767 35.4495 65.5648C35.7376 65.8528 36.2047 65.8528 36.4927 65.5648C36.7808 65.2767 36.7808 64.8096 36.4927 64.5215Z" fill="white"/>
<path d="M36.4947 68.498C36.2066 68.21 35.7395 68.21 35.4515 68.498C35.1634 68.7861 35.1634 69.2532 35.4515 69.5413C35.7395 69.8293 36.2066 69.8293 36.4947 69.5413C36.7827 69.2532 36.7827 68.7861 36.4947 68.498Z" fill="white"/>
<path d="M67.9155 3.91425C67.9155 3.91425 68.0517 3.03189 68.0318 2.56092C67.9041 -0.264905 64.1165 -0.582668 62.9362 0.782012C62.3461 1.46577 61.7815 2.68292 61.7815 2.68292C57.3924 4.19229 54.7425 7.44937 53.8232 8.84242C53.1281 9.89217 52.6146 10.8313 51.6159 14.0798C51.6159 14.0798 43.9385 19.3229 43.3541 19.74C43.2775 19.7939 46.963 23.0084 47.241 23.3971L53.5679 15.2743C53.5679 15.2743 53.6417 15.2743 54.5638 15.3679C57.0321 15.6204 60.9219 15.4927 63.9661 12.3633C65.084 11.2143 66.843 8.71758 67.6346 4.81647C67.6346 4.81647 68.3893 5.06898 68.7751 5.13423C68.9085 5.15693 68.9284 5.16261 68.9284 5.16261C68.6617 4.65475 68.2247 4.17527 67.9183 3.91709L67.9155 3.91425ZM66.0061 3.76955C65.6599 3.7582 65.3876 3.46598 65.3989 3.11984C65.4103 2.77371 65.7025 2.50134 66.0486 2.51269C66.3948 2.52404 66.6671 2.81626 66.6558 3.1624C66.6444 3.50853 66.3522 3.7809 66.0061 3.76955Z" fill="white"/>
<path fill-rule="evenodd" clip-rule="evenodd" d="M36.7629 6.37109C36.7629 6.37109 34.3258 7.01492 33.495 8.56147C33.2545 9.00776 33.1463 9.48592 33.1134 9.93945C32.9811 9.71486 32.813 9.50573 32.6005 9.33861C32.5329 9.28548 32.4624 9.23815 32.3909 9.19613C32.2286 9.10146 32.0567 9.03239 31.8828 8.98361C31.7388 8.94304 31.5939 8.91647 31.4519 8.89957C31.1187 8.86045 30.8038 8.87687 30.5661 8.90488C30.4396 8.91985 30.3343 8.93772 30.2609 8.95221L30.1952 8.96622L30.1411 8.9783C30.1411 8.9783 30.1923 10.5871 31.1515 11.3387C31.3409 11.4879 31.5514 11.5918 31.7678 11.6628C31.904 11.7077 32.0431 11.7396 32.1803 11.7613C32.274 11.7758 32.3667 11.7859 32.4575 11.7922C25.1634 14.6419 19.3056 19.7215 15.4368 25.9739C15.403 25.459 15.3798 24.9432 15.3653 24.4278C15.347 23.7661 15.3431 23.1054 15.346 22.449C15.348 22.1404 15.1528 21.9602 14.9104 21.9008C14.5201 21.8047 14.0081 22.0211 14.0043 22.5147C14.0023 22.8175 14.0033 23.1213 14.0062 23.4261C14.0081 23.6594 14.012 23.8927 14.0178 24.126C13.8333 23.6565 13.5445 23.1812 13.0933 22.8349C12.8528 22.6504 12.5823 22.5157 12.3032 22.4186C11.9457 22.2944 11.5729 22.2321 11.2251 22.2056C10.4176 22.1447 9.75102 22.279 9.75102 22.279C9.75102 22.279 9.74909 22.4654 9.7829 22.7523C9.80801 22.9629 9.85245 23.2271 9.92973 23.5111C9.99059 23.7347 10.0727 23.9704 10.1828 24.2018C10.3673 24.5882 10.6291 24.963 11.002 25.2494C11.4193 25.5696 11.9235 25.7392 12.4123 25.8227C13.0943 25.9391 13.7454 25.8884 14.0902 25.8444C14.1057 26.0898 14.124 26.3347 14.1453 26.5796C14.1849 27.0418 14.2342 27.5026 14.295 27.9614C11.0184 34.1225 9.5897 41.2428 10.4842 48.4152C10.4369 48.3099 10.3837 48.2042 10.3248 48.0994C10.207 47.8883 10.0659 47.6811 9.89785 47.4932C9.73846 47.3159 9.55493 47.1556 9.34434 47.0252C7.99389 46.1911 6.01941 46.8832 6.01941 46.8832C6.01941 46.8832 6.23193 48.9287 7.57948 49.7628C7.64324 49.8024 7.70892 49.8386 7.77558 49.8715C7.82387 49.8951 7.87217 49.9174 7.92241 49.9381C7.96491 49.956 8.00741 49.9729 8.05088 49.9884C8.24698 50.0584 8.44887 50.1052 8.65076 50.1347C8.86424 50.1656 9.07773 50.1762 9.28445 50.1738C9.38105 50.1729 9.47571 50.1685 9.56845 50.1622C9.84182 50.1434 10.093 50.1043 10.3016 50.0623C10.4697 50.0284 10.6098 49.9927 10.7131 49.9637C10.7595 50.2313 10.8088 50.4989 10.8609 50.7665C11.1102 52.0348 11.4328 53.3007 11.8327 54.5604C12.7098 57.3212 13.9125 59.9173 15.4078 62.3231C17.0278 66.6116 19.4621 70.4721 22.5987 73.7459C21.1333 73.5551 19.6727 73.2561 18.245 72.9224C17.4586 72.7383 17.2316 74.0632 18.0093 74.2448C18.5328 74.367 19.0612 74.4834 19.5915 74.5911C19.0921 74.6665 18.5618 74.8427 18.1232 75.2069C16.8916 76.228 16.8404 78.342 16.8404 78.342C16.8404 78.342 17.6818 78.541 18.6082 78.3865C19.0902 78.3058 19.5944 78.1295 20.0156 77.7798C20.9855 76.9752 21.2231 75.4924 21.2801 74.8997C22.22 75.0509 23.1638 75.1654 24.1075 75.2258C25.1498 76.1864 26.2598 77.0872 27.4315 77.9247C33.2622 82.0896 40.4144 84.3848 47.5724 84.3848C49.4145 84.3848 51.2528 84.237 53.0727 83.9433C52.9877 84.0003 52.9036 84.0617 52.8215 84.1269C52.7433 84.1892 52.6679 84.2553 52.5955 84.3259C52.5269 84.392 52.4612 84.4616 52.3984 84.535C52.3221 84.6258 52.2516 84.7219 52.1869 84.8243C51.3919 86.0815 51.9251 87.7807 51.9251 87.7807C51.9251 87.7807 53.744 87.4431 54.5362 86.1863C54.7641 85.8251 54.8829 85.4271 54.9361 85.0436C54.9564 84.9006 54.967 84.7596 54.9709 84.6229C54.9824 84.2191 54.9332 83.8559 54.8849 83.6018C55.5939 83.4487 56.2991 83.2729 57.0004 83.0749C57.3646 82.972 57.7278 82.8629 58.09 82.7479C63.3247 81.0859 67.8919 78.2971 71.6052 74.7379C71.7675 74.9036 71.98 75.105 72.235 75.3098C72.5547 75.5672 72.9411 75.8295 73.3739 76.0324C73.7458 76.2067 74.1525 76.3366 74.5823 76.3811C76.4689 76.5796 78.086 75.0562 78.086 75.0562C78.086 75.0562 76.6418 73.2146 74.7553 73.019C74.1486 72.9552 73.57 73.0692 73.0638 73.2537C73.6994 72.5664 74.3061 71.8545 74.8818 71.1213C75.3706 70.4982 75.8381 69.8592 76.2825 69.2062C78.938 66.6753 81.1936 63.7078 82.941 60.3713C84.8151 56.7947 86.0129 52.994 86.521 49.1185C86.9354 48.5104 87.3266 47.883 87.6976 47.2435C88.0511 47.4932 89.4373 48.3892 90.7578 48.0974C91.2833 47.9815 91.7306 47.6917 92.0899 47.3618C92.3556 47.1184 92.5739 46.8532 92.741 46.6195C93.0076 46.248 93.1467 45.9554 93.1467 45.9554C93.1467 45.9554 91.5296 44.701 90.0005 45.0386C89.2847 45.1971 88.7148 45.6772 88.3119 46.1428C88.4336 45.9162 88.5534 45.6883 88.6713 45.4598L88.9022 45.0087L89.0374 44.7392L89.2132 44.3837L89.4151 43.9664C89.7619 43.2458 88.6268 42.613 88.2801 43.3395C87.8067 44.3214 87.3092 45.3062 86.7702 46.2674C86.9393 42.3981 86.4273 38.4916 85.2217 34.6948C84.9909 33.967 84.7368 33.2502 84.4605 32.5455C84.3311 32.2171 84.1968 31.8915 84.0577 31.5684C83.5825 30.4614 83.0502 29.3862 82.4648 28.3464C82.7189 28.5801 83.0241 28.782 83.3748 28.8815C84.5465 29.2133 85.7897 28.2826 85.7897 28.2826C85.7897 28.2826 85.7608 28.2188 85.7047 28.1145C85.6729 28.0537 85.6313 27.9793 85.5811 27.8962C85.4855 27.7397 85.3589 27.5513 85.2024 27.362C84.8981 26.9949 84.4808 26.625 83.9621 26.4781C83.7805 26.4269 83.5979 26.4057 83.4182 26.4067C83.2724 26.4076 83.1284 26.4231 82.9893 26.4487C82.8831 26.468 82.7797 26.4931 82.6802 26.5226C82.631 26.5371 82.5836 26.552 82.5373 26.5685C82.4764 26.5892 82.4175 26.6114 82.3615 26.6341C82.2716 26.6704 82.1866 26.7085 82.1084 26.7467C82.7498 26.2255 83.8027 25.1832 84.0732 23.7801C84.4702 21.7231 82.7652 19.4989 82.7652 19.4989C82.7652 19.4989 80.9579 20.9541 80.5608 23.0112C80.3522 24.0931 80.6507 25.1736 80.9801 25.9546C77.8657 21.384 73.6299 17.6345 68.5507 15.0331C67.3616 14.4231 66.1473 13.8952 64.9138 13.4358C64.539 13.8049 64.139 14.1478 63.713 14.4656C65.1543 14.965 66.5646 15.5552 67.9267 16.2532C75.6324 20.1997 81.3095 26.8983 83.9167 35.1117C86.5239 43.3255 85.7472 52.0725 81.7268 59.7415C81.0458 61.0436 80.2768 62.2806 79.4432 63.461C82.5981 56.1663 83.2444 47.7743 80.6681 39.6513C80.1745 38.0966 79.5736 36.593 78.8752 35.1488C78.7245 34.5784 78.5603 34.008 78.3816 33.4405C75.8623 25.5049 70.6479 18.8975 63.5768 14.5651L63.4783 14.6385L63.3788 14.7124C63.2011 14.8365 63.0185 14.9529 62.833 15.0631C62.6505 15.1722 62.465 15.2751 62.2776 15.3736C63.146 15.8812 63.9942 16.4232 64.8143 17.0105C69.2742 20.1968 72.7953 24.339 75.1813 29.1539C72.1481 25.2301 68.2561 21.9844 63.6879 19.6433C61.1851 18.3609 58.575 17.4022 55.9088 16.7637C55.2761 16.7352 54.6463 16.6816 54.0049 16.642L53.2301 17.635C58.2494 18.4633 63.0861 20.4349 67.2283 23.3942C71.7027 26.5916 75.2209 30.7623 77.5817 35.6111C79.0066 41.1375 78.9293 46.7446 77.5875 51.9797C77.5701 51.7576 77.5325 51.5306 77.4639 51.3074C77.4098 51.1297 77.3373 50.9539 77.2407 50.7843C77.0765 50.496 76.8457 50.253 76.5829 50.0492C76.3057 49.8338 75.9927 49.6623 75.6855 49.5266C74.8895 49.175 74.1312 49.0649 74.1312 49.0649C74.1312 49.0649 73.7033 50.7587 74.4857 52.1377C74.5186 52.1952 74.5534 52.2512 74.5901 52.3058C74.6509 52.3951 74.7166 52.4801 74.7862 52.5608L74.8953 52.6806L74.9581 52.7448L75.0219 52.8061C75.2064 52.9776 75.4063 53.1269 75.6102 53.2553L75.7744 53.3548L75.8719 53.4099L75.9763 53.4659C75.6024 53.4065 75.1832 53.4099 74.7823 53.5615C73.6328 53.9987 73.0967 55.7379 73.0967 55.7379C73.0967 55.7379 74.3418 56.2653 75.4913 55.8311C75.7686 55.7258 76.012 55.5592 76.2226 55.3675C76.2931 55.3032 76.3598 55.2361 76.4226 55.1675L76.5066 55.0733L76.6013 54.9579C76.6515 54.8946 76.6979 54.8313 76.7423 54.769C73.3662 64.3623 65.6421 72.3428 55.1621 75.6691C53.1084 76.3217 51.0113 76.7728 48.8948 77.0225C43.4679 76.37 38.1955 74.3472 33.7413 71.1667C29.1123 67.8611 25.5227 63.4963 23.2111 58.4065C23.3724 57.3028 23.4652 56.1828 23.5125 55.0627C23.6197 55.0791 23.7801 55.0994 23.9752 55.1129C24.0631 55.1187 24.1587 55.1235 24.2602 55.1255C24.4852 55.1298 24.7383 55.1216 25.0011 55.0893C25.5411 55.0226 26.1236 54.8536 26.5921 54.4812C27.8179 53.5079 27.8015 51.5107 27.8015 51.5107C27.8015 51.5107 25.798 51.0934 24.5722 52.0667C24.0109 52.5125 23.7105 53.1732 23.5492 53.7586L23.554 53.3283L23.556 53.0274L23.554 52.4922C23.5482 51.6919 22.2548 51.6209 22.2577 52.4265C22.2625 53.5572 22.2451 54.7004 22.1756 55.8398C22.0548 55.5003 21.9399 55.1578 21.8307 54.813C19.2293 46.6137 20.0098 37.8667 24.0361 30.1895C25.4599 27.4741 27.2335 25.0142 29.2901 22.8436C31.8808 21.113 34.7286 19.7317 37.7821 18.7613C40.0232 18.0489 42.3154 17.5838 44.6309 17.3539C45.368 16.8463 46.1118 16.3382 46.8517 15.8358C43.6717 15.9353 40.4859 16.4657 37.3677 17.4563C36.2577 17.8079 35.1768 18.2107 34.1219 18.6647C36.8373 16.7526 39.856 15.2403 43.1124 14.2048C45.5757 13.4243 48.095 12.9335 50.6316 12.7437L50.7649 12.3481C50.8818 12.012 51.0035 11.6787 51.1311 11.3503C48.3017 11.5121 45.4704 12.0202 42.696 12.8997C37.1745 14.653 32.2972 17.7142 28.3994 21.7854C23.6951 24.9577 19.8224 29.2616 17.1215 34.4166C13.671 40.9989 12.4712 48.3215 13.5918 55.4829C13.5068 55.2501 13.4237 55.0168 13.3435 54.7821L13.2469 54.4937L13.1349 54.1436C10.4543 45.6974 11.2599 36.692 15.4049 28.7849C19.55 20.8778 26.5264 15.0331 35.0522 12.3264C38.3742 11.2711 41.8102 10.7378 45.2636 10.7378C47.2381 10.7378 49.2126 10.9277 51.1591 11.2798C51.332 10.8369 51.5136 10.4002 51.7126 9.97181C46.4499 8.97685 41.0036 9.20385 35.7293 10.6929C35.9612 10.4625 36.1708 10.1983 36.3321 9.89792C36.5398 9.51056 36.6712 9.09615 36.7504 8.69236C36.8064 8.40595 36.8373 8.12485 36.8509 7.86258C36.8576 7.74328 36.8605 7.62784 36.8605 7.51772C36.8595 7.34095 36.8528 7.17769 36.8431 7.0328C36.8315 6.86326 36.8151 6.71933 36.8006 6.60921C36.7803 6.45803 36.7629 6.37109 36.7629 6.37109ZM18.3387 35.0522C14.239 42.8743 13.4421 51.7861 16.0947 60.1443C16.1864 60.4394 16.285 60.7316 16.3874 61.0214C16.4675 61.2498 16.5496 61.4768 16.6337 61.7019C18.898 65.308 21.851 68.4513 25.4029 70.9909C30.541 74.6621 36.7407 76.8298 43.039 77.1983C39.4358 76.1232 36.0027 74.4689 32.9415 72.2814C27.0171 68.0456 22.7223 62.1501 20.5257 55.2274C17.8141 46.6789 18.6275 37.5628 22.8208 29.5596C23.0585 29.1051 23.3058 28.6589 23.5618 28.2193C23.839 27.745 24.1269 27.2785 24.4244 26.8186C22.0123 29.2046 19.9557 31.9683 18.3387 35.0522ZM47.5724 83.0145C50.9176 83.0145 54.3169 82.5098 57.6756 81.4429C62.9895 79.7577 67.578 76.8607 71.2458 73.1668C68.7294 74.7867 65.9831 76.0889 63.0523 77.0196C59.739 78.0696 56.3116 78.6111 52.864 78.6256H52.58C51.3552 78.6198 50.1264 78.5406 48.9064 78.4014C48.5383 78.4435 48.1703 78.4797 47.8013 78.5101C47.2893 78.5526 46.7764 78.5835 46.2634 78.6033C45.8268 78.6198 45.3892 78.6284 44.9516 78.6284C37.7222 78.6284 30.4956 76.3106 24.606 72.1027C22.8324 70.8344 21.2038 69.4158 19.7258 67.8756C25.7748 77.3031 36.3456 83.0145 47.5724 83.0145ZM62.635 75.7145C67.407 74.1994 71.6747 71.6714 75.2064 68.3436C80.2566 60.8707 82.2146 51.4369 79.9532 42.1991C80.6739 57.5139 70.9908 72.0829 55.5736 76.9771C55.3466 77.051 55.1167 77.1133 54.8868 77.1814C56.357 77.0829 57.8205 76.8858 59.2685 76.5902C59.8993 76.4617 60.5263 76.3144 61.1503 76.1483C61.4691 76.0633 61.7869 75.9734 62.1027 75.8783L62.3114 75.815L62.635 75.7145Z" fill="white"/>
</svg>
