<svg width="137" height="57" viewBox="0 0 137 57" fill="none" xmlns="http://www.w3.org/2000/svg">
<path d="M16.6226 48.0997V53.8377H15.8304V51.3049H12.6372V53.8377H11.845V48.0997H12.6372V50.5806H15.8304V48.0997H16.6226Z" fill="#97B6B4"/>
<path d="M25.5418 50.0204V53.8377H24.9576L24.8136 52.7973C24.3974 53.4856 23.6572 53.9418 22.6448 53.9418C21.5284 53.9418 20.8162 53.3335 20.8162 52.3452C20.8162 51.0607 21.9966 50.3205 23.6852 50.3205C24.1133 50.3205 24.4374 50.3325 24.7376 50.3725V49.9844C24.7376 49.1801 24.1654 48.776 23.285 48.776C22.6608 48.776 22.0246 48.956 21.3884 49.2561L21.1163 48.5799C21.8966 48.2158 22.6368 48.0357 23.3611 48.0357C24.6735 48.0357 25.5418 48.7239 25.5418 50.0204ZM24.7376 51.0327C24.4254 50.9927 24.1814 50.9807 23.8012 50.9807C22.4528 50.9807 21.6445 51.4489 21.6445 52.2932C21.6445 52.8654 22.0606 53.2015 22.7729 53.2015C23.9533 53.2015 24.6935 52.3452 24.7336 51.0327H24.7376Z" fill="#97B6B4"/>
<path d="M43.3119 53.0575V55.8104H42.4557V53.8377H35.5893V55.8104H34.745V53.0575H35.7573C36.2775 52.0451 36.6136 50.8647 36.7697 49.3962L37.2378 45.0107H42.2476V53.0575H43.3119ZM36.6937 53.0575H41.4073V45.787H37.9941L37.59 49.6043C37.4459 50.9167 37.1498 52.0451 36.6937 53.0575Z" fill="#97B6B4"/>
<path d="M51.855 52.2652C51.855 53.2655 51.1148 53.8337 49.9984 53.8337H47.3135V48.0957H49.7783C50.8827 48.0957 51.5829 48.6919 51.5829 49.6163C51.5829 50.2525 51.2828 50.6566 50.7907 50.8887C51.4389 51.0688 51.855 51.5369 51.855 52.2652ZM48.1017 48.812V50.5646H49.7623C50.4746 50.5646 50.7867 50.1604 50.7867 49.6803C50.7867 49.2001 50.4746 48.812 49.7623 48.812H48.1017ZM51.0628 52.2012C51.0628 51.681 50.7266 51.2808 49.9864 51.2808H48.1057V53.1255H49.9864C50.7266 53.1255 51.0628 52.7373 51.0628 52.2052V52.2012Z" fill="#97B6B4"/>
<path d="M55.6083 50.9687C55.6083 49.2041 56.8408 47.9556 58.5694 47.9556C60.298 47.9556 61.5544 49.2001 61.5544 50.9687C61.5544 52.7373 60.322 53.9817 58.5694 53.9817C56.8168 53.9817 55.6083 52.7373 55.6083 50.9687ZM60.7501 50.9687C60.7501 49.6442 59.8658 48.6959 58.5694 48.6959C57.2729 48.6959 56.4166 49.6442 56.4166 50.9687C56.4166 52.2932 57.3009 53.2415 58.5694 53.2415C59.8378 53.2415 60.7501 52.3052 60.7501 50.9687Z" fill="#97B6B4"/>
<path d="M71.6257 50.9407C71.6257 52.7053 70.4333 53.9658 68.7847 53.9658C67.8364 53.9658 67.0321 53.5376 66.5519 52.8894C66.5639 53.3296 66.5759 53.8617 66.5759 54.4339V56.6907H65.7837V48.0957H66.3799L66.5479 49.0561C67.0401 48.3958 67.8204 47.9797 68.7927 47.9797C70.4293 47.9797 71.6217 49.2241 71.6217 50.9407H71.6257ZM70.8334 50.9807C70.8334 49.6563 69.9651 48.724 68.7287 48.724C67.4923 48.724 66.5359 49.6323 66.5359 50.9447C66.5359 52.2572 67.4562 53.2295 68.7287 53.2295C70.0011 53.2295 70.8334 52.2932 70.8334 50.9847V50.9807Z" fill="#97B6B4"/>
<path d="M79.8444 48.0997V53.8377H79.0521V51.633H77.6116L75.9631 53.8377H75.0547V53.7737L76.7553 51.5409C75.9631 51.3329 75.4709 50.7607 75.4709 49.8924C75.4709 48.748 76.2632 48.0997 77.4956 48.0997H79.8444ZM79.0521 50.9447V48.816H77.5076C76.6233 48.816 76.2632 49.2441 76.2632 49.8924C76.2632 50.5406 76.6273 50.9447 77.5076 50.9447H79.0521Z" fill="#97B6B4"/>
<path d="M89.2677 48.0997V53.8377H88.4755V51.3049H85.2824V53.8377H84.4901V48.0997H85.2824V50.5806H88.4755V48.0997H89.2677Z" fill="#97B6B4"/>
<path d="M93.5013 50.9527C93.5013 49.056 94.8778 47.9676 96.4344 47.9676C97.2666 47.9676 97.9029 48.2277 98.4871 48.7479L98.0309 49.2921C97.5628 48.888 97.1106 48.7079 96.4344 48.7079C95.2419 48.7079 94.3056 49.6042 94.3056 50.9527C94.3056 52.3012 95.2259 53.2375 96.4224 53.2375C97.2026 53.2375 97.6668 52.9894 98.1349 52.5492L98.5751 53.1214C97.9789 53.6776 97.3547 53.9777 96.3543 53.9777C94.9258 53.9777 93.4973 52.9254 93.4973 50.9527H93.5013Z" fill="#97B6B4"/>
<path d="M107.002 53.7697V53.8337H106.013L103.301 51.1728V53.8337H102.508V48.0957H103.301V50.6126L105.781 48.0957H106.742V48.1357L104.017 50.8767L107.002 53.7697Z" fill="#97B6B4"/>
<path d="M109.935 50.9687C109.935 49.2041 111.167 47.9556 112.896 47.9556C114.625 47.9556 115.881 49.2001 115.881 50.9687C115.881 52.7373 114.649 53.9817 112.896 53.9817C111.143 53.9817 109.935 52.7373 109.935 50.9687ZM115.077 50.9687C115.077 49.6442 114.192 48.6959 112.896 48.6959C111.6 48.6959 110.743 49.6442 110.743 50.9687C110.743 52.2932 111.628 53.2415 112.896 53.2415C114.164 53.2415 115.077 52.3052 115.077 50.9687Z" fill="#97B6B4"/>
<path d="M124.928 48.0997V53.8377H124.136V50.3325C124.136 50.1124 124.136 49.8923 124.148 49.6723C123.98 49.8923 123.796 50.1124 123.604 50.3205L120.399 53.8377H120.115V48.0997H120.907V51.5009C120.907 51.761 120.895 52.0211 120.883 52.2652C121.091 52.0051 121.311 51.761 121.531 51.5129L124.648 48.0997H124.932H124.928ZM120.919 45.959L121.399 45.5948C121.659 45.999 122.087 46.2551 122.567 46.2551C123.048 46.2551 123.464 45.995 123.736 45.5948L124.204 45.959C123.868 46.5832 123.284 46.8953 122.567 46.8953C121.851 46.8953 121.271 46.5832 120.919 45.959Z" fill="#97B6B4"/>
<path fill-rule="evenodd" clip-rule="evenodd" d="M74.2976 4.67831V31.8557H74.8538C75.366 31.8557 75.7781 32.2679 75.7781 32.78V37.6857H73.4173L73.0932 34.4446H64.7303L64.4062 37.6857H62.0374L62.0854 33.1002C62.0854 32.3559 62.4895 31.8557 63.0737 31.8557H64.2501C64.2501 31.8557 64.2822 31.2155 64.3062 30.5753L65.3785 4.51824C65.4626 2.48554 67.1391 0.880981 69.1719 0.880981H70.5003C72.597 0.880981 74.2976 2.58158 74.2976 4.67831ZM71.7047 31.8557V4.92238H71.7007C71.7007 4.12211 71.0525 3.47388 70.2522 3.47388H69.464C68.6877 3.47388 68.0515 4.08209 68.0154 4.85836L66.9031 30.2191C66.8831 30.8554 66.855 31.8557 66.855 31.8557H71.7047ZM32.3711 10.6911V6.20158C32.3711 4.59302 32.011 3.30457 31.2987 2.36825C30.5505 1.3799 29.274 0.883736 27.5134 0.883736H26.449C24.6924 0.883736 23.412 1.3799 22.6437 2.36424C21.9155 3.30057 21.5473 4.59302 21.5473 6.20158V29.4576C21.5473 31.0342 21.9155 32.3106 22.6437 33.2469C23.408 34.2313 24.6884 34.7275 26.449 34.7275H27.5134C29.278 34.7275 30.5505 34.2273 31.2987 33.2389C32.007 32.3026 32.3671 31.0302 32.3671 29.4536V22.5392H29.7742V29.6857C29.7742 30.37 29.6061 30.9541 29.254 31.4743C28.9539 31.9185 28.4297 32.1346 27.6494 32.1346H26.265C25.4847 32.1346 24.9605 31.9185 24.6604 31.4743C24.3083 30.9541 24.1402 30.37 24.1402 29.6857V5.92148C24.1402 5.23724 24.3123 4.65304 24.6644 4.12885C24.9605 3.6887 25.4847 3.47263 26.269 3.47263H27.6535C28.4337 3.47263 28.9579 3.68871 29.258 4.13286C29.6101 4.65304 29.7782 5.23724 29.7782 5.92148V10.6911H32.3711ZM9.97546 1.15821L7.29453 21.6373H6.6303C6.12612 21.6373 5.69797 21.2692 5.62195 20.769L2.65292 1.1542H0L3.28114 21.7733C3.50521 23.1858 4.72564 24.2302 6.15813 24.2302H6.90639L6.16614 29.9282C6.09011 30.4924 5.88604 30.9565 5.54592 31.3447C5.24582 31.6888 4.76965 31.8528 4.08141 31.8528H2.04471V34.4457H3.89735C5.40587 34.4457 6.56628 34.0696 7.34254 33.3334C8.10281 32.6091 8.57497 31.6128 8.74703 30.3643L12.6284 1.15821H9.97546ZM94.9399 13.0691C94.1756 12.0687 92.8952 11.5606 91.1306 11.5606H88.5457V1.15696H85.9528V34.4485H91.1346C92.8952 34.4485 94.1756 33.9483 94.9399 32.968C95.6682 32.0317 96.0363 30.7552 96.0363 29.1747V16.8784C96.0363 15.3019 95.6682 14.0174 94.9399 13.0651V13.0691ZM93.4434 16.6503V29.4108C93.4434 30.095 93.2713 30.6832 92.9232 31.1994C92.6231 31.6435 92.0989 31.8596 91.3186 31.8596H88.5457V14.2015H91.3186C92.0989 14.2015 92.6231 14.4176 92.9232 14.8617C93.2753 15.3819 93.4434 15.9661 93.4434 16.6503ZM110.751 11.6087C112.511 11.6087 113.792 12.1089 114.556 13.0892H114.56C115.288 14.0295 115.656 15.302 115.656 16.8825V29.1348C115.656 30.7473 115.288 32.0358 114.56 32.9721C113.796 33.9524 112.515 34.4526 110.755 34.4526H105.573V1.16109H115.284V3.75398H108.166V11.6087H110.751ZM113.06 29.4069V16.6464C113.06 15.9622 112.891 15.378 112.539 14.8578C112.239 14.4137 111.715 14.1976 110.935 14.1976H108.162V31.8117H110.935C111.719 31.8117 112.243 31.5996 112.543 31.1675C112.891 30.6633 113.06 30.0871 113.06 29.4069ZM130.542 0.880981C129.025 0.880981 127.749 2.02137 127.577 3.5299L124.087 34.4526H126.736L127.525 27.4262H133.563L134.351 34.4526H137L133.511 3.5299C133.339 2.02137 132.062 0.880981 130.546 0.880981H130.542ZM130.918 3.814L133.243 24.8293H127.797L130.162 3.814C130.182 3.62194 130.346 3.47388 130.542 3.47388C130.738 3.47388 130.898 3.61794 130.922 3.814H130.918ZM45.0503 3.5299C45.2223 2.02137 46.4988 0.880981 48.0153 0.880981H48.0193C49.5358 0.880981 50.8123 2.02137 50.9843 3.5299L54.4735 34.4526H51.8246L51.0363 27.4262H44.9982L44.21 34.4526H41.5611L45.0503 3.5299ZM50.7162 24.8293L48.3914 3.814H48.3954C48.3714 3.61794 48.2114 3.47388 48.0153 3.47388C47.8192 3.47388 47.6552 3.62194 47.6352 3.814L45.2703 24.8293H50.7162Z" fill="#97B6B4"/>
</svg>
