<svg width="126" height="52" viewBox="0 0 126 52" fill="none" xmlns="http://www.w3.org/2000/svg">
<path d="M15.2881 43.4284V48.7057H14.5594V46.3762H11.6227V48.7057H10.894V43.4284H11.6227V45.7101H14.5594V43.4284H15.2881Z" fill="white"/>
<path d="M23.4912 45.1949V48.7057H22.9539L22.8214 47.7489C22.4386 48.3818 21.7578 48.8014 20.8268 48.8014C19.8 48.8014 19.145 48.242 19.145 47.333C19.145 46.1517 20.2306 45.4709 21.7836 45.4709C22.1774 45.4709 22.4754 45.4819 22.7515 45.5187V45.1618C22.7515 44.422 22.2252 44.0504 21.4156 44.0504C20.8415 44.0504 20.2563 44.216 19.6712 44.492L19.421 43.87C20.1386 43.5351 20.8194 43.3695 21.4855 43.3695C22.6926 43.3695 23.4912 44.0025 23.4912 45.1949ZM22.7515 46.1259C22.4644 46.0891 22.2399 46.0781 21.8903 46.0781C20.6501 46.0781 19.9067 46.5087 19.9067 47.2852C19.9067 47.8114 20.2895 48.1206 20.9445 48.1206C22.0302 48.1206 22.711 47.333 22.7478 46.1259H22.7515Z" fill="white"/>
<path d="M39.8345 47.9881V50.52H39.0469V48.7057H32.7319V50.52H31.9554V47.9881H32.8864C33.3649 47.057 33.674 45.9714 33.8175 44.6208L34.2481 40.5874H38.8556V47.9881H39.8345ZM33.7476 47.9881H38.0828V41.3013H34.9436L34.5719 44.8122C34.4394 46.0192 34.1671 47.057 33.7476 47.9881Z" fill="white"/>
<path d="M47.6916 47.2594C47.6916 48.1794 47.0108 48.702 45.9841 48.702H43.5147V43.4247H45.7817C46.7974 43.4247 47.4414 43.9731 47.4414 44.8232C47.4414 45.4083 47.1654 45.78 46.7127 45.9935C47.3089 46.1591 47.6916 46.5896 47.6916 47.2594ZM44.2397 44.0835V45.6954H45.7669C46.422 45.6954 46.709 45.3237 46.709 44.8821C46.709 44.4405 46.422 44.0835 45.7669 44.0835H44.2397ZM46.963 47.2005C46.963 46.7221 46.6538 46.3541 45.973 46.3541H44.2434V48.0506H45.973C46.6538 48.0506 46.963 47.6937 46.963 47.2042V47.2005Z" fill="white"/>
<path d="M51.1436 46.067C51.1436 44.4441 52.2771 43.2959 53.8669 43.2959C55.4567 43.2959 56.6122 44.4404 56.6122 46.067C56.6122 47.6936 55.4787 48.8382 53.8669 48.8382C52.255 48.8382 51.1436 47.6936 51.1436 46.067ZM55.8725 46.067C55.8725 44.8489 55.0592 43.9767 53.8669 43.9767C52.6745 43.9767 51.887 44.8489 51.887 46.067C51.887 47.2852 52.7003 48.1573 53.8669 48.1573C55.0335 48.1573 55.8725 47.2962 55.8725 46.067Z" fill="white"/>
<path d="M65.8749 46.0413C65.8749 47.6642 64.7782 48.8235 63.262 48.8235C62.3898 48.8235 61.6501 48.4297 61.2085 47.8335C61.2195 48.2383 61.2306 48.7278 61.2306 49.254V51.3296H60.5019V43.4248H61.0502L61.2048 44.308C61.6575 43.7008 62.3751 43.318 63.2694 43.318C64.7745 43.318 65.8712 44.4626 65.8712 46.0413H65.8749ZM65.1462 46.0781C65.1462 44.86 64.3476 44.0025 63.2105 44.0025C62.0733 44.0025 61.1938 44.8379 61.1938 46.045C61.1938 47.2521 62.0402 48.1463 63.2105 48.1463C64.3807 48.1463 65.1462 47.2852 65.1462 46.0818V46.0781Z" fill="white"/>
<path d="M73.4337 43.4284V48.7057H72.705V46.678H71.3802L69.864 48.7057H69.0286V48.6468L70.5926 46.5933C69.864 46.402 69.4113 45.8757 69.4113 45.0771C69.4113 44.0246 70.14 43.4284 71.2735 43.4284H73.4337ZM72.705 46.045V44.0872H71.2845C70.4712 44.0872 70.14 44.481 70.14 45.0771C70.14 45.6733 70.4749 46.045 71.2845 46.045H72.705Z" fill="white"/>
<path d="M82.1004 43.4284V48.7057H81.3717V46.3762H78.435V48.7057H77.7064V43.4284H78.435V45.7101H81.3717V43.4284H82.1004Z" fill="white"/>
<path d="M85.9941 46.0523C85.9941 44.3079 87.26 43.3069 88.6916 43.3069C89.4571 43.3069 90.0422 43.5462 90.5795 44.0246L90.16 44.5251C89.7294 44.1534 89.3135 43.9878 88.6916 43.9878C87.5949 43.9878 86.7338 44.8121 86.7338 46.0523C86.7338 47.2925 87.5802 48.1537 88.6806 48.1537C89.3982 48.1537 89.8251 47.9255 90.2557 47.5207L90.6605 48.0469C90.1121 48.5585 89.538 48.8345 88.618 48.8345C87.3042 48.8345 85.9904 47.8666 85.9904 46.0523H85.9941Z" fill="white"/>
<path d="M98.4106 48.6431V48.702H97.5016L95.0065 46.2547V48.702H94.2778V43.4247H95.0065V45.7395L97.2881 43.4247H98.1714V43.4615L95.6652 45.9824L98.4106 48.6431Z" fill="white"/>
<path d="M101.108 46.067C101.108 44.4441 102.242 43.2959 103.831 43.2959C105.421 43.2959 106.577 44.4404 106.577 46.067C106.577 47.6936 105.443 48.8382 103.831 48.8382C102.22 48.8382 101.108 47.6936 101.108 46.067ZM105.837 46.067C105.837 44.8489 105.024 43.9767 103.831 43.9767C102.639 43.9767 101.852 44.8489 101.852 46.067C101.852 47.2852 102.665 48.1573 103.831 48.1573C104.998 48.1573 105.837 47.2962 105.837 46.067Z" fill="white"/>
<path d="M114.898 43.4284V48.7057H114.169V45.4819C114.169 45.2795 114.169 45.0771 114.18 44.8747C114.026 45.0771 113.856 45.2795 113.68 45.4709L110.732 48.7057H110.471V43.4284H111.199V46.5565C111.199 46.7957 111.188 47.0349 111.177 47.2594C111.369 47.0202 111.571 46.7957 111.773 46.5675L114.64 43.4284H114.901H114.898ZM111.21 41.4595L111.652 41.1247C111.891 41.4963 112.285 41.7319 112.726 41.7319C113.168 41.7319 113.551 41.4927 113.801 41.1247L114.232 41.4595C113.923 42.0336 113.385 42.3207 112.726 42.3207C112.068 42.3207 111.534 42.0336 111.21 41.4595Z" fill="white"/>
<path fill-rule="evenodd" clip-rule="evenodd" d="M68.3318 3.49243V28.4877H68.8434C69.3144 28.4877 69.6935 28.8668 69.6935 29.3378V33.8496H67.5222L67.2241 30.8688H59.5327L59.2346 33.8496H57.056L57.1002 29.6322C57.1002 28.9477 57.4718 28.4877 58.0091 28.4877H59.0911C59.0911 28.4877 59.1205 27.8989 59.1426 27.3101L60.1289 3.34522C60.2062 1.47572 61.7481 0 63.6176 0H64.8394C66.7678 0 68.3318 1.56405 68.3318 3.49243ZM65.9471 28.4877V3.71691H65.9435C65.9435 2.98089 65.3473 2.38471 64.6113 2.38471H63.8863C63.1723 2.38471 62.5872 2.94409 62.5541 3.65803L61.531 26.9826C61.5126 27.5677 61.4868 28.4877 61.4868 28.4877H65.9471ZM29.7719 9.02297V4.89388C29.7719 3.41448 29.4407 2.22948 28.7856 1.36833C28.0974 0.459348 26.9235 0.00301776 25.3042 0.00301776H24.3253C22.7097 0.00301776 21.5321 0.459344 20.8255 1.36465C20.1557 2.2258 19.8172 3.41448 19.8172 4.89388V26.2827C19.8172 27.7326 20.1557 28.9066 20.8255 29.7677C21.5284 30.673 22.7061 31.1294 24.3253 31.1294H25.3042C26.9271 31.1294 28.0974 30.6694 28.7856 29.7604C29.437 28.8992 29.7682 27.729 29.7682 26.279V19.9198H27.3835V26.4924C27.3835 27.1217 27.2289 27.659 26.9051 28.1374C26.6291 28.5459 26.147 28.7447 25.4293 28.7447H24.156C23.4384 28.7447 22.9563 28.5459 22.6803 28.1374C22.3564 27.659 22.2019 27.1217 22.2019 26.4924V4.63627C22.2019 4.00697 22.3601 3.46967 22.684 2.98758C22.9563 2.58277 23.4384 2.38405 24.1597 2.38405H25.433C26.1506 2.38405 26.6327 2.58277 26.9087 2.99126C27.2326 3.46968 27.3872 4.00697 27.3872 4.63627V9.02297H29.7719ZM9.17451 0.253963L6.70884 19.0888H6.09794C5.63425 19.0888 5.24047 18.7502 5.17055 18.2902L2.43991 0.25028H0L3.01769 19.2139C3.22377 20.513 4.34621 21.4735 5.66369 21.4735H6.35187L5.67105 26.7139C5.60113 27.2328 5.41344 27.6597 5.10063 28.0167C4.82462 28.3332 4.38669 28.4841 3.75371 28.4841H1.88054V30.8688H3.58443C4.97183 30.8688 6.03906 30.5229 6.753 29.8457C7.45222 29.1796 7.88647 28.2633 8.04472 27.1151L11.6144 0.253963H9.17451ZM87.3169 11.2099C86.614 10.2899 85.4364 9.82255 83.8135 9.82255H81.4361V0.254271H79.0514V30.8728H83.8171C85.4364 30.8728 86.614 30.4128 87.3169 29.5111C87.9867 28.65 88.3253 27.476 88.3253 26.0224V14.7134C88.3253 13.2635 87.9867 12.0821 87.3169 11.2063V11.2099ZM85.9406 14.5037V26.2395C85.9406 26.8688 85.7823 27.4098 85.4622 27.8845C85.1861 28.293 84.704 28.4917 83.9864 28.4917H81.4361V12.2514H83.9864C84.704 12.2514 85.1861 12.4501 85.4622 12.8586C85.786 13.3371 85.9406 13.8744 85.9406 14.5037ZM101.858 9.86595C103.477 9.86595 104.655 10.326 105.358 11.2276H105.362C106.031 12.0924 106.37 13.2627 106.37 14.7163V25.9848C106.37 27.4679 106.031 28.6529 105.362 29.5141C104.659 30.4157 103.481 30.8757 101.862 30.8757H97.0961V0.257191H106.028V2.64189H99.4808V9.86595H101.858ZM103.982 26.2351V14.4992C103.982 13.8699 103.827 13.3326 103.503 12.8542C103.227 12.4457 102.745 12.247 102.027 12.247H99.4771V28.4468H102.027C102.749 28.4468 103.231 28.2518 103.507 27.8543C103.827 27.3906 103.982 26.8607 103.982 26.2351ZM120.06 0C118.666 0 117.492 1.04883 117.333 2.43623L114.124 30.8761H116.561L117.286 24.4138H122.839L123.564 30.8761H126L122.791 2.43623C122.633 1.04883 121.459 0 120.064 0H120.06ZM120.406 2.69753L122.545 22.0255H117.536L119.711 2.69753C119.729 2.52088 119.88 2.38471 120.06 2.38471C120.241 2.38471 120.388 2.5172 120.41 2.69753H120.406ZM41.433 2.43623C41.5913 1.04883 42.7652 0 44.16 0H44.1637C45.5584 0 46.7324 1.04883 46.8906 2.43623L50.0997 30.8761H47.6635L46.9385 24.4138H41.3852L40.6602 30.8761H38.224L41.433 2.43623ZM46.6441 22.0255L44.5059 2.69753H44.5096C44.4875 2.5172 44.3403 2.38471 44.16 2.38471C43.9797 2.38471 43.8288 2.52088 43.8104 2.69753L41.6354 22.0255H46.6441Z" fill="white"/>
</svg>
