<?xml version="1.0" encoding="UTF-8"?> <svg xmlns="http://www.w3.org/2000/svg" width="177" height="166" viewBox="0 0 177 166" fill="none"> <path fill-rule="evenodd" clip-rule="evenodd" d="M62.332 0.881836C62.332 0.881836 57.4043 2.18359 55.7246 5.31055C55.2383 6.21289 55.0195 7.17969 54.9531 8.09668C54.6855 7.64258 54.3457 7.21973 53.916 6.88184C53.7793 6.77441 53.6367 6.67871 53.4922 6.59375C53.1641 6.40234 52.8164 6.2627 52.4648 6.16406C52.1738 6.08203 51.8809 6.02832 51.5938 5.99414C50.9199 5.91504 50.2832 5.94824 49.8027 6.00488C49.5469 6.03516 49.334 6.07129 49.1855 6.10059L49.0527 6.12891L48.9434 6.15332C48.9434 6.15332 49.0469 9.40625 50.9863 10.9258C51.3691 11.2275 51.7949 11.4375 52.2324 11.5811C52.5078 11.6719 52.7891 11.7363 53.0664 11.7803C53.2559 11.8096 53.4434 11.8301 53.627 11.8428C38.8789 17.6045 27.0352 27.875 19.2129 40.5166C19.1445 39.4756 19.0977 38.4326 19.0684 37.3906C19.0312 36.0527 19.0234 34.7168 19.0293 33.3896C19.0332 32.7656 18.6387 32.4014 18.1484 32.2812C17.3594 32.0869 16.3242 32.5244 16.3164 33.5225C16.3125 34.1348 16.3145 34.749 16.3203 35.3652C16.3242 35.8369 16.332 36.3086 16.3438 36.7803C15.9707 35.8311 15.3867 34.8701 14.4746 34.1699C13.9883 33.7969 13.4414 33.5244 12.877 33.3281C12.1543 33.0771 11.4004 32.9512 10.6973 32.8975C9.06445 32.7744 7.7168 33.0459 7.7168 33.0459C7.7168 33.0459 7.71289 33.4229 7.78125 34.0029C7.83203 34.4287 7.92188 34.9629 8.07812 35.5371C8.20117 35.9893 8.36719 36.4658 8.58984 36.9336C8.96289 37.7148 9.49219 38.4727 10.2461 39.0518C11.0898 39.6992 12.1094 40.042 13.0977 40.2109C14.4766 40.4463 15.793 40.3438 16.4902 40.2549C16.5215 40.751 16.5586 41.2461 16.6016 41.7412C16.6816 42.6758 16.7812 43.6074 16.9043 44.5352C10.2793 56.9922 7.39062 71.3887 9.19922 85.8906C9.10352 85.6777 8.99609 85.4639 8.87695 85.252C8.63867 84.8252 8.35352 84.4062 8.01367 84.0264C7.69141 83.668 7.32031 83.3438 6.89453 83.0801C4.16406 81.3936 0.171875 82.793 0.171875 82.793C0.171875 82.793 0.601562 86.9287 3.32617 88.6152C3.45508 88.6953 3.58789 88.7686 3.72266 88.835C3.82031 88.8828 3.91797 88.9277 4.01953 88.9697C4.10547 89.0059 4.19141 89.04 4.2793 89.0713C4.67578 89.2129 5.08398 89.3076 5.49219 89.3672C5.92383 89.4297 6.35547 89.4512 6.77344 89.4463C6.96875 89.4443 7.16016 89.4355 7.34766 89.4229C7.90039 89.3848 8.4082 89.3057 8.83008 89.2207C9.16992 89.1523 9.45312 89.0801 9.66211 89.0215C9.75586 89.5625 9.85547 90.1035 9.96094 90.6445C10.4648 93.209 11.1172 95.7686 11.9258 98.3154C13.6992 103.897 16.1309 109.146 19.1543 114.011C22.4297 122.682 27.3516 130.487 33.6934 137.106C30.7305 136.721 27.7773 136.116 24.8906 135.441C23.3008 135.069 22.8418 137.748 24.4141 138.115C25.4727 138.362 26.541 138.598 27.6133 138.815C26.6035 138.968 25.5312 139.324 24.6445 140.061C22.1543 142.125 22.0508 146.399 22.0508 146.399C22.0508 146.399 23.752 146.802 25.625 146.489C26.5996 146.326 27.6191 145.97 28.4707 145.263C30.4316 143.636 30.9121 140.638 31.0273 139.439C32.9277 139.745 34.8359 139.977 36.7441 140.099C38.8516 142.041 41.0957 143.862 43.4648 145.556C55.2539 153.977 69.7148 158.617 84.1875 158.617C87.9121 158.617 91.6289 158.318 95.3086 157.725C95.1367 157.84 94.9668 157.964 94.8008 158.096C94.6426 158.222 94.4902 158.355 94.3438 158.498C94.2051 158.632 94.0723 158.772 93.9453 158.921C93.791 159.104 93.6484 159.299 93.5176 159.506C91.9102 162.048 92.9883 165.483 92.9883 165.483C92.9883 165.483 96.666 164.801 98.2676 162.26C98.7285 161.529 98.9688 160.725 99.0762 159.949C99.1172 159.66 99.1387 159.375 99.1465 159.099C99.1699 158.282 99.0703 157.548 98.9727 157.034C100.406 156.725 101.832 156.369 103.25 155.969C103.986 155.761 104.721 155.54 105.453 155.308C116.037 151.947 125.271 146.309 132.779 139.112C133.107 139.447 133.537 139.854 134.053 140.269C134.699 140.789 135.48 141.319 136.355 141.729C137.107 142.082 137.93 142.345 138.799 142.435C142.613 142.836 145.883 139.756 145.883 139.756C145.883 139.756 142.963 136.032 139.148 135.637C137.922 135.508 136.752 135.738 135.729 136.111C137.014 134.722 138.24 133.282 139.404 131.8C140.393 130.54 141.338 129.248 142.236 127.928C147.605 122.811 152.166 116.811 155.699 110.064C159.488 102.833 161.91 95.1484 162.938 87.3125C163.775 86.083 164.566 84.8145 165.316 83.5215C166.031 84.0264 168.834 85.8379 171.504 85.248C172.566 85.0137 173.471 84.4277 174.197 83.7607C174.734 83.2686 175.176 82.7324 175.514 82.2598C176.053 81.5088 176.334 80.917 176.334 80.917C176.334 80.917 173.064 78.3809 169.973 79.0635C168.525 79.3838 167.373 80.3545 166.559 81.2959C166.805 80.8379 167.047 80.377 167.285 79.915L167.752 79.0029L168.025 78.458L168.381 77.7393L168.789 76.8955C169.49 75.4385 167.195 74.1592 166.494 75.6279C165.537 77.6133 164.531 79.6045 163.441 81.5479C163.783 73.7246 162.748 65.8262 160.311 58.1494C159.844 56.6777 159.33 55.2285 158.771 53.8037C158.51 53.1396 158.238 52.4814 157.957 51.8281C156.996 49.5898 155.92 47.416 154.736 45.3135C155.25 45.7861 155.867 46.1943 156.576 46.3955C158.945 47.0664 161.459 45.1846 161.459 45.1846C161.459 45.1846 161.4 45.0557 161.287 44.8447C161.223 44.7217 161.139 44.5713 161.037 44.4033C160.844 44.0869 160.588 43.7061 160.271 43.3232C159.656 42.5811 158.812 41.833 157.764 41.5361C157.396 41.4326 157.027 41.3896 156.664 41.3916C156.369 41.3936 156.078 41.4248 155.797 41.4766C155.582 41.5156 155.373 41.5664 155.172 41.626C155.072 41.6553 154.977 41.6855 154.883 41.7188C154.76 41.7607 154.641 41.8057 154.527 41.8516C154.346 41.9248 154.174 42.002 154.016 42.0791C155.312 41.0254 157.441 38.918 157.988 36.0811C158.791 31.9219 155.344 27.4248 155.344 27.4248C155.344 27.4248 151.689 30.3672 150.887 34.5264C150.465 36.7139 151.068 38.8984 151.734 40.4775C145.438 31.2363 136.873 23.6553 126.604 18.3955C124.199 17.1621 121.744 16.0947 119.25 15.166C118.492 15.9121 117.684 16.6055 116.822 17.248C119.736 18.2578 122.588 19.4512 125.342 20.8623C140.922 28.8418 152.4 42.3857 157.672 58.9922C162.943 75.5996 161.373 93.2852 153.244 108.791C151.867 111.424 150.312 113.925 148.627 116.312C155.006 101.562 156.312 84.5947 151.104 68.1709C150.105 65.0273 148.891 61.9873 147.479 59.0674C147.174 57.9141 146.842 56.7607 146.48 55.6133C141.387 39.5684 130.844 26.209 116.547 17.4492L116.348 17.5977L116.146 17.7471C115.787 17.998 115.418 18.2334 115.043 18.4561C114.674 18.6768 114.299 18.8848 113.92 19.084C115.676 20.1104 117.391 21.2061 119.049 22.3936C128.066 28.8359 135.186 37.2109 140.01 46.9463C133.877 39.0127 126.008 32.4502 116.771 27.7168C111.711 25.124 106.434 23.1855 101.043 21.8945C99.7637 21.8369 98.4902 21.7285 97.1934 21.6484L95.627 23.6562C105.775 25.3311 115.555 29.3174 123.93 35.3008C132.977 41.7656 140.09 50.1982 144.863 60.002C147.744 71.1758 147.588 82.5127 144.875 93.0977C144.84 92.6484 144.764 92.1895 144.625 91.7383C144.516 91.3789 144.369 91.0234 144.174 90.6807C143.842 90.0977 143.375 89.6064 142.844 89.1943C142.283 88.7588 141.65 88.4121 141.029 88.1377C139.42 87.4268 137.887 87.2041 137.887 87.2041C137.887 87.2041 137.021 90.6289 138.604 93.417C138.67 93.5332 138.74 93.6465 138.814 93.7568C138.938 93.9375 139.07 94.1094 139.211 94.2725L139.432 94.5146L139.559 94.6445L139.688 94.7686C140.061 95.1152 140.465 95.417 140.877 95.6768L141.209 95.8779L141.406 95.9893L141.617 96.1025C140.861 95.9824 140.014 95.9893 139.203 96.2959C136.879 97.1797 135.795 100.696 135.795 100.696C135.795 100.696 138.312 101.763 140.637 100.885C141.197 100.672 141.689 100.335 142.115 99.9473C142.258 99.8174 142.393 99.6816 142.52 99.543L142.689 99.3525L142.881 99.1191C142.982 98.9912 143.076 98.8633 143.166 98.7373C136.34 118.134 120.723 134.27 99.5332 140.995C95.3809 142.314 91.1406 143.227 86.8613 143.731C75.8887 142.412 65.2285 138.322 56.2227 131.892C46.8633 125.208 39.6055 116.383 34.9316 106.092C35.2578 103.86 35.4453 101.596 35.541 99.3311C35.7578 99.3643 36.082 99.4053 36.4766 99.4326C36.6543 99.4443 36.8477 99.4541 37.0527 99.458C37.5078 99.4668 38.0195 99.4502 38.5508 99.3848C39.6426 99.25 40.8203 98.9082 41.7676 98.1553C44.2461 96.1875 44.2129 92.1494 44.2129 92.1494C44.2129 92.1494 40.1621 91.3057 37.6836 93.2734C36.5488 94.1748 35.9414 95.5107 35.6152 96.6943L35.625 95.8242L35.6289 95.2158L35.625 94.1338C35.6133 92.5156 32.998 92.3721 33.0039 94.001C33.0137 96.2871 32.9785 98.5986 32.8379 100.902C32.5938 100.216 32.3613 99.5234 32.1406 98.8262C26.8809 82.248 28.459 64.5625 36.5996 49.04C39.4785 43.5498 43.0645 38.5762 47.2227 34.1875C52.4609 30.6885 58.2188 27.8955 64.3926 25.9336C68.9238 24.4932 73.5586 23.5527 78.2402 23.0879C79.7305 22.0615 81.2344 21.0342 82.7305 20.0186C76.3008 20.2197 69.8594 21.292 63.5547 23.2949C61.3105 24.0059 59.125 24.8203 56.9922 25.7383C62.4824 21.8721 68.5859 18.8145 75.1699 16.7207C80.1504 15.1426 85.2441 14.1504 90.373 13.7666L90.6426 12.9668C90.8789 12.2871 91.125 11.6133 91.3828 10.9492C85.6621 11.2764 79.9375 12.3037 74.3281 14.082C63.1641 17.627 53.3027 23.8164 45.4219 32.0479C35.9102 38.4619 28.0801 47.1641 22.6191 57.5869C15.6426 70.8955 13.2168 85.7012 15.4824 100.181C15.3105 99.71 15.1426 99.2383 14.9805 98.7637L14.7852 98.1807L14.5586 97.4727C9.13867 80.3955 10.7676 62.1875 19.1484 46.2002C27.5293 30.2129 41.6348 18.3955 58.873 12.9229C65.5898 10.7891 72.5371 9.71094 79.5195 9.71094C83.5117 9.71094 87.5039 10.0947 91.4395 10.8066C91.7891 9.91113 92.1562 9.02832 92.5586 8.16211C81.918 6.15039 70.9062 6.60938 60.2422 9.62012C60.7109 9.1543 61.1348 8.62012 61.4609 8.0127C61.8809 7.22949 62.1465 6.3916 62.3066 5.5752C62.4199 4.99609 62.4824 4.42773 62.5098 3.89746C62.5234 3.65625 62.5293 3.42285 62.5293 3.2002C62.5273 2.84277 62.5137 2.5127 62.4941 2.21973C62.4707 1.87695 62.4375 1.58594 62.4082 1.36328C62.3672 1.05762 62.332 0.881836 62.332 0.881836ZM25.0801 58.8721C16.791 74.6875 15.1797 92.7061 20.543 109.605C20.7285 110.202 20.9277 110.793 21.1348 111.379C21.2969 111.841 21.4629 112.3 21.6328 112.755C26.2109 120.046 32.1816 126.401 39.3633 131.536C49.752 138.959 62.2871 143.342 75.0215 144.087C67.7363 141.913 60.7949 138.568 54.6055 134.146C42.627 125.581 33.9434 113.661 29.502 99.6641C24.0195 82.3799 25.6641 63.9482 34.1426 47.7666C34.623 46.8477 35.123 45.9453 35.6406 45.0566C36.2012 44.0977 36.7832 43.1543 37.3848 42.2246C32.5078 47.0488 28.3496 52.6367 25.0801 58.8721ZM84.1875 155.847C90.9512 155.847 97.8242 154.826 104.615 152.669C115.359 149.262 124.637 143.404 132.053 135.936C126.965 139.211 121.412 141.844 115.486 143.726C108.787 145.849 101.857 146.943 94.8867 146.973H94.3125C91.8359 146.961 89.3516 146.801 86.8848 146.52C86.1406 146.604 85.3965 146.678 84.6504 146.739C83.6152 146.825 82.5781 146.888 81.541 146.928C80.6582 146.961 79.7734 146.979 78.8887 146.979C64.2715 146.979 49.6602 142.292 37.752 133.784C34.166 131.22 30.873 128.352 27.8848 125.237C40.1152 144.299 61.4883 155.847 84.1875 155.847ZM114.643 141.087C124.291 138.023 132.92 132.912 140.061 126.184C150.271 111.074 154.23 92 149.658 73.3223C151.115 104.287 131.537 133.744 100.365 143.64C99.9062 143.789 99.4414 143.915 98.9766 144.053C101.949 143.854 104.908 143.455 107.836 142.857C109.111 142.598 110.379 142.3 111.641 141.964C112.285 141.792 112.928 141.61 113.566 141.418L113.988 141.29L114.643 141.087Z" fill="#D6AE9F"></path> </svg> 