<svg display="none" xmlns="http://www.w3.org/2000/svg">

	<symbol id="star" viewBox="0 0 32 30">
		<path
			d="M16 0L20.964 9.84856L32 11.459L24.032 19.1561L25.8885 30L16 24.9086L6.11146 30L7.968 19.1561L0 11.459L11.036 9.84856L16 0Z" />
	</symbol>


	<symbol id="whatsapp" viewBox="0 0 32 33">
		<path
			d="M16.004 0.5H15.996C7.174 0.5 0 7.676 0 16.5C0 20 1.128 23.244 3.046 25.878L1.052 31.822L7.202 29.856C9.732 31.532 12.75 32.5 16.004 32.5C24.826 32.5 32 25.322 32 16.5C32 7.678 24.826 0.5 16.004 0.5ZM25.314 23.094C24.928 24.184 23.396 25.088 22.174 25.352C21.338 25.53 20.246 25.672 16.57 24.148C11.868 22.2 8.84 17.422 8.604 17.112C8.378 16.802 6.704 14.582 6.704 12.286C6.704 9.99 7.87 8.872 8.34 8.392C8.726 7.998 9.364 7.818 9.976 7.818C10.174 7.818 10.352 7.828 10.512 7.836C10.982 7.856 11.218 7.884 11.528 8.626C11.914 9.556 12.854 11.852 12.966 12.088C13.08 12.324 13.194 12.644 13.034 12.954C12.884 13.274 12.752 13.416 12.516 13.688C12.28 13.96 12.056 14.168 11.82 14.46C11.604 14.714 11.36 14.986 11.632 15.456C11.904 15.916 12.844 17.45 14.228 18.682C16.014 20.272 17.462 20.78 17.98 20.996C18.366 21.156 18.826 21.118 19.108 20.818C19.466 20.432 19.908 19.792 20.358 19.162C20.678 18.71 21.082 18.654 21.506 18.814C21.938 18.964 24.224 20.094 24.694 20.328C25.164 20.564 25.474 20.676 25.588 20.874C25.7 21.072 25.7 22.002 25.314 23.094Z" />
	</symbol>


	<symbol id="burger" viewBox="0 0 50 40">
		<path
			d="M0 3.2C0 1.43269 1.44424 0 3.22581 0H46.7742C48.5558 0 50 1.43269 50 3.2C50 4.96731 48.5558 6.4 46.7742 6.4H3.22581C1.44424 6.4 0 4.96731 0 3.2Z" />
		<path
			d="M0 20C0 18.2327 1.44424 16.8 3.22581 16.8H46.7742C48.5558 16.8 50 18.2327 50 20C50 21.7673 48.5558 23.2 46.7742 23.2H3.22581C1.44424 23.2 0 21.7673 0 20Z" />
		<path
			d="M0 36.8C0 35.0327 1.44424 33.6 3.22581 33.6H46.7742C48.5558 33.6 50 35.0327 50 36.8C50 38.5673 48.5558 40 46.7742 40H3.22581C1.44424 40 0 38.5673 0 36.8Z" />
	</symbol>

	<symbol id="vk" viewBox="0 0 44 27">
		<path
			d="M36.5121 15.4826C35.8007 14.5376 36.0042 14.1171 36.5121 13.2724C36.5213 13.2628 42.3936 4.72693 42.9987 1.83214L43.0023 1.83021C43.303 0.775286 43.0023 0 41.5484 0H36.7376C35.5129 0 34.9482 0.665357 34.6457 1.40979C34.6457 1.40979 32.1963 7.57736 28.7312 11.5753C27.6128 12.7305 27.0958 13.1008 26.4853 13.1008C26.1846 13.1008 25.7171 12.7305 25.7171 11.6756V1.83021C25.7171 0.565071 25.3742 0 24.3603 0H16.7957C16.0276 0 15.571 0.590143 15.571 1.13979C15.571 2.33936 17.3036 2.61514 17.4833 5.99014V13.3129C17.4833 14.9175 17.2064 15.2126 16.5922 15.2126C14.9569 15.2126 10.9875 9.01993 8.6353 1.93243C8.16045 0.557357 7.6966 0.00192843 6.46272 0.00192843H1.65006C0.276843 0.00192843 0 0.667285 0 1.41171C0 2.727 1.63539 9.26679 7.60493 17.9068C11.5834 23.8044 17.1863 27 22.2831 27C25.3467 27 25.7207 26.2903 25.7207 25.0695C25.7207 19.4342 25.4439 18.9019 26.9784 18.9019C27.6898 18.9019 28.9145 19.2722 31.7746 22.1169C35.0435 25.4899 35.5807 27 37.4105 27H42.2213C43.5927 27 44.2875 26.2903 43.8879 24.8901C42.973 21.9452 36.7908 15.8876 36.5121 15.4826Z" />
	</symbol>

	<symbol id="telegram" viewBox="0 0 38 31">
		<path
			d="M36.3289 13.3391C35.1659 20.539 33.902 28.4096 33.902 28.4096C33.902 28.4096 33.7071 30.6181 32.0567 31C30.2885 30.9732 28.5796 30.3656 27.1996 29.2731C26.8097 28.9842 19.9122 24.6669 17.3879 22.5548C17.1304 22.3831 16.9212 22.1497 16.7798 21.8765C16.6383 21.6032 16.5692 21.299 16.5789 20.9923C16.5887 20.6855 16.6769 20.3862 16.8354 20.1223C16.9939 19.8583 17.2175 19.6384 17.4854 19.4829C20.9454 16.3472 24.3454 13.1474 27.6836 9.88534C28.85 8.73297 30.0163 6.04632 25.1593 9.31082C18.2618 14.0133 11.4619 18.4268 11.4619 18.4268C10.7616 18.739 10.0047 18.9084 9.23658 18.925C8.46844 18.9415 7.70482 18.8049 6.99138 18.5232C4.07712 17.6597 0.678839 16.5073 0.678839 16.5073C0.678839 16.5073 -1.65391 15.0694 2.32924 13.5185C2.32924 13.5185 19.1358 6.70387 24.9643 4.30614C27.1996 3.34638 34.776 0.274492 34.776 0.274492C34.776 0.274492 38.2751 -1.0705 37.9826 2.194C37.8852 3.55227 37.1087 8.25475 36.3289 13.3391Z" />
	</symbol>

	<symbol id="viber" viewBox="0 0 32 34">
		<path
			d="M31.1833 19.6831C32.1922 11.1524 30.6986 5.76671 28.0044 3.33077L28.0058 3.32936C23.6574 -0.830556 8.97176 -1.44626 3.76938 3.51619C1.4331 5.94364 0.610186 9.50624 0.520004 13.9167C0.429822 18.3285 0.322731 26.5932 7.98962 28.8352H7.99667L7.98962 32.2591C7.98962 32.2591 7.93748 33.6462 8.81958 33.925C9.82849 34.2534 10.285 33.6094 13.4231 29.8444C18.6706 30.3016 22.7006 29.2542 23.1585 29.1013C24.2182 28.7446 30.2139 27.9477 31.1833 19.6831ZM13.9402 27.4353C13.9402 27.4353 10.619 31.5953 9.58613 32.6752C9.24794 33.0262 8.87735 32.9937 8.88299 32.2973C8.88299 31.8401 8.90835 26.613 8.90835 26.613C2.40819 24.7418 2.79147 17.7043 2.86192 14.0228C2.93238 10.3399 3.60311 7.32367 5.58148 5.29254C10.1455 0.993918 23.0204 1.95499 26.3008 5.05192C30.3111 8.62302 28.8837 18.7121 28.8921 19.0561C28.0678 25.9548 23.2093 26.3922 22.3159 26.6908C21.934 26.8182 18.3902 27.734 13.9402 27.4353Z" />
		<path
			d="M15.7777 6.10075C15.2352 6.10075 15.2352 6.95 15.7777 6.95708C19.9867 6.98963 23.453 9.93653 23.4911 15.342C23.4911 15.9124 24.3224 15.9054 24.3154 15.3349H24.314C24.2689 9.51049 20.4841 6.13331 15.7777 6.10075Z" />
		<path
			d="M21.314 14.446C21.3013 15.0094 22.1313 15.0363 22.1383 14.4659C22.2074 11.2543 20.2361 8.60885 16.5316 8.33001C15.9891 8.29038 15.9327 9.14671 16.4738 9.18634C19.6865 9.43121 21.3788 11.6336 21.314 14.446Z" />
		<path
			d="M20.4263 18.0992C19.7302 17.6944 19.0214 17.9464 18.7283 18.3441L18.1154 19.141C17.804 19.5458 17.222 19.492 17.222 19.492C12.975 18.3639 11.8393 13.8997 11.8393 13.8997C11.8393 13.8997 11.7871 13.2953 12.176 12.9712L12.9426 12.3342C13.3259 12.0285 13.5682 11.2925 13.1779 10.5692C12.1352 8.6768 11.4349 8.02429 11.0784 7.52324C10.7035 7.0519 10.1399 6.94574 9.55372 7.26421H9.54103C8.32217 7.98042 6.98775 9.32082 7.41471 10.7008C8.14321 12.1559 9.48185 16.7942 13.7486 20.2988C15.7537 21.9563 18.927 23.6548 20.2741 24.0468L20.2868 24.0666C21.6142 24.5111 22.9049 23.1183 23.5939 21.8572V21.8473C23.8997 21.2372 23.7983 20.6597 23.3516 20.2818C22.5597 19.5062 21.3648 18.6498 20.4263 18.0992Z" />
		<path
			d="M17.1121 11.4892C18.4662 11.5685 19.1229 12.279 19.1933 13.7383C19.2187 14.3087 20.043 14.2691 20.0177 13.6987C19.9275 11.7935 18.9383 10.732 17.1572 10.6329C16.6147 10.6003 16.564 11.4567 17.1121 11.4892Z" />
	</symbol>


	<symbol id="star" viewBox="0 0 32 30">
		<path
			d="M16 0L20.964 9.84856L32 11.459L24.032 19.1561L25.8885 30L16 24.9086L6.11146 30L7.968 19.1561L0 11.459L11.036 9.84856L16 0Z" />
	</symbol>

	<symbol id="close" viewBox="0 0 27 27">
		<path
			d="M13.548 9.27224L17.2473 5.2847L22.532 0L27 4.46797L21.7153 9.75267L17.6797 13.4039L21.6673 16.8149L26.9039 22.0516L22.3879 26.5676L17.1512 21.331L13.5961 17.4875L10.0409 21.427L4.46797 27L0 22.532L5.57295 16.9591L9.46441 13.3559L4.9484 9.12811L0.432384 4.6121L4.9484 0.0960842L9.46441 4.6121L13.548 9.27224Z" />
	</symbol>

	<symbol id="basket" viewBox="0 0 45 34">
		<path
			d="M38.9152 10.7635L34.3793 24.7469C34.0402 25.7427 33.15 26.4066 32.0902 26.4066H14.5826C13.5652 26.4066 12.5902 25.7842 12.2511 24.8714L5.55326 7.3195H1.69565C0.763043 7.3195 0 6.57261 0 5.65975C0 4.74689 0.763043 4 1.69565 4H6.74022C7.46087 4 8.09674 4.45643 8.35109 5.12033L15.2609 23.0871H31.3696L34.9728 11.8838H15.0065C14.0739 11.8838 13.3109 11.1369 13.3109 10.2241C13.3109 9.3112 14.0739 8.56431 15.0065 8.56431H37.3043C37.8554 8.56431 38.3641 8.85477 38.6609 9.26971C39 9.68465 39.0848 10.2656 38.9152 10.7635ZM15.4304 28.6058C14.7098 28.6058 13.9891 28.8963 13.4804 29.3942C12.9717 29.8921 12.675 30.5975 12.675 31.3029C12.675 32.0083 12.9717 32.7137 13.4804 33.2116C13.9891 33.7095 14.7098 34 15.4304 34C16.1511 34 16.8717 33.7095 17.3804 33.2116C17.8891 32.7137 18.1859 32.0083 18.1859 31.3029C18.1859 30.5975 17.8891 29.8921 17.3804 29.3942C16.8717 28.8963 16.1511 28.6058 15.4304 28.6058ZM30.6489 28.6058C29.9283 28.6058 29.2076 28.8963 28.6989 29.3942C28.1902 29.8921 27.8935 30.5975 27.8935 31.3029C27.8935 32.0083 28.1902 32.7137 28.6989 33.2116C29.2076 33.7095 29.9283 34 30.6489 34C31.3696 34 32.0902 33.7095 32.5989 33.2116C33.1076 32.7137 33.4043 32.0083 33.4043 31.3029C33.4043 30.5975 33.1076 29.8921 32.5989 29.3942C32.0902 28.8963 31.3696 28.6058 30.6489 28.6058Z" />
	</symbol>

	<symbol id="arrow-bottom" viewBox="0 0 28 16">
		<path d="M26 1.5L14 12.5L2 1.5" stroke-width="4" />
	</symbol>
	<symbol id="prev" viewBox="0 0 32 58">
		<path d="M29.8691 55.7401L2.99908 28.8701L29.8691 2" stroke-width="4" />
	</symbol>

	<symbol id="next" viewBox="0 0 32 58">
		<path d="M1.86914 2L28.7392 28.8701L1.86914 55.7401" stroke-width="4" />
	</symbol>

</svg>