<svg display="none" xmlns="http://www.w3.org/2000/svg">

	<symbol id="star" viewBox="0 0 32 30">
		<path
			d="M16 0L20.964 9.84856L32 11.459L24.032 19.1561L25.8885 30L16 24.9086L6.11146 30L7.968 19.1561L0 11.459L11.036 9.84856L16 0Z" />
	</symbol>


	<symbol id="whatsapp" viewBox="0 0 32 33">
		<path
			d="M16.004 0.5H15.996C7.174 0.5 0 7.676 0 16.5C0 20 1.128 23.244 3.046 25.878L1.052 31.822L7.202 29.856C9.732 31.532 12.75 32.5 16.004 32.5C24.826 32.5 32 25.322 32 16.5C32 7.678 24.826 0.5 16.004 0.5ZM25.314 23.094C24.928 24.184 23.396 25.088 22.174 25.352C21.338 25.53 20.246 25.672 16.57 24.148C11.868 22.2 8.84 17.422 8.604 17.112C8.378 16.802 6.704 14.582 6.704 12.286C6.704 9.99 7.87 8.872 8.34 8.392C8.726 7.998 9.364 7.818 9.976 7.818C10.174 7.818 10.352 7.828 10.512 7.836C10.982 7.856 11.218 7.884 11.528 8.626C11.914 9.556 12.854 11.852 12.966 12.088C13.08 12.324 13.194 12.644 13.034 12.954C12.884 13.274 12.752 13.416 12.516 13.688C12.28 13.96 12.056 14.168 11.82 14.46C11.604 14.714 11.36 14.986 11.632 15.456C11.904 15.916 12.844 17.45 14.228 18.682C16.014 20.272 17.462 20.78 17.98 20.996C18.366 21.156 18.826 21.118 19.108 20.818C19.466 20.432 19.908 19.792 20.358 19.162C20.678 18.71 21.082 18.654 21.506 18.814C21.938 18.964 24.224 20.094 24.694 20.328C25.164 20.564 25.474 20.676 25.588 20.874C25.7 21.072 25.7 22.002 25.314 23.094Z" />
	</symbol>


	<symbol id="burger" viewBox="0 0 50 40">
		<path
			d="M0 3.2C0 1.43269 1.44424 0 3.22581 0H46.7742C48.5558 0 50 1.43269 50 3.2C50 4.96731 48.5558 6.4 46.7742 6.4H3.22581C1.44424 6.4 0 4.96731 0 3.2Z" />
		<path
			d="M0 20C0 18.2327 1.44424 16.8 3.22581 16.8H46.7742C48.5558 16.8 50 18.2327 50 20C50 21.7673 48.5558 23.2 46.7742 23.2H3.22581C1.44424 23.2 0 21.7673 0 20Z" />
		<path
			d="M0 36.8C0 35.0327 1.44424 33.6 3.22581 33.6H46.7742C48.5558 33.6 50 35.0327 50 36.8C50 38.5673 48.5558 40 46.7742 40H3.22581C1.44424 40 0 38.5673 0 36.8Z" />
	</symbol>

	<symbol id="vk" viewBox="0 0 44 27">
		<path
			d="M36.5121 15.4826C35.8007 14.5376 36.0042 14.1171 36.5121 13.2724C36.5213 13.2628 42.3936 4.72693 42.9987 1.83214L43.0023 1.83021C43.303 0.775286 43.0023 0 41.5484 0H36.7376C35.5129 0 34.9482 0.665357 34.6457 1.40979C34.6457 1.40979 32.1963 7.57736 28.7312 11.5753C27.6128 12.7305 27.0958 13.1008 26.4853 13.1008C26.1846 13.1008 25.7171 12.7305 25.7171 11.6756V1.83021C25.7171 0.565071 25.3742 0 24.3603 0H16.7957C16.0276 0 15.571 0.590143 15.571 1.13979C15.571 2.33936 17.3036 2.61514 17.4833 5.99014V13.3129C17.4833 14.9175 17.2064 15.2126 16.5922 15.2126C14.9569 15.2126 10.9875 9.01993 8.6353 1.93243C8.16045 0.557357 7.6966 0.00192843 6.46272 0.00192843H1.65006C0.276843 0.00192843 0 0.667285 0 1.41171C0 2.727 1.63539 9.26679 7.60493 17.9068C11.5834 23.8044 17.1863 27 22.2831 27C25.3467 27 25.7207 26.2903 25.7207 25.0695C25.7207 19.4342 25.4439 18.9019 26.9784 18.9019C27.6898 18.9019 28.9145 19.2722 31.7746 22.1169C35.0435 25.4899 35.5807 27 37.4105 27H42.2213C43.5927 27 44.2875 26.2903 43.8879 24.8901C42.973 21.9452 36.7908 15.8876 36.5121 15.4826Z" />
	</symbol>

	<symbol id="telegram" viewBox="0 0 38 31">
		<path
			d="M36.3289 13.3391C35.1659 20.539 33.902 28.4096 33.902 28.4096C33.902 28.4096 33.7071 30.6181 32.0567 31C30.2885 30.9732 28.5796 30.3656 27.1996 29.2731C26.8097 28.9842 19.9122 24.6669 17.3879 22.5548C17.1304 22.3831 16.9212 22.1497 16.7798 21.8765C16.6383 21.6032 16.5692 21.299 16.5789 20.9923C16.5887 20.6855 16.6769 20.3862 16.8354 20.1223C16.9939 19.8583 17.2175 19.6384 17.4854 19.4829C20.9454 16.3472 24.3454 13.1474 27.6836 9.88534C28.85 8.73297 30.0163 6.04632 25.1593 9.31082C18.2618 14.0133 11.4619 18.4268 11.4619 18.4268C10.7616 18.739 10.0047 18.9084 9.23658 18.925C8.46844 18.9415 7.70482 18.8049 6.99138 18.5232C4.07712 17.6597 0.678839 16.5073 0.678839 16.5073C0.678839 16.5073 -1.65391 15.0694 2.32924 13.5185C2.32924 13.5185 19.1358 6.70387 24.9643 4.30614C27.1996 3.34638 34.776 0.274492 34.776 0.274492C34.776 0.274492 38.2751 -1.0705 37.9826 2.194C37.8852 3.55227 37.1087 8.25475 36.3289 13.3391Z"/>
	</symbol>

</svg>