<svg width="34" height="29" viewBox="0 0 34 29" fill="none" xmlns="http://www.w3.org/2000/svg">
<path d="M32.5048 12.4785C31.4642 19.2139 30.3334 26.5768 30.3334 26.5768C30.3334 26.5768 30.1589 28.6427 28.6823 29C27.1002 28.9749 25.5712 28.4065 24.3365 27.3845C23.9876 27.1142 17.8162 23.0755 15.5576 21.0997C15.3272 20.939 15.14 20.7207 15.0135 20.4651C14.8869 20.2095 14.8251 19.9249 14.8338 19.6379C14.8425 19.351 14.9215 19.071 15.0633 18.8241C15.2051 18.5771 15.4052 18.3714 15.6448 18.226C18.7406 15.2925 21.7827 12.2992 24.7695 9.24758C25.8131 8.16955 26.8567 5.65623 22.5109 8.71012C16.3395 13.1092 10.2554 17.238 10.2554 17.238C9.62878 17.53 8.95158 17.6885 8.26431 17.704C7.57703 17.7195 6.89379 17.5917 6.25544 17.3281C3.64795 16.5204 0.607382 15.4423 0.607382 15.4423C0.607382 15.4423 -1.47981 14.0971 2.08406 12.6463C2.08406 12.6463 17.1215 6.27136 22.3365 4.02832C24.3365 3.13048 31.1153 0.256783 31.1153 0.256783C31.1153 0.256783 34.2461 -1.00143 33.9845 2.05245C33.8972 3.3231 33.2025 7.72219 32.5048 12.4785Z" fill="white"/>
</svg>
