<?xml version="1.0" encoding="UTF-8"?> <svg xmlns="http://www.w3.org/2000/svg" width="197" height="54" viewBox="0 0 197 54" fill="none"> <path fill-rule="evenodd" clip-rule="evenodd" d="M106.514 6.43262V45.3945H107.311C108.045 45.3945 108.637 45.9854 108.637 46.7197V53.752H105.252L104.787 49.1055H92.7988L92.334 53.752H88.9375L89.0059 47.1787C89.0059 46.4883 89.248 45.9443 89.6484 45.6465C89.748 45.5713 89.8574 45.5117 89.9766 45.4697C90.1152 45.4199 90.2656 45.3945 90.4238 45.3945H92.1094C92.1094 45.3945 92.1562 44.4766 92.1895 43.5586L93.7266 6.20312C93.8477 3.28906 96.252 0.988281 99.166 0.988281H101.07C104.076 0.988281 106.514 3.42676 106.514 6.43262ZM102.797 45.3945V6.78223C102.791 5.63477 101.861 4.70508 100.715 4.70508H99.584C98.4707 4.70508 97.5586 5.57715 97.5078 6.69043L95.9121 43.0479L95.8438 45.3945H102.797ZM46.4082 15.0537V8.61719C46.4082 7.30957 46.2422 6.14941 45.9121 5.14551C45.6602 4.37891 45.3125 3.70312 44.8711 3.12109C43.7969 1.7041 41.9668 0.993164 39.4434 0.993164H37.918C37.5645 0.993164 37.2246 1.00684 36.8984 1.03516C36.6328 1.05762 36.377 1.08984 36.1309 1.13086C35.9961 1.15332 35.8652 1.17773 35.7363 1.20605C35.0742 1.34863 34.4824 1.56348 33.9629 1.84961C33.3652 2.17773 32.8652 2.59961 32.4629 3.11523C31.418 4.45801 30.8906 6.31055 30.8906 8.61719V41.957C30.8906 42.2695 30.9004 42.5732 30.9199 42.8691L30.9551 43.2764C31.0098 43.8125 31.0996 44.3203 31.2246 44.7969C31.4844 45.7969 31.8984 46.6641 32.4629 47.3896C33.5586 48.8008 35.3945 49.5117 37.918 49.5117H39.4434C41.9727 49.5117 43.7969 48.7949 44.8711 47.3779C45.8848 46.0361 46.4023 44.2119 46.4023 41.9512V32.0391H42.6855V42.2842C42.6855 43.2646 42.4434 44.1025 41.9395 44.8486C41.5098 45.4854 40.7578 45.7949 39.6387 45.7949H37.6543C36.5352 45.7949 35.7832 45.4854 35.3535 44.8486C35.2871 44.751 35.2266 44.6523 35.1699 44.5518C34.9707 44.1973 34.8223 43.8223 34.7305 43.4209C34.6992 43.2842 34.6738 43.1445 34.6543 43.001C34.6348 42.8545 34.6211 42.7041 34.6133 42.5508L34.6074 42.2842V8.21582C34.6074 7.23438 34.8555 6.39648 35.3594 5.64551C35.7832 5.01465 36.5352 4.70508 37.6602 4.70508H39.6445C40.7637 4.70508 41.5137 5.01465 41.9453 5.65137C42.4492 6.39648 42.6914 7.23438 42.6914 8.21582V15.0537H46.4082ZM14.3008 1.38379L10.457 30.7432H9.50586C8.7832 30.7432 8.16797 30.2148 8.06055 29.498L3.80273 1.37793H0L4.70312 30.9375C5.02539 32.9629 6.77539 34.46 8.82812 34.46H9.90039L8.83984 42.6289C8.73047 43.4375 8.4375 44.1035 7.95117 44.6592C7.51953 45.1533 6.83789 45.3877 5.85156 45.3877H2.93164V49.1055H5.58789C7.75 49.1055 9.41406 48.5664 10.5273 47.5107L10.709 47.3291L10.7852 47.25C10.9297 47.0947 11.0664 46.9307 11.1934 46.7598C11.3691 46.5254 11.5273 46.2764 11.6719 46.0127C12.1055 45.2207 12.3945 44.2988 12.5391 43.2539L18.1035 1.38379H14.3008ZM136.109 18.4609C135.014 17.0273 133.178 16.2988 130.648 16.2988H126.941V1.38379H123.225V49.1113H130.654C133.178 49.1113 135.014 48.3945 136.109 46.9883C136.59 46.3711 136.961 45.6504 137.221 44.832C137.336 44.4688 137.43 44.0859 137.502 43.6836C137.621 43.0234 137.68 42.3115 137.68 41.5508V23.9219C137.68 23.1172 137.613 22.3652 137.48 21.6689C137.238 20.4102 136.781 19.334 136.109 18.4609ZM133.963 23.5957V41.8887C133.963 42.8701 133.717 43.7129 133.217 44.4531C132.787 45.0898 132.035 45.3994 130.918 45.3994H126.941V20.085H130.918C131.58 20.085 132.113 20.1934 132.527 20.415L132.643 20.4814C132.693 20.5127 132.742 20.5469 132.789 20.582C132.955 20.708 133.098 20.8574 133.217 21.0312C133.723 21.7773 133.963 22.6143 133.963 23.5957ZM158.775 16.3672C161.299 16.3672 163.135 17.085 164.23 18.4902C165.279 19.8379 165.807 21.6621 165.807 23.9277V41.4932C165.807 43.8047 165.279 45.6523 164.236 46.9941C163.6 47.8115 162.713 48.3955 161.588 48.7412C161.432 48.7891 161.271 48.832 161.107 48.8711C160.412 49.0352 159.635 49.1172 158.781 49.1172H151.352V1.38965H165.273V5.10645H155.068V16.3672H158.775ZM162.084 41.8838V23.5898C162.084 23.0605 162.014 22.5732 161.871 22.1191C161.748 21.7324 161.57 21.3691 161.338 21.0254C160.908 20.3887 160.156 20.0791 159.039 20.0791H155.062V45.3311H159.039C160.162 45.3311 160.914 45.0273 161.344 44.4072C161.592 44.0498 161.775 43.668 161.898 43.2549C162.023 42.832 162.084 42.377 162.084 41.8838ZM187.145 0.988281C184.971 0.988281 183.141 2.62305 182.895 4.78613L177.893 49.1172H181.689L182.82 39.0439H191.477L192.607 49.1172H196.404L191.402 4.78613C191.156 2.62305 189.326 0.988281 187.145 0.988281ZM187.686 5.19336L191.018 35.3213H183.211L186.6 5.19336C186.629 4.91797 186.865 4.70508 187.145 4.70508C187.426 4.70508 187.656 4.91211 187.686 5.19336ZM64.5859 4.78613C64.832 2.62305 66.6621 0.988281 68.8359 0.988281C70.3203 0.988281 71.6387 1.74316 72.4082 2.90625C72.7715 3.4541 73.0137 4.09277 73.0938 4.78613L78.0957 49.1172H74.2988L73.168 39.0439H64.5117L63.3809 49.1172H59.584L64.5859 4.78613ZM72.709 35.3213L69.377 5.19336C69.3477 4.91211 69.1172 4.70508 68.8359 4.70508C68.5566 4.70508 68.3203 4.91797 68.291 5.19336L64.9023 35.3213H72.709Z" fill="#97B6B4"></path> </svg> 