<?xml version="1.0" encoding="UTF-8"?> <svg xmlns="http://www.w3.org/2000/svg" width="164" height="17" viewBox="0 0 164 17" fill="none"> <path d="M7.8298 4.68342V12.9095H6.69398V9.27833H2.11629V12.9095H0.980469V4.68342H2.11629V8.24001H6.69398V4.68342H7.8298Z" fill="#97B6B4"></path> <path d="M20.6165 7.43689V12.9095H19.779L19.5725 11.418C18.9759 12.4047 17.9147 13.0586 16.4633 13.0586C14.8629 13.0586 13.8418 12.1867 13.8418 10.7698C13.8418 8.92836 15.534 7.86712 17.9548 7.86712C18.5686 7.86712 19.0333 7.88433 19.4635 7.9417V7.38526C19.4635 6.23223 18.6432 5.65286 17.3812 5.65286C16.4863 5.65286 15.5742 5.91099 14.6621 6.34122L14.272 5.37176C15.3906 4.84974 16.4519 4.59161 17.4902 4.59161C19.3717 4.59161 20.6165 5.57827 20.6165 7.43689ZM19.4635 8.88821C19.0161 8.83084 18.6661 8.81363 18.1212 8.81363C16.188 8.81363 15.0292 9.48482 15.0292 10.6952C15.0292 11.5155 15.6258 11.9974 16.6469 11.9974C18.3392 11.9974 19.4004 10.7698 19.4578 8.88821H19.4635Z" fill="#97B6B4"></path> <path d="M46.0921 11.7909V15.7376H44.8645V12.9095H35.0207V15.7376H33.8103V11.7909H35.2617C36.0074 10.3396 36.4893 8.64732 36.713 6.54204L37.3841 0.254883H44.5662V11.7909H46.0921ZM36.604 11.7909H43.3615V1.36776H38.4683L37.889 6.84034C37.6824 8.7219 37.2579 10.3396 36.604 11.7909Z" fill="#97B6B4"></path> <path d="M58.3396 10.6551C58.3396 12.0892 57.2784 12.9037 55.6779 12.9037H51.8287V4.67766H55.3624C56.9456 4.67766 57.9495 5.5324 57.9495 6.85752C57.9495 7.76962 57.5193 8.349 56.8137 8.68171C57.743 8.93985 58.3396 9.61102 58.3396 10.6551ZM52.9588 5.70449V8.21706H55.3394C56.3605 8.21706 56.808 7.63767 56.808 6.94929C56.808 6.26092 56.3605 5.70449 55.3394 5.70449H52.9588ZM57.2038 10.5633C57.2038 9.81753 56.7219 9.24387 55.6607 9.24387H52.9645V11.8884H55.6607C56.7219 11.8884 57.2038 11.332 57.2038 10.569V10.5633Z" fill="#97B6B4"></path> <path d="M63.7204 8.7964C63.7204 6.26662 65.4873 4.47684 67.9654 4.47684C70.4436 4.47684 72.2448 6.26088 72.2448 8.7964C72.2448 11.3319 70.478 13.1159 67.9654 13.1159C65.4528 13.1159 63.7204 11.3319 63.7204 8.7964ZM71.0918 8.7964C71.0918 6.89763 69.824 5.53809 67.9654 5.53809C66.1068 5.53809 64.8792 6.89763 64.8792 8.7964C64.8792 10.6952 66.1469 12.0547 67.9654 12.0547C69.7839 12.0547 71.0918 10.7124 71.0918 8.7964Z" fill="#97B6B4"></path> <path d="M86.6832 8.75631C86.6832 11.2861 84.9737 13.0931 82.6103 13.0931C81.2507 13.0931 80.0977 12.4793 79.4094 11.55C79.4266 12.181 79.4438 12.9439 79.4438 13.7642V16.9996H78.3079V4.67768H79.1627L79.4036 6.05443C80.1092 5.10791 81.2278 4.51132 82.6218 4.51132C84.968 4.51132 86.6775 6.29537 86.6775 8.75631H86.6832ZM85.5474 8.81366C85.5474 6.91489 84.3025 5.57831 82.53 5.57831C80.7574 5.57831 79.3864 6.88048 79.3864 8.76204C79.3864 10.6436 80.7058 12.0376 82.53 12.0376C84.3542 12.0376 85.5474 10.6952 85.5474 8.8194V8.81366Z" fill="#97B6B4"></path> <path d="M98.4657 4.68342V12.9095H97.3298V9.7487H95.2647L92.9013 12.9095H91.5991V12.8177L94.0371 9.61678C92.9013 9.31848 92.1957 8.49817 92.1957 7.25336C92.1957 5.61273 93.3315 4.68342 95.0984 4.68342H98.4657ZM97.3298 8.76203V5.71025H95.1156C93.8478 5.71025 93.3315 6.32405 93.3315 7.25336C93.3315 8.18267 93.8536 8.76203 95.1156 8.76203H97.3298Z" fill="#97B6B4"></path> <path d="M111.975 4.68342V12.9095H110.839V9.27833H106.262V12.9095H105.126V4.68342H106.262V8.24001H110.839V4.68342H111.975Z" fill="#97B6B4"></path> <path d="M118.045 8.77345C118.045 6.05436 120.018 4.49403 122.249 4.49403C123.443 4.49403 124.355 4.86691 125.192 5.61265L124.538 6.39282C123.867 5.81344 123.219 5.55528 122.249 5.55528C120.54 5.55528 119.198 6.84026 119.198 8.77345C119.198 10.7066 120.517 12.049 122.232 12.049C123.351 12.049 124.016 11.6933 124.687 11.0623L125.318 11.8826C124.464 12.68 123.569 13.1102 122.135 13.1102C120.087 13.1102 118.039 11.6015 118.039 8.77345H118.045Z" fill="#97B6B4"></path> <path d="M137.399 12.812V12.9037H135.982L132.093 9.089V12.9037H130.957V4.67766H132.093V8.2859L135.649 4.67766H137.026V4.73503L133.12 8.6645L137.399 12.812Z" fill="#97B6B4"></path> <path d="M141.604 8.7964C141.604 6.26662 143.371 4.47684 145.849 4.47684C148.327 4.47684 150.128 6.26088 150.128 8.7964C150.128 11.3319 148.362 13.1159 145.849 13.1159C143.336 13.1159 141.604 11.3319 141.604 8.7964ZM148.975 8.7964C148.975 6.89763 147.708 5.53809 145.849 5.53809C143.99 5.53809 142.763 6.89763 142.763 8.7964C142.763 10.6952 144.031 12.0547 145.849 12.0547C147.667 12.0547 148.975 10.7124 148.975 8.7964Z" fill="#97B6B4"></path> <path d="M163.099 4.68337V12.9095H161.963V7.88431C161.963 7.5688 161.963 7.2533 161.98 6.9378C161.739 7.2533 161.475 7.5688 161.2 7.8671L156.605 12.9095H156.198V4.68337H157.334V9.55936C157.334 9.93223 157.316 10.3051 157.299 10.655C157.598 10.2822 157.913 9.93223 158.229 9.57657L162.697 4.68337H163.105H163.099ZM157.351 1.61436L158.039 1.09234C158.412 1.67172 159.026 2.03885 159.714 2.03885C160.403 2.03885 160.999 1.66599 161.389 1.09234L162.06 1.61436C161.579 2.50925 160.741 2.95669 159.714 2.95669C158.687 2.95669 157.856 2.50925 157.351 1.61436Z" fill="#97B6B4"></path> </svg> 