<svg width="32" height="34" viewBox="0 0 32 34" fill="none" xmlns="http://www.w3.org/2000/svg">
<path d="M31.1833 19.6831C32.1922 11.1524 30.6986 5.76671 28.0044 3.33077L28.0058 3.32936C23.6574 -0.830556 8.97176 -1.44626 3.76938 3.51619C1.4331 5.94364 0.610186 9.50624 0.520004 13.9167C0.429822 18.3285 0.322731 26.5932 7.98962 28.8352H7.99667L7.98962 32.2591C7.98962 32.2591 7.93748 33.6462 8.81958 33.925C9.82849 34.2534 10.285 33.6094 13.4231 29.8444C18.6706 30.3016 22.7006 29.2542 23.1585 29.1013C24.2182 28.7446 30.2139 27.9477 31.1833 19.6831ZM13.9402 27.4353C13.9402 27.4353 10.619 31.5953 9.58613 32.6752C9.24794 33.0262 8.87735 32.9937 8.88299 32.2973C8.88299 31.8401 8.90835 26.613 8.90835 26.613C2.40819 24.7418 2.79147 17.7043 2.86192 14.0228C2.93238 10.3399 3.60311 7.32367 5.58148 5.29254C10.1455 0.993918 23.0204 1.95499 26.3008 5.05192C30.3111 8.62302 28.8837 18.7121 28.8921 19.0561C28.0678 25.9548 23.2093 26.3922 22.3159 26.6908C21.934 26.8182 18.3902 27.734 13.9402 27.4353Z" fill="white"/>
<path d="M15.7777 6.10075C15.2352 6.10075 15.2352 6.95 15.7777 6.95708C19.9867 6.98963 23.453 9.93653 23.4911 15.342C23.4911 15.9124 24.3224 15.9054 24.3154 15.3349H24.314C24.2689 9.51049 20.4841 6.13331 15.7777 6.10075Z" fill="white"/>
<path d="M21.314 14.446C21.3013 15.0094 22.1313 15.0363 22.1383 14.4659C22.2074 11.2543 20.2361 8.60885 16.5316 8.33001C15.9891 8.29038 15.9327 9.14671 16.4738 9.18634C19.6865 9.43121 21.3788 11.6336 21.314 14.446Z" fill="white"/>
<path d="M20.4263 18.0992C19.7302 17.6944 19.0214 17.9464 18.7283 18.3441L18.1154 19.141C17.804 19.5458 17.222 19.492 17.222 19.492C12.975 18.3639 11.8393 13.8997 11.8393 13.8997C11.8393 13.8997 11.7871 13.2953 12.176 12.9712L12.9426 12.3342C13.3259 12.0285 13.5682 11.2925 13.1779 10.5692C12.1352 8.6768 11.4349 8.02429 11.0784 7.52324C10.7035 7.0519 10.1399 6.94574 9.55372 7.26421H9.54103C8.32217 7.98042 6.98775 9.32082 7.41471 10.7008C8.14321 12.1559 9.48185 16.7942 13.7486 20.2988C15.7537 21.9563 18.927 23.6548 20.2741 24.0468L20.2868 24.0666C21.6142 24.5111 22.9049 23.1183 23.5939 21.8572V21.8473C23.8997 21.2372 23.7983 20.6597 23.3516 20.2818C22.5597 19.5062 21.3648 18.6498 20.4263 18.0992Z" fill="white"/>
<path d="M17.1121 11.4892C18.4662 11.5685 19.1229 12.279 19.1933 13.7383C19.2187 14.3087 20.043 14.2691 20.0177 13.6987C19.9275 11.7935 18.9383 10.732 17.1572 10.6329C16.6147 10.6003 16.564 11.4567 17.1121 11.4892Z" fill="white"/>
</svg>
