<svg width="40" height="25" viewBox="0 0 40 25" fill="none" xmlns="http://www.w3.org/2000/svg">
<path d="M33.1928 14.2623C32.5461 13.4223 32.7311 13.0486 33.1928 12.2977C33.2012 12.2891 38.5397 4.70171 39.0897 2.12857L39.093 2.12686C39.3664 1.18914 39.093 0.5 37.7713 0.5H33.3978C32.2845 0.5 31.7711 1.09143 31.4961 1.75314C31.4961 1.75314 29.2693 7.23543 26.1192 10.7891C25.1025 11.816 24.6325 12.1451 24.0775 12.1451C23.8042 12.1451 23.3791 11.816 23.3791 10.8783V2.12686C23.3791 1.00229 23.0675 0.5 22.1458 0.5H15.2689C14.5705 0.5 14.1555 1.02457 14.1555 1.51314C14.1555 2.57943 15.7305 2.82457 15.8939 5.82457V12.3337C15.8939 13.76 15.6422 14.0223 15.0839 14.0223C13.5971 14.0223 9.98868 8.51771 7.85027 2.21771C7.41859 0.995428 6.99691 0.501714 5.8752 0.501714H1.50005C0.251675 0.501714 0 1.09314 0 1.75486C0 2.924 1.48672 8.73714 6.91357 16.4171C10.5304 21.6594 15.6239 24.5 20.2574 24.5C23.0425 24.5 23.3825 23.8691 23.3825 22.784C23.3825 17.7749 23.1308 17.3017 24.5259 17.3017C25.1725 17.3017 26.2859 17.6309 28.886 20.1594C31.8578 23.1577 32.3461 24.5 34.0095 24.5H38.383C39.6297 24.5 40.2614 23.8691 39.898 22.6246C39.0664 20.0069 33.4462 14.6223 33.1928 14.2623Z" fill="white"/>
</svg>
