<?xml version="1.0" encoding="UTF-8"?> <svg xmlns="http://www.w3.org/2000/svg" width="60" height="78" viewBox="0 0 60 78" fill="none"> <path d="M57.8123 42.4815C57.2299 41.899 56.2855 41.899 55.7031 42.4815C55.1206 43.064 55.1206 44.0083 55.7031 44.5908C56.2855 45.1732 57.2299 45.1732 57.8123 44.5908C58.3948 44.0083 58.3948 43.064 57.8123 42.4815Z" fill="#D6AE9F"></path> <path d="M57.1783 11.4882C57.3848 11.6144 57.6142 11.6775 57.838 11.6775C58.228 11.6775 58.6124 11.494 58.859 11.1498L59.7367 9.9107L59.6392 9.84185C58.2854 8.86665 45.9807 0.319336 30.0964 0.319336C14.1376 0.319336 1.77554 8.86665 0.416004 9.84185L0.324219 9.9107L1.20763 11.1498C1.59198 11.689 2.33198 11.8381 2.89415 11.4882C3.51369 11.0981 4.1447 10.7253 4.76998 10.3639V34.761C4.76998 35.8796 5.67634 36.786 6.79495 36.786H7.41449L7.50053 36.7745H9.72628V71.1417H12.4568V58.3035H28.8803V77.2166H31.6109V58.3035H47.5984V72.9429L50.3289 71.9276V36.7688H52.9907V36.7803H53.6962C54.8148 36.7803 55.7212 35.8739 55.7212 34.7553V10.5933C56.2088 10.8802 56.6964 11.1784 57.1783 11.4825V11.4882ZM28.8803 36.7745V55.5786H12.4568V36.7745H28.8803ZM31.6109 36.7745H47.5984V55.5786H31.6109V36.7745ZM7.50053 8.87239C11.5677 6.78432 15.7209 5.24122 19.8741 4.27176V34.044H7.50053V8.87239ZM37.8923 34.044H22.5989V3.72679C25.1172 3.29082 27.624 3.0671 30.0964 3.0671C32.6664 3.0671 35.2707 3.31377 37.8866 3.7899V34.0497L37.8923 34.044ZM40.6228 4.3578C44.776 5.36168 48.9292 6.95068 52.9907 9.0789V34.0382H40.6228V4.35207V4.3578Z" fill="#D6AE9F"></path> <path d="M57.6912 50.4776C57.1088 49.8951 56.1644 49.8951 55.582 50.4776C54.9995 51.0601 54.9995 52.0044 55.582 52.5869C56.1644 53.1693 57.1088 53.1693 57.6912 52.5869C58.2737 52.0044 58.2737 51.0601 57.6912 50.4776Z" fill="#D6AE9F"></path> <path d="M57.6854 58.5088C57.1029 57.9264 56.1586 57.9264 55.5761 58.5088C54.9937 59.0913 54.9937 60.0357 55.5761 60.6181C56.1586 61.2006 57.1029 61.2006 57.6854 60.6181C58.2678 60.0357 58.2678 59.0913 57.6854 58.5088Z" fill="#D6AE9F"></path> <path d="M4.91977 42.459C4.33731 41.8766 3.39295 41.8766 2.81049 42.459C2.22804 43.0415 2.22804 43.9859 2.8105 44.5683C3.39296 45.1508 4.3373 45.1508 4.91976 44.5683C5.50222 43.9858 5.50222 43.0415 4.91977 42.459Z" fill="#D6AE9F"></path> <path d="M4.78499 50.4561C4.20254 49.8736 3.25819 49.8736 2.67573 50.4561C2.09327 51.0386 2.09327 51.9829 2.67573 52.5654C3.25818 53.1478 4.20254 53.1478 4.785 52.5654C5.36746 51.9829 5.36745 51.0386 4.78499 50.4561Z" fill="#D6AE9F"></path> <path d="M4.78891 58.4962C4.20645 57.9137 3.26209 57.9137 2.67963 58.4961C2.09718 59.0786 2.09718 60.023 2.67964 60.6054C3.2621 61.1879 4.20644 61.1879 4.7889 60.6054C5.37136 60.023 5.37137 59.0786 4.78891 58.4962Z" fill="#D6AE9F"></path> </svg> 