<?xml version="1.0" encoding="UTF-8"?> <svg xmlns="http://www.w3.org/2000/svg" width="76" height="23" viewBox="0 0 76 23" fill="none"> <path d="M73.7141 0.315308H2.81723C1.78466 0.315308 0.941406 1.13562 0.941406 2.14524V5.16261L4.07925 7.69239V21.4599C4.07925 21.9877 4.36033 22.458 4.83646 22.7162C5.32979 22.9801 5.90344 22.9571 6.3681 22.6588L12.4832 18.7064C12.9363 18.4081 13.206 17.9205 13.206 17.387V14.6565H13.1199C11.7432 14.6278 10.6303 13.5436 10.6303 12.2414C10.6303 10.9392 11.7718 9.82636 13.1773 9.82636C13.1945 9.82636 13.206 9.82636 13.2174 9.82636H63.4631C64.8341 9.87799 65.9125 10.9392 65.9125 12.2414C65.9125 13.5436 64.8398 14.5991 63.4631 14.6507H63.377V17.5763C63.4344 18.0524 63.6811 18.4597 64.0539 18.7007L70.1633 22.6531C70.4099 22.8137 70.691 22.894 70.9721 22.894C71.2188 22.894 71.4654 22.8309 71.6949 22.7104C72.1653 22.4523 72.4521 21.9819 72.4521 21.4542V7.68666L75.5555 5.18556L75.59 5.15688V2.1395C75.59 1.12989 74.7467 0.30957 73.7141 0.30957V0.315308ZM65.7519 16.6068C67.4614 15.7349 68.5226 14.0656 68.5226 12.2414C68.5226 9.56248 66.251 7.33673 63.4573 7.27937H13.1887C10.332 7.27937 8.00299 9.50512 8.00299 12.2414C8.00299 14.0656 9.06423 15.7406 10.7737 16.6068L10.8884 16.6642L6.69507 19.3776V7.46867C6.69507 6.84914 6.41399 6.26401 5.92065 5.86246L3.55723 3.95796V2.8623H72.9684V3.95796L70.605 5.86246C70.1116 6.25828 69.8305 6.8434 69.8305 7.46867V19.3776L65.6372 16.6642L65.7519 16.6068Z" fill="#D6AE9F"></path> <path d="M39.158 13.7393C38.5756 13.1569 37.6312 13.1569 37.0488 13.7393C36.4663 14.3218 36.4663 15.2661 37.0488 15.8486C37.6312 16.431 38.5756 16.431 39.158 15.8486C39.7405 15.2661 39.7405 14.3218 39.158 13.7393Z" fill="#D6AE9F"></path> <path d="M48.1385 14.1524C47.5561 13.5699 46.6117 13.5699 46.0292 14.1524C45.4468 14.7349 45.4468 15.6792 46.0292 16.2617C46.6117 16.8441 47.5561 16.8441 48.1385 16.2617C48.721 15.6792 48.721 14.7349 48.1385 14.1524Z" fill="#D6AE9F"></path> <path d="M30.2108 14.1719C29.6283 13.5895 28.684 13.5895 28.1015 14.1719C27.5191 14.7544 27.519 15.6987 28.1015 16.2812C28.684 16.8637 29.6283 16.8637 30.2108 16.2812C30.7932 15.6987 30.7932 14.7544 30.2108 14.1719Z" fill="#D6AE9F"></path> <path d="M60.6527 16.4627L56.6716 12.625L52.8281 16.6061L56.8092 20.4438L60.6469 16.4627H60.6527ZM55.3235 16.5602L56.7175 15.1146L58.163 16.5086L56.7691 17.9542L55.3235 16.5602Z" fill="#D6AE9F"></path> <path d="M23.1716 16.5257L23.2347 16.4626L19.3167 12.6822L19.2536 12.6191L15.4733 16.5371L15.4102 16.6002L19.3282 20.3806L19.3913 20.4437L23.1716 16.5257ZM17.8998 16.5601L19.2937 15.1145L20.7393 16.5085L19.3454 17.954L17.8998 16.5601Z" fill="#D6AE9F"></path> </svg> 