<svg width="32" height="33" viewBox="0 0 32 33" fill="none" xmlns="http://www.w3.org/2000/svg">
<path d="M16.004 0.5H15.996C7.174 0.5 0 7.676 0 16.5C0 20 1.128 23.244 3.046 25.878L1.052 31.822L7.202 29.856C9.732 31.532 12.75 32.5 16.004 32.5C24.826 32.5 32 25.322 32 16.5C32 7.678 24.826 0.5 16.004 0.5ZM25.314 23.094C24.928 24.184 23.396 25.088 22.174 25.352C21.338 25.53 20.246 25.672 16.57 24.148C11.868 22.2 8.84 17.422 8.604 17.112C8.378 16.802 6.704 14.582 6.704 12.286C6.704 9.99 7.87 8.872 8.34 8.392C8.726 7.998 9.364 7.818 9.976 7.818C10.174 7.818 10.352 7.828 10.512 7.836C10.982 7.856 11.218 7.884 11.528 8.626C11.914 9.556 12.854 11.852 12.966 12.088C13.08 12.324 13.194 12.644 13.034 12.954C12.884 13.274 12.752 13.416 12.516 13.688C12.28 13.96 12.056 14.168 11.82 14.46C11.604 14.714 11.36 14.986 11.632 15.456C11.904 15.916 12.844 17.45 14.228 18.682C16.014 20.272 17.462 20.78 17.98 20.996C18.366 21.156 18.826 21.118 19.108 20.818C19.466 20.432 19.908 19.792 20.358 19.162C20.678 18.71 21.082 18.654 21.506 18.814C21.938 18.964 24.224 20.094 24.694 20.328C25.164 20.564 25.474 20.676 25.588 20.874C25.7 21.072 25.7 22.002 25.314 23.094Z" fill="white"/>
</svg>
